<?xml version="1.0" standalone="no"?>
<!DOCTYPE svg PUBLIC "-//W3C//DTD SVG 1.1//EN" "http://www.w3.org/Graphics/SVG/1.1/DTD/svg11.dtd" >
<svg xmlns="http://www.w3.org/2000/svg" xmlns:xlink="http://www.w3.org/1999/xlink" version="1.1">
<metadata>
Created by FontForge 20170731 at Sat Jan 13 04:57:34 2018
 By Aleksey,,,
Copyright (c) 1981, 1982, 1983, 1989 and 1993, Linotype Library GmbH or its affiliated Linotype-Hell companies. All rights reserved.

The digitally encoded machine readable software for producing the Typefaces licensed to you is now the property of Heidelberger Druckmaschinen AG and its licensors, and may not be reproduced, used, displayed, modified, disclosed or transferred without the express written approval of Heidelberger Druckmaschinen AG.

Copyright (c) 1988, 1990, 1993 Adobe Systems Incorporated. All Rights Reserved.
</metadata>
<defs>
<font id="HelveticaNeue-UltraLightItalic" horiz-adv-x="500" >
  <font-face 
    font-family="Helvetica Neue"
    font-weight="100"
    font-style="italic"
    font-stretch="normal"
    units-per-em="1000"
    panose-1="2 0 2 6 0 0 0 9 0 4"
    ascent="800"
    descent="-200"
    x-height="514"
    cap-height="714"
    bbox="-338 -325 1246 1138"
    underline-thickness="50"
    underline-position="-275"
    unicode-range="U+0008-FE48"
  />
<missing-glyph 
d="M442 8v496h-384v-496h384zM50 512h400v-512h-400v512z" />
    <glyph glyph-name="fi" unicode="fi" horiz-adv-x="333" 
d="M332 714h22l-23 -104h-22zM204 0h-22l110 514h22zM114 514l12 45q0 2 4 20.5t5.5 25.5t7.5 25t11 26.5t15 21.5t21.5 19.5t28 11.5t35.5 5q8 0 24.5 -0.5t26.5 -0.5l-4 -20q-3 1 -11 1h-11h-25q-26 0 -44.5 -9t-29.5 -27t-16 -31t-10.5 -38t-7.5 -30l-11 -45h110l-5 -20
h-110l-109 -494h-21l109 494h-90l5 20h90z" />
    <glyph glyph-name="fl" unicode="fl" horiz-adv-x="333" 
d="M182 0l150 714h22l-150 -714h-22zM114 514l12 45q0 2 4 20.5t5.5 25.5t7.5 25t11 26.5t15 21.5t21.5 19.5t28 11.5t35.5 5q8 0 24.5 -0.5t26.5 -0.5l-4 -20q-3 1 -11 1h-11h-25q-26 0 -44.5 -9t-29.5 -27t-16 -31t-10.5 -38t-7.5 -30l-11 -45h110l-5 -20h-110l-109 -494
h-21l109 494h-90l5 20h90z" />
    <glyph glyph-name=".notdef" 
d="M442 8v496h-384v-496h384zM50 512h400v-512h-400v512z" />
    <glyph glyph-name=".null" horiz-adv-x="0" 
 />
    <glyph glyph-name="nonmarkingreturn" horiz-adv-x="333" 
 />
    <glyph glyph-name="controlBS" horiz-adv-x="0" 
 />
    <glyph glyph-name="controlHT" unicode="&#x9;" horiz-adv-x="278" 
 />
    <glyph glyph-name="controlCR" unicode="&#xd;" horiz-adv-x="278" 
 />
    <glyph glyph-name="controlGS" horiz-adv-x="0" 
 />
    <glyph glyph-name="space" unicode=" " horiz-adv-x="278" 
 />
    <glyph glyph-name="exclam" unicode="!" horiz-adv-x="185" 
d="M163 714h21l-118 -532h-21zM28 98h21l-22 -98h-21z" />
    <glyph glyph-name="quotedbl" unicode="&#x22;" horiz-adv-x="278" 
d="M258 714v-225h-20v225h20zM146 714v-225h-20v225h20z" />
    <glyph glyph-name="numbersign" unicode="#" horiz-adv-x="556" 
d="M185 249h171l24 177h-171zM245 680l-31 -234h171l31 234h20l-31 -234h116v-20h-121l-24 -177h117v-20h-121l-31 -229h-20l31 229h-172l-31 -229h-20l31 229h-125v20h130l24 177h-126v20h131l31 234h20z" />
    <glyph glyph-name="dollar" unicode="$" horiz-adv-x="556" 
d="M187 -12q-94 13 -149 68.5t-53 150.5v14v8q0 5 1 8h19q-1 -3 -1 -14v-17q-2 -82 49 -133.5t138 -63.5l81 348q-39 13 -58.5 20t-49 22t-43.5 31t-24.5 42t-9.5 58q2 100 73.5 150.5t173.5 50.5h12q9 0 11 -1l16 70h20l-16 -71q198 -18 198 -196v-11q0 -9 -1 -12h-20
q1 3 1 12v12q0 83 -49 126.5t-134 49.5l-77 -338q7 -2 60 -18q79 -25 115 -61t35 -101q0 -56 -25 -98.5t-64.5 -65.5t-81.5 -34t-84 -11h-22q-7 0 -21 2l-23 -97h-20zM352 711q-9 1 -18 0q-58 0 -106.5 -17t-84 -58.5t-36.5 -102.5q-2 -78 64 -114q38 -20 105 -41zM211 6
q14 -2 19 -2h20q35 0 72.5 9.5t75.5 29.5t62.5 58.5t24.5 90.5q1 36 -9 60.5t-40 42.5t-49 25.5t-71 23.5q-16 5 -25 8z" />
    <glyph glyph-name="percent" unicode="%" horiz-adv-x="685" 
d="M561 714h23l-476 -747h-23zM468 8q67 0 111 55.5t44 127.5q0 53 -28 83.5t-86 30.5q-73 0 -113.5 -56.5t-40.5 -131.5q0 -50 32 -79.5t81 -29.5zM468 -11q-58 0 -95.5 35.5t-37.5 92.5q0 84 47 146t127 62q62 0 98 -34.5t36 -99.5q0 -78 -48.5 -140t-126.5 -62zM175 375
q67 0 111 55.5t44 127.5q0 53 -28 83.5t-86 30.5q-73 0 -113.5 -56.5t-40.5 -131.5q0 -50 32 -79.5t81 -29.5zM175 355q-57 0 -95 36t-38 93q0 84 47 146t127 62q62 0 98 -34.5t36 -99.5q0 -78 -49 -140.5t-126 -62.5z" />
    <glyph glyph-name="ampersand" unicode="&#x26;" horiz-adv-x="574" 
d="M438 566q0 49 -35.5 77.5t-88.5 28.5q-52 0 -91 -31.5t-39 -87.5q0 -21 13.5 -52t23 -47t34.5 -56l12 6q37 19 58.5 30.5t52 33.5t45.5 46.5t15 51.5zM418 148q29 59 47 126h20q-11 -68 -53 -143l85 -131h-25l-72 111q-45 -62 -96 -94.5t-122 -32.5q-79 0 -133.5 46
t-54.5 126q0 20 4 38.5t8.5 33t16.5 30t18.5 25t25 22.5t25.5 19t30.5 18.5t29.5 15.5t32.5 16t31.5 15q-4 7 -20.5 35t-25.5 44t-17.5 41t-8.5 44q0 60 43 99.5t107 39.5q60 0 102 -33.5t42 -92.5q0 -22 -7.5 -41.5t-25.5 -38t-32.5 -31t-43 -29t-41 -23.5t-42.5 -22z
M247 373q-13 -7 -47 -24.5t-50.5 -26.5t-43 -28.5t-39 -36.5t-23 -43.5t-10.5 -57.5q0 -69 48.5 -111t119.5 -42q63 0 116.5 34.5t88.5 91.5z" />
    <glyph glyph-name="quotesingle" unicode="'" horiz-adv-x="167" 
d="M146 714v-225h-20v225h20z" />
    <glyph glyph-name="parenleft" unicode="(" horiz-adv-x="222" 
d="M289 731q-226 -272 -226 -636q0 -103 42 -271h-20q-42 154 -42 271q0 365 221 636h25z" />
    <glyph glyph-name="parenright" unicode=")" horiz-adv-x="222" 
d="M-86 -176q225 276 225 635q0 104 -42 272h20q42 -154 42 -272q0 -365 -220 -635h-25z" />
    <glyph glyph-name="asterisk" unicode="*" horiz-adv-x="352" 
d="M93 457l99 100l-111 65l12 16l110 -64l23 140h20l-23 -143l133 48l6 -19l-133 -48l77 -102l-15 -14l-83 110l-101 -103z" />
    <glyph glyph-name="plus" unicode="+" horiz-adv-x="600" 
d="M290 243h-242v20h242v243h20v-243h242v-20h-242v-243h-20v243z" />
    <glyph glyph-name="comma" unicode="," horiz-adv-x="278" 
d="M111 98l-29 -130q-20 -74 -74 -94l4 26q24 13 34.5 31.5t16.5 46.5l27 120h21z" />
    <glyph glyph-name="hyphen" unicode="-" horiz-adv-x="333" 
d="M59 278h184l-4 -20h-184z" />
    <glyph glyph-name="period" unicode="." horiz-adv-x="278" 
d="M68 0l22 98h21l-22 -98h-21z" />
    <glyph glyph-name="slash" unicode="/" horiz-adv-x="333" 
d="M-6 -16l326 747h20l-327 -747h-19z" />
    <glyph glyph-name="zero" unicode="0" horiz-adv-x="556" 
d="M536 456q0 -59 -10.5 -120.5t-35 -124t-59.5 -111.5t-89.5 -80t-119.5 -31q-98 0 -151 64t-53 163q0 55 10 116t33.5 126t57.5 116.5t86.5 84.5t115.5 33q112 0 163.5 -63.5t51.5 -172.5zM516 456q0 216 -195 216q-73 0 -130.5 -48t-89 -121t-47.5 -147.5t-16 -139.5
q0 -92 47.5 -150t136.5 -58q77 0 136.5 45t92 115.5t49 144t16.5 143.5z" />
    <glyph glyph-name="one" unicode="1" horiz-adv-x="556" 
d="M223 0l143 658l-2 2q-105 -105 -212 -130l6 22q92 23 205 128h29l-148 -680h-21z" />
    <glyph glyph-name="two" unicode="2" horiz-adv-x="556" 
d="M438 20l-4 -20h-452q3 39 20.5 74.5t40 61t58 52t63.5 42.5t68 37q7 4 44.5 22.5t53 27.5t48.5 29.5t49.5 37t37 39.5t29 49t8.5 54q0 71 -49 108.5t-125 37.5q-94 0 -152.5 -57t-60.5 -150h-20q6 105 68.5 166t164.5 61q84 0 139 -42.5t55 -123.5q0 -70 -49 -125
t-121 -93.5t-145.5 -76.5t-131.5 -91.5t-70 -119.5h433z" />
    <glyph glyph-name="three" unicode="3" horiz-adv-x="556" 
d="M38 230q-5 -25 -5 -60q0 -77 55 -119.5t137 -42.5q97 0 163.5 50.5t66.5 145.5q0 43 -19.5 74t-52 46.5t-69 21.5t-76.5 4l5 19q40 0 70 2t69 11t64 25.5t43 47t18 73.5q0 72 -50.5 108t-125.5 36q-181 0 -213 -187h-20q14 98 74.5 152.5t158.5 54.5q84 0 140 -42
t56 -122t-49.5 -122t-132.5 -48v-2q58 -6 93 -49t37 -103q0 -101 -71.5 -158t-178.5 -57q-92 0 -152 47.5t-60 133.5q0 35 4 60h21z" />
    <glyph glyph-name="four" unicode="4" horiz-adv-x="556" 
d="M4 178l4 22l445 480h23l-100 -482h121l-3 -20h-121l-37 -178h-22l37 178h-347zM448 643l-2 2l-413 -447h321z" />
    <glyph glyph-name="five" unicode="5" horiz-adv-x="556" 
d="M544 660h-337l-93 -248l-16 -36l2 -2q27 41 76 63t105 22q90 0 148.5 -51.5t58.5 -140.5q0 -121 -70 -199.5t-188 -78.5q-91 0 -146 46t-55 131q0 17 3 47h20q-3 -19 -3 -47q0 -76 49 -117t132 -41q112 0 175 74t63 185q0 79 -52.5 125.5t-134.5 46.5q-55 0 -104.5 -24.5
t-81.5 -69.5h-28l126 335h357z" />
    <glyph glyph-name="six" unicode="6" horiz-adv-x="556" 
d="M473 252q0 84 -54.5 134t-136.5 50q-100 0 -164 -69t-64 -165q0 -93 50 -143.5t144 -50.5q103 0 164 70t61 174zM515 514q9 72 -40 115t-127 43q-176 0 -250 -212q-12 -37 -37 -147h2q24 64 84 103.5t135 39.5q93 0 152 -57t59 -147q0 -114 -67 -188.5t-178 -74.5
q-107 0 -160.5 58.5t-53.5 162.5q0 109 44 254q30 100 98 164t172 64q86 0 140.5 -46.5t46.5 -131.5h-20z" />
    <glyph glyph-name="seven" unicode="7" horiz-adv-x="556" 
d="M128 680h430l-6 -22q-310 -303 -426 -658h-22q124 372 424 660h-403z" />
    <glyph glyph-name="eight" unicode="8" horiz-adv-x="556" 
d="M257 -11q-110 0 -180 45.5t-70 135.5q0 92 60 143t156 57v2q-56 12 -89 49t-33 96q0 90 61.5 132.5t159.5 42.5q88 0 148.5 -39t60.5 -117q0 -51 -23.5 -88.5t-57.5 -55t-61 -25t-46 -7.5v-2q70 -12 109 -56.5t39 -115.5q0 -101 -69 -149t-165 -48zM471 186q0 45 -19 79
t-51 53t-68.5 28t-76.5 9q-95 0 -162 -47.5t-67 -137.5q4 -84 67.5 -123t164.5 -39q96 0 154 48.5t58 129.5zM511 536q0 37 -17 64.5t-45 42.5t-60 22t-67 7q-90 0 -145.5 -37t-55.5 -118q0 -70 55 -106t130 -36q83 0 144 42t61 119z" />
    <glyph glyph-name="nine" unicode="9" horiz-adv-x="556" 
d="M41 166q-9 -72 40 -115t127 -43q179 0 250 212q7 23 15.5 55t16 63t8.5 34l-2 2q-26 -70 -86.5 -110t-135.5 -40q-93 0 -152 57t-59 147q0 114 67 189t178 75q107 0 160.5 -59.5t53.5 -162.5q0 -109 -44 -254q-30 -100 -98 -163.5t-172 -63.5q-86 0 -140.5 46t-46.5 131
h20zM502 478q0 93 -50 143.5t-144 50.5q-103 0 -164 -70t-61 -174q0 -84 54.5 -134t136.5 -50q100 0 164 69t64 165z" />
    <glyph glyph-name="colon" unicode=":" horiz-adv-x="278" 
d="M68 0l22 98h21l-22 -98h-21zM155 394l22 98h21l-22 -98h-21z" />
    <glyph glyph-name="semicolon" unicode=";" horiz-adv-x="278" 
d="M155 394l22 98h21l-22 -98h-21zM111 98l-29 -130q-20 -74 -74 -94l4 26q24 13 34.5 31.5t16.5 46.5l27 120h21z" />
    <glyph glyph-name="less" unicode="&#x3c;" horiz-adv-x="600" 
d="M554 -7l-508 248v24l508 249v-21l-490 -240l490 -240v-20z" />
    <glyph glyph-name="equal" unicode="=" horiz-adv-x="600" 
d="M48 146v20h504v-20h-504zM48 340v20h504v-20h-504z" />
    <glyph glyph-name="greater" unicode="&#x3e;" horiz-adv-x="600" 
d="M536 253l-490 240v21l508 -249v-24l-508 -248v20z" />
    <glyph glyph-name="question" unicode="?" 
d="M160 0l22 98h21l-22 -98h-21zM81 495q6 106 63 171t158 65q81 0 133.5 -43t52.5 -120q0 -70 -35.5 -112t-106.5 -86q-42 -27 -57.5 -39t-32 -36.5t-25.5 -63.5l-12 -50h-21l13 53q8 33 18 55.5t30 41t31.5 26.5t45.5 30q72 43 102 82.5t30 98.5q0 71 -47.5 107t-118.5 36
q-94 0 -144.5 -60.5t-56.5 -155.5h-20z" />
    <glyph glyph-name="at" unicode="@" horiz-adv-x="800" 
d="M594 547h21l-111 -288q-44 -107 25 -107q66 0 130 77.5t64 181.5q0 124 -86.5 202.5t-217.5 78.5q-145 0 -243.5 -98.5t-98.5 -240.5q0 -163 98 -254t244 -91q88 0 164.5 44t125.5 114h23q-48 -80 -134.5 -128.5t-178.5 -48.5q-69 0 -132.5 22t-115.5 64.5t-83 114
t-31 163.5q0 153 106 256t256 103q138 0 231 -82.5t93 -218.5q0 -111 -69.5 -195t-146.5 -84q-30 0 -47 18t-12 45h-2q-46 -63 -136 -63q-57 0 -96.5 42.5t-39.5 102.5q0 64 28.5 129.5t85 112.5t123.5 47q49 0 86.5 -23t50.5 -62h2zM559 456q-12 47 -50 68.5t-82 21.5
q-88 0 -150.5 -88.5t-62.5 -180.5q0 -53 34 -89t86 -36q107 0 154 120z" />
    <glyph glyph-name="A" unicode="A" horiz-adv-x="574" 
d="M458 235h-366l-146 -235h-22l446 714h20l132 -714h-20zM455 255l-79 431h-2l-269 -431h350z" />
    <glyph glyph-name="B" unicode="B" horiz-adv-x="611" 
d="M93 382h258q106 0 168.5 46t62.5 127q0 139 -155 139h-265zM144 714h277q181 0 181 -159q0 -82 -53 -128.5t-122 -53.5v-2q134 -12 134 -154q0 -103 -69 -160t-185 -57h-313zM17 20h302q37 0 73.5 10t71 31.5t56 61.5t21.5 94q0 38 -12 65.5t-30 42.5t-47 23.5t-54 11
t-60 2.5h-248z" />
    <glyph glyph-name="C" unicode="C" horiz-adv-x="685" 
d="M648 252q-31 -119 -123 -193.5t-217 -74.5q-128 0 -201.5 78t-73.5 211q0 84 25.5 164.5t72.5 146t122 106t166 41.5q110 0 188 -63t78 -169h-20q0 95 -73.5 153.5t-172.5 58.5q-112 0 -197.5 -64.5t-127 -162.5t-41.5 -211q0 -130 71 -200t184 -70q115 0 200.5 67
t119.5 182h20z" />
    <glyph glyph-name="D" unicode="D" horiz-adv-x="667" 
d="M150 714h150q39 0 62 -1t62.5 -6.5t64.5 -15.5t55 -30.5t47.5 -49.5t29.5 -74.5t12 -102.5q0 -85 -29 -173t-81 -146q-63 -70 -133.5 -92.5t-175.5 -22.5h-220zM18 20h196q105 0 167 20t124 86q46 50 77 134t31 174q0 70 -18 119.5t-44 76.5t-71 42t-83.5 18.5t-96.5 3.5
h-134z" />
    <glyph glyph-name="E" unicode="E" horiz-adv-x="519" 
d="M465 20l-5 -20h-469l152 714h453l-4 -20h-433l-67 -312h404l-4 -20h-405l-73 -342h451z" />
    <glyph glyph-name="F" unicode="F" horiz-adv-x="481" 
d="M465 362h-377l-78 -362h-19l152 714h436l-4 -20h-416l-67 -312h376z" />
    <glyph glyph-name="G" unicode="G" horiz-adv-x="722" 
d="M608 99l25 97l-2 2q-46 -106 -121 -159t-188 -55q-148 5 -218 86q-73 85 -71 209q0 120 44 222t134.5 166.5t212.5 63.5q113 2 184.5 -58.5t81.5 -172.5h-20q-11 106 -75.5 159.5t-170.5 51.5q-87 1 -159 -35t-117.5 -97.5t-70 -138.5t-24.5 -161q0 -55 19.5 -111.5
t55.5 -92.5q67 -67 194 -72q137 2 219 86.5t115 224.5h-277l4 20h295l-71 -334h-20z" />
    <glyph glyph-name="H" unicode="H" horiz-adv-x="648" 
d="M574 382l72 332h20l-153 -714h-20l77 362h-479l-78 -362h-19l152 714h20l-71 -332h479z" />
    <glyph glyph-name="I" unicode="I" horiz-adv-x="148" 
d="M-6 0l152 714h20l-153 -714h-19z" />
    <glyph glyph-name="J" unicode="J" horiz-adv-x="463" 
d="M481 714l-113 -529q-9 -43 -21.5 -74.5t-35 -62.5t-60 -47.5t-88.5 -16.5q-91 0 -137 42.5t-46 117.5q0 46 9 76h19q-8 -45 -8 -76q0 -70 43 -105.5t120 -35.5q86 0 125.5 48.5t60.5 142.5l111 520h21z" />
    <glyph glyph-name="K" unicode="K" horiz-adv-x="593" 
d="M69 262l-56 -262h-19l151 714h20l-90 -424l576 424h33l-416 -307l292 -407h-24l-284 395z" />
    <glyph glyph-name="L" unicode="L" horiz-adv-x="481" 
d="M431 20l-5 -20h-432l152 714h21l-149 -694h413z" />
    <glyph glyph-name="M" unicode="M" horiz-adv-x="796" 
d="M144 714h30l156 -692h2l450 692h32l-152 -714h-21l146 683l-2 2l-444 -685h-26l-154 685h-2l-145 -685h-20z" />
    <glyph glyph-name="N" unicode="N" horiz-adv-x="667" 
d="M505 0l-344 691h-2l-145 -691h-20l151 714h27l344 -691h2l146 691h21l-153 -714h-27z" />
    <glyph glyph-name="O" unicode="O" horiz-adv-x="722" 
d="M677 434q0 128 -69 202.5t-197 74.5q-111 0 -194.5 -65t-123.5 -161.5t-40 -204.5q0 -126 71 -201.5t195 -75.5q110 0 193.5 65t124 161.5t40.5 204.5zM697 434q0 -85 -25.5 -165t-72 -144t-119.5 -102.5t-161 -38.5q-136 0 -211 79.5t-75 216.5q0 85 25 165t71.5 144
t119.5 103t162 39q135 0 210.5 -80t75.5 -217z" />
    <glyph glyph-name="P" unicode="P" horiz-adv-x="574" 
d="M9 0h-20l152 714h270q91 0 136.5 -45t45.5 -122q0 -29 -6 -57t-24 -59t-46.5 -53.5t-78 -37.5t-113.5 -15h-246zM82 345h249q111 0 176.5 52t65.5 150q0 147 -166 147h-250z" />
    <glyph glyph-name="Q" unicode="Q" horiz-adv-x="722" 
d="M390 153l15 15l109 -99q78 58 120.5 157.5t42.5 207.5q0 128 -69 202.5t-197 74.5q-111 0 -194.5 -65t-123.5 -161.5t-40 -204.5q0 -126 71 -201.5t195 -75.5q101 0 177 54zM512 43q-80 -59 -193 -59q-136 0 -211 79.5t-75 216.5q0 85 25 165t71.5 144t119.5 103t162 39
q135 0 210.5 -80t75.5 -217q0 -112 -44 -215.5t-123 -163.5l100 -89l-14 -15z" />
    <glyph glyph-name="R" unicode="R" horiz-adv-x="593" 
d="M142 714h275q33 0 62.5 -7.5t58 -25t44.5 -52t15 -83.5q-2 -94 -59.5 -148.5t-148.5 -56.5v-2q109 -17 108 -148l-4 -116q0 -45 10 -75h-20q-11 31 -11 76q2 73 5 115q1 43 -13 73.5t-38 44.5t-48 20t-50 6h-245l-70 -335h-19zM89 355h239q30 0 57 2.5t64 14t63 31
t45 56.5t20 87q1 47 -15 78.5t-44.5 45.5t-53.5 19t-54 5h-250z" />
    <glyph glyph-name="S" unicode="S" horiz-adv-x="611" 
d="M27 237q-12 -109 58.5 -171.5t189.5 -62.5q22 0 45.5 3.5t51 10.5t51 21.5t43 34.5t31 50.5t11.5 68.5q0 49 -30 82.5t-74.5 48.5t-96.5 31.5t-96.5 33t-74.5 53t-30 90.5q2 99 72.5 149.5t172.5 50.5q118 0 184 -53.5t58 -167.5h-20q8 105 -53 153t-169 48
q-58 0 -106.5 -17.5t-83 -59.5t-35.5 -103q-1 -42 20.5 -72t57 -46.5t78.5 -29.5t86.5 -26.5t79 -32t58 -52t22.5 -80.5q0 -59 -25 -102t-65 -65t-80.5 -31.5t-82.5 -9.5q-127 0 -203 64.5t-65 188.5h20z" />
    <glyph glyph-name="T" unicode="T" 
d="M60 694l4 20h537l-4 -20h-258l-148 -694h-21l148 694h-258z" />
    <glyph glyph-name="U" unicode="U" horiz-adv-x="648" 
d="M161 714l-99 -456q-7 -51 -7 -73q0 -88 60.5 -136t154.5 -46q32 0 57.5 3t62.5 17.5t64.5 39t53.5 72t40 112.5l102 467h21l-100 -461q-8 -33 -15.5 -56.5t-22 -58t-36.5 -59t-52 -48t-75 -35.5t-100 -12q-102 0 -168.5 50.5t-66.5 150.5q0 41 11 99l94 430h21z" />
    <glyph glyph-name="V" unicode="V" horiz-adv-x="556" 
d="M193 0l-126 714h20l122 -694h2l410 694h22l-422 -714h-28z" />
    <glyph glyph-name="W" unicode="W" horiz-adv-x="889" 
d="M139 0l-65 714h20l62 -688h2l347 688h32l62 -688h2l347 688h23l-363 -714h-26l-63 696h-2l-352 -696h-26z" />
    <glyph glyph-name="X" unicode="X" horiz-adv-x="519" 
d="M449 0l-185 351l-331 -351h-26l348 369l-182 345h23l175 -331l314 331h26l-331 -349l192 -365h-23z" />
    <glyph glyph-name="Y" unicode="Y" horiz-adv-x="519" 
d="M253 322l349 392h25l-366 -411l-65 -303h-21l65 303l-194 411h23z" />
    <glyph glyph-name="Z" unicode="Z" 
d="M457 20l-3 -20h-532l4 24l626 670h-475l5 20h497l-4 -24l-626 -670h508z" />
    <glyph glyph-name="bracketleft" unicode="[" horiz-adv-x="222" 
d="M300 731l-5 -20h-98l-191 -867h99l-5 -20h-119l199 907h120z" />
    <glyph glyph-name="backslash" unicode="\" horiz-adv-x="333" 
d="M320 -16l-326 747h19l327 -747h-20z" />
    <glyph glyph-name="bracketright" unicode="]" horiz-adv-x="222" 
d="M-99 -176l5 20h97l188 867h-100l5 20h120l-196 -907h-119z" />
    <glyph glyph-name="asciicircum" unicode="^" horiz-adv-x="600" 
d="M541 227h-20l-221 433l-221 -433h-20l231 453h20z" />
    <glyph glyph-name="underscore" unicode="_" 
d="M0 -124v50h500v-50h-500z" />
    <glyph glyph-name="grave" unicode="`" horiz-adv-x="130" 
d="M83 731l112 -144h-25l-112 144h25z" />
    <glyph glyph-name="a" unicode="a" horiz-adv-x="481" 
d="M59 365q37 159 210 161q157 0 157 -128q0 -23 -8 -63l-59 -251q-4 -16 -4 -35q0 -33 31 -33q23 0 35 4v-20q-17 -3 -34 -3q-52 0 -52 52q0 14 10 56h-2q-36 -61 -86 -88.5t-124 -27.5q-66 0 -109 31t-43 95q0 50 18 84t51.5 51t70 24t83.5 7q54 2 75 2q61 0 94 24.5
t33 90.5q0 108 -137 108q-153 1 -190 -141h-20zM386 290l-2 2q-28 -30 -179 -30q-35 -2 -59.5 -5t-54 -12.5t-48 -24.5t-31 -42t-12.5 -63q0 -53 37.5 -80t95.5 -27q92 0 150.5 52t81.5 141z" />
    <glyph glyph-name="b" unicode="b" horiz-adv-x="537" 
d="M91 389l2 -2q31 62 87 100.5t126 38.5q86 0 132.5 -56.5t46.5 -141.5q0 -84 -28 -159t-91 -127.5t-148 -52.5q-75 0 -122.5 43.5t-53.5 115.5h-2l-32 -148h-20l151 714h21zM465 328q0 78 -42 128t-117 50t-134 -49.5t-87 -118.5t-30 -140q-2 -85 41.5 -137.5t121.5 -52.5
q60 0 108.5 29.5t78 77t45 103t15.5 110.5z" />
    <glyph glyph-name="c" unicode="c" 
d="M443 359q0 71 -43.5 109t-119.5 38q-78 0 -136.5 -48.5t-85 -118.5t-26.5 -148q0 -86 45.5 -134.5t131.5 -48.5q148 5 203 157h20q-22 -81 -83 -128.5t-140 -47.5q-95 0 -146 53.5t-51 148.5q0 135 72.5 235t195.5 100q86 0 134.5 -43.5t48.5 -123.5h-20z" />
    <glyph glyph-name="d" unicode="d" horiz-adv-x="537" 
d="M392 76l16 63l-2 2q-67 -152 -216 -152q-89 0 -136.5 51.5t-47.5 142.5q0 57 18.5 116.5t52 110.5t86 83.5t114.5 32.5q80 0 128.5 -43t48.5 -119h2l12 65l62 285h21l-154 -714h-21zM440 336q0 80 -41.5 125t-121.5 45q-59 0 -108 -30.5t-79.5 -78.5t-47 -104t-16.5 -110
q0 -79 42 -127t121 -48q78 0 136.5 53t85.5 126t29 149z" />
    <glyph glyph-name="e" unicode="e" 
d="M433 273q5 24 5 53q0 77 -43 128.5t-123 51.5q-98 0 -160 -65.5t-81 -167.5h402zM27 253q-3 -23 -3 -55q0 -56 17 -96t44.5 -59t54 -27t54.5 -8q167 0 212 161h21q-48 -180 -232 -180q-93 0 -142 58.5t-49 151.5q0 83 28.5 155.5t91 122t148.5 49.5q89 0 137.5 -56
t48.5 -144q0 -36 -4 -73h-427z" />
    <glyph glyph-name="f" unicode="f" horiz-adv-x="204" 
d="M114 514l12 45q0 2 4 20.5t5.5 25.5t7.5 25t11 26.5t15 21.5t21.5 19.5t28 11.5t35.5 5q8 0 24.5 -0.5t26.5 -0.5l-4 -20q-3 1 -11 1h-11h-25q-26 0 -44.5 -9t-29.5 -27t-16 -31t-10.5 -38t-7.5 -30l-11 -45h110l-5 -20h-110l-109 -494h-21l109 494h-90l5 20h90z" />
    <glyph glyph-name="g" unicode="g" horiz-adv-x="519" 
d="M499 514l-102 -476q-25 -118 -84 -172t-164 -54q-81 0 -126.5 40t-41.5 119h19q-4 -70 36.5 -104.5t112.5 -34.5q35 0 63.5 6t51 20t39 27.5t30.5 39.5t22.5 45t17.5 53.5t13.5 56t12.5 61.5l-2 2q-27 -54 -78.5 -86t-113.5 -32q-91 0 -140.5 57.5t-49.5 150.5
q0 71 28.5 136.5t89.5 111t142 45.5q73 0 119 -42.5t53 -122.5h2l14 75l16 78h20zM433 330q-4 85 -44 130.5t-126 45.5q-100 0 -164 -83t-64 -190q0 -84 43 -136t127 -52q70 0 123.5 44.5t79 108t25.5 132.5z" />
    <glyph glyph-name="h" unicode="h" 
d="M135 714h21l-56 -264l-13 -58l2 -2q76 136 208 136q69 0 110 -36.5t41 -103.5q0 -16 -12 -81l-64 -305h-21l65 310q12 60 12 76q-1 58 -36.5 89t-94.5 31q-54 0 -97.5 -23t-72 -64t-46 -85t-28.5 -97l-51 -237h-20z" />
    <glyph glyph-name="i" unicode="i" horiz-adv-x="130" 
d="M129 714h22l-23 -104h-22zM1 0h-21l109 514h22z" />
    <glyph glyph-name="j" unicode="j" horiz-adv-x="130" 
d="M129 714h22l-23 -104h-22zM-8 -42q-8 -34 -14 -52t-18.5 -40t-33.5 -32t-51 -10q-15 0 -41 2l3 18q3 -1 11 -1h10h9q5 0 8 -1q31 0 52 21t26.5 37t15.5 56q2 7 3 10l117 548h22z" />
    <glyph glyph-name="k" unicode="k" horiz-adv-x="444" 
d="M36 202l-43 -202h-21l154 714h21l-104 -483l408 283h34l-306 -214l214 -300h-27l-204 289z" />
    <glyph glyph-name="l" unicode="l" horiz-adv-x="130" 
d="M-20 0l149 714h22l-150 -714h-21z" />
    <glyph glyph-name="m" unicode="m" horiz-adv-x="778" 
d="M88 514h22l-25 -118h2q29 57 75 93.5t104 36.5q64 0 98.5 -39t32.5 -100l2 -2q20 62 68.5 101.5t112.5 39.5t103 -35.5t39 -100.5q0 -34 -12 -82l-68 -308h-21l72 327q9 41 9 63q0 54 -32.5 85t-89.5 31q-81 0 -130 -65.5t-66 -148.5l-64 -292h-21l73 344q5 27 5 49
q0 51 -30 82t-81 31q-76 0 -133.5 -71.5t-73.5 -155.5l-60 -279h-21z" />
    <glyph glyph-name="n" unicode="n" 
d="M92 514h21l-13 -64l-13 -58l2 -2q76 136 208 136q69 0 110 -36.5t41 -103.5q0 -16 -12 -81l-64 -305h-21l65 310q12 60 12 76q-1 58 -36.5 89t-94.5 31q-54 0 -97.5 -23t-72 -64t-46 -85t-28.5 -97l-51 -237h-20z" />
    <glyph glyph-name="o" unicode="o" horiz-adv-x="519" 
d="M26 191q0 -86 45.5 -134.5t131.5 -48.5q78 0 136.5 48.5t85.5 117t27 141.5q0 90 -48 140.5t-130 50.5q-78 0 -136.5 -48.5t-85 -118.5t-26.5 -148zM6 191q0 135 72.5 235t195.5 100q92 0 145 -58t53 -153q0 -58 -18 -115t-50.5 -104.5t-85 -77t-115.5 -29.5
q-95 0 -146 53.5t-51 148.5z" />
    <glyph glyph-name="p" unicode="p" horiz-adv-x="537" 
d="M101 514h21l-29 -136h2q74 148 213 148q91 0 136.5 -58.5t45.5 -150.5q0 -79 -31.5 -153t-95 -124.5t-143.5 -50.5q-79 0 -125 38.5t-51 107.5h-2l-65 -311h-21zM470 313q0 87 -39 140t-123 53q-77 0 -136.5 -55.5t-87 -130t-27.5 -147.5q0 -77 41.5 -121t121.5 -44
q73 0 132 48t88.5 117t29.5 140z" />
    <glyph glyph-name="q" unicode="q" horiz-adv-x="537" 
d="M442 327q0 76 -43 127.5t-121 51.5t-135.5 -53t-82.5 -126t-25 -150q0 -75 46 -122t121 -47q56 0 103 30t76 77.5t45 102.5t16 109zM363 -176h-21l44 202l23 98l-2 2q-65 -137 -206 -137q-83 0 -134.5 52.5t-51.5 135.5q0 80 27 157t89 134.5t147 57.5q78 0 127 -48
t51 -127h2l10 53l24 110h21z" />
    <glyph glyph-name="r" unicode="r" horiz-adv-x="259" 
d="M-22 0l108 514h22l-14 -66l-15 -63l2 -2q70 139 187 139q28 0 41 -4l-4 -20q-9 4 -36 4q-44 0 -84.5 -27.5t-62 -56.5t-34.5 -57q-20 -43 -35 -103l-54 -258h-21z" />
    <glyph glyph-name="s" unicode="s" horiz-adv-x="463" 
d="M392 360q9 74 -31.5 110t-118.5 36q-61 0 -108 -28.5t-47 -88.5q0 -56 61 -87q12 -6 58 -25q9 -3 35.5 -12.5t39 -14.5t33.5 -17t31 -24t18.5 -31t8.5 -43q0 -76 -54 -111t-135 -35q-186 0 -186 147q0 6 1 19t1 19h20q-22 -166 164 -166q70 0 119.5 31t49.5 96
q0 15 -3 27.5t-12 23t-15 17t-21.5 14.5t-22 11t-26 11t-24.5 10q-9 3 -35 12.5t-38 14.5t-32.5 17t-30 23.5t-17.5 30.5t-8 42q0 67 51.5 102t123.5 35q187 0 170 -166h-20z" />
    <glyph glyph-name="t" unicode="t" horiz-adv-x="241" 
d="M156 676h21l-34 -162h112l-4 -20h-112l-80 -375q-9 -44 -10 -59q0 -13 5 -22.5t9.5 -13.5t18 -6t17 -2h19.5q33 0 48 4l-4 -20q-2 0 -23 -1.5t-32 -1.5q-78 0 -78 57q0 6 8 59l81 381h-97l4 20h97z" />
    <glyph glyph-name="u" unicode="u" 
d="M368 0h-21l13 64l13 58l-2 2q-37 -67 -86.5 -101t-121.5 -34q-69 0 -110 36t-41 103q0 16 12 81l64 305h21l-65 -310q-12 -60 -12 -76q1 -58 36.5 -89t94.5 -31q54 0 97.5 23t72 64t46 85t28.5 97l50 237h22z" />
    <glyph glyph-name="v" unicode="v" horiz-adv-x="407" 
d="M115 0l-94 514h21l88 -494h2l283 494h23l-296 -514h-27z" />
    <glyph glyph-name="w" unicode="w" horiz-adv-x="685" 
d="M448 0h-30l-56 494h-2l-262 -494h-30l-59 514h21l55 -494h2l262 494h30l56 -494h2l261 494h23z" />
    <glyph glyph-name="x" unicode="x" horiz-adv-x="407" 
d="M-50 0h-27l255 268l-133 246h23l126 -232l218 232h26l-232 -249l146 -265h-23l-139 252z" />
    <glyph glyph-name="y" unicode="y" horiz-adv-x="407" 
d="M138 26l281 488h25l-337 -582q-39 -63 -58 -79q-31 -26 -81 -28q-3 -1 -8 -1h-9h-17l3 20q56 -2 82 13.5t58 65.5l44 77l-100 514h22z" />
    <glyph glyph-name="z" unicode="z" horiz-adv-x="407" 
d="M331 20l-5 -20h-390l6 27l469 467h-355l4 20h384l-6 -23l-473 -471h366z" />
    <glyph glyph-name="braceleft" unicode="{" horiz-adv-x="333" 
d="M105 -176q-32 0 -45.5 13t-13.5 43q0 27 8 68l35 169q5 22 7 55q0 73 -47 99l4 20q38 2 67.5 46t41.5 111l35 171q13 61 34 86.5t60 25.5h49l-4 -20h-45q-31 0 -46.5 -21t-26.5 -75l-37 -173q-30 -142 -109 -166q44 -31 44 -99q1 -23 -7 -63l-35 -169q-8 -40 -8 -65
q0 -22 9 -29t31 -7h49l-4 -20h-46z" />
    <glyph glyph-name="bar" unicode="|" horiz-adv-x="222" 
d="M101 -213v999h20v-999h-20z" />
    <glyph glyph-name="braceright" unicode="}" horiz-adv-x="333" 
d="M-65 -156h48q28 0 44 16.5t24 55.5l43 198q13 60 41 105.5t65 60.5q-44 18 -44 98q0 32 7 72l36 172q7 21 7 51q0 38 -41 38h-50l4 20h48q28 0 43.5 -15t15.5 -43q0 -16 -8 -56l-35 -172q-7 -42 -7 -67q0 -80 46 -88l-5 -22q-34 -9 -62 -55t-41 -102l-43 -197
q-14 -90 -90 -90h-50z" />
    <glyph glyph-name="asciitilde" unicode="~" horiz-adv-x="600" 
d="M78 216q42 81 111 81q51 0 115 -33q66 -35 101 -35q30 0 52.5 19.5t48.5 54.5l16 -12q-15 -20 -22.5 -29.5t-23 -24.5t-33 -21.5t-38.5 -6.5q-34 0 -102 33q-70 35 -114 35q-33 0 -54.5 -19t-41.5 -55z" />
    <glyph glyph-name="uni007F.controlDEL" horiz-adv-x="0" 
 />
    <glyph glyph-name="nbspace" unicode="&#xa0;" horiz-adv-x="278" 
 />
    <glyph glyph-name="exclamdown" unicode="&#xa1;" horiz-adv-x="185" 
d="M-10 -176h-21l118 536h21zM125 444h-21l22 98h21z" />
    <glyph glyph-name="cent" unicode="&#xa2;" horiz-adv-x="556" 
d="M221 9q1 -1 10 -1q154 5 210 160h20q-22 -80 -85 -129.5t-145 -49.5q-12 0 -14 1l-22 -103h-18l23 106q-81 8 -120 64t-39 145q0 81 30 153.5t94 121.5t148 49l18 82h18l-18 -83q76 -5 118.5 -47t42.5 -117h-20q1 67 -38 104t-107 40zM309 506q-77 -1 -135 -48
t-85.5 -114t-27.5 -142q0 -170 143 -191z" />
    <glyph glyph-name="sterling" unicode="&#xa3;" horiz-adv-x="556" 
d="M157 345q11 -44 11 -86q0 -116 -131 -227l2 -4q42 20 74 20q43 0 107 -22q69 -23 94 -23q47 -1 88.5 23.5t63.5 62.5l14 -12q-23 -45 -69.5 -69t-96.5 -24q-31 0 -96.5 22t-104.5 22q-30 0 -62.5 -12t-50.5 -29l-12 15q13 15 43 45t45.5 48.5t35 46t28 56.5t8.5 61
q0 47 -12 86h-94l3 20h83q-2 5 -8 22t-8 24t-6.5 23.5t-6.5 28t-4 28t-2 33.5q0 101 64.5 154t168.5 53q25 0 50.5 -4t56.5 -16t54 -31t39 -53.5t16 -78.5v-22v-11q0 -8 -1 -11h-20q1 3 1 11v11v23q0 83 -56.5 122.5t-139.5 39.5q-92 0 -152.5 -46.5t-60.5 -139.5
q0 -28 3 -49t6.5 -33t12 -35.5t14.5 -42.5h168l-6 -20h-154z" />
    <glyph glyph-name="currency" unicode="&#xa4;" horiz-adv-x="556" 
d="M506 340q0 94 -67 161t-161 67t-161 -67t-67 -161t67 -161t161 -67t161 67t67 161zM517 565l-57 -57q66 -70 66 -168q0 -96 -66 -168l57 -57l-14 -14l-57 57q-70 -64 -168 -66q-96 0 -168 66l-57 -57l-14 14l57 57q-66 72 -66 168q2 98 66 168l-57 57l14 14l57 -57
q72 66 168 66q98 0 168 -66l57 57z" />
    <glyph glyph-name="yen" unicode="&#xa5;" horiz-adv-x="556" 
d="M376 203l-4 -20h-140l-37 -183h-20l37 183h-140l4 20h140l20 102h-140l5 20h132l-6 11l-171 378h20l175 -385l328 385h23l-331 -389h130l-5 -20h-140l-20 -102h140z" />
    <glyph glyph-name="brokenbar" unicode="&#xa6;" horiz-adv-x="222" 
d="M121 411h-20v250h20v-250zM121 -88h-20v249h20v-249z" />
    <glyph glyph-name="section" unicode="&#xa7;" horiz-adv-x="556" 
d="M304 66q57 6 98 44.5t41 93.5q0 68 -74 136l-165 153q-39 0 -83.5 -38t-44.5 -102t87 -146zM41 5q-10 -81 31.5 -127t120.5 -46q56 0 99 33t43 92q0 17 -4 31.5t-15.5 30t-17 22.5t-25.5 26t-23 22l-106 107q-88 82 -88 157q0 61 40 106.5t97 51.5q-27 39 -26 81
q0 65 45.5 102t108.5 37q82 0 129.5 -51t35.5 -134h-20q10 76 -31.5 120.5t-113.5 44.5q-54 0 -94 -32.5t-40 -86.5q0 -15 4.5 -30t8.5 -24.5t17 -24.5t16.5 -19t22.5 -21t21 -19l105 -98q81 -75 81 -152q0 -63 -43.5 -106.5t-101.5 -49.5q37 -35 37 -91q0 -66 -47 -105.5
t-116 -39.5q-85 0 -134 52t-37 141h20z" />
    <glyph glyph-name="dieresis" unicode="&#xa8;" horiz-adv-x="130" 
d="M81 671l-13 -81h-21l13 81h21zM239 671l-13 -81h-21l13 81h21z" />
    <glyph glyph-name="copyright" unicode="&#xa9;" horiz-adv-x="800" 
d="M46 357q0 -148 103 -251t251 -103q147 0 250.5 103.5t103.5 250.5q0 146 -104 250t-250 104q-147 0 -250.5 -103.5t-103.5 -250.5zM26 357q0 155 109.5 264.5t264.5 109.5t264.5 -109.5t109.5 -264.5q0 -156 -109 -264.5t-265 -108.5t-265 108.5t-109 264.5zM573 428
q-9 63 -55.5 97t-109.5 34q-91 0 -144 -58.5t-53 -148.5q0 -91 54.5 -151.5t145.5 -60.5q57 0 102 36t60 100h20q-16 -70 -65 -113t-117 -43q-99 0 -159.5 66t-60.5 165q0 101 58.5 164.5t158.5 63.5q73 0 124.5 -40t60.5 -111h-20z" />
    <glyph glyph-name="ordfeminine" unicode="&#xaa;" horiz-adv-x="289" 
d="M279 549l-2 1q-6 -9 -21.5 -14t-28.5 -6.5t-37 -3t-29 -1.5q-73 -5 -98 -20q-30 -21 -31 -60q0 -31 22 -46t57 -15q122 0 153 111zM65 591q11 48 47 74.5t88 26.5q111 0 111 -72q0 -22 -6 -46l-35 -148q-2 -8 -2 -11v-11q0 -15 16 -15q17 0 19 1l-4 -19q-10 -2 -12 -2
h-11q-12 0 -20 9.5t-8 26.5q0 13 9 33h-2q-18 -37 -57 -55.5t-87 -18.5q-52 0 -75.5 24t-23.5 56q0 85 107 98q18 2 52.5 3t51.5 3q68 2 68 67q0 11 -1.5 18t-9 17t-27.5 15.5t-51 6.5q-88 2 -117 -81h-20z" />
    <glyph glyph-name="guillemotleft" unicode="&#xab;" horiz-adv-x="352" 
d="M159 276l131 139h2l-9 -37l-106 -113l60 -112l-6 -32h-2l-73 139zM58 276l131 139h2l-9 -37l-106 -113l60 -112l-6 -32h-2l-73 139z" />
    <glyph glyph-name="logicalnot" unicode="&#xac;" horiz-adv-x="600" 
d="M532 340h-484v20h504v-267h-20v247z" />
    <glyph glyph-name="uni00AD" unicode="&#xad;" horiz-adv-x="333" 
d="M59 278h184l-4 -20h-184z" />
    <glyph glyph-name="registered" unicode="&#xae;" horiz-adv-x="800" 
d="M46 357q0 -148 103 -251t251 -103q147 0 250.5 103.5t103.5 250.5q0 146 -104 250t-250 104q-147 0 -250.5 -103.5t-103.5 -250.5zM26 357q0 155 109.5 264.5t264.5 109.5t264.5 -109.5t109.5 -264.5q0 -156 -109 -264.5t-265 -108.5t-265 108.5t-109 264.5zM398 354
q139 0 139 95q0 96 -124 96h-119v-191h104zM274 565h141q142 0 142 -116q0 -52 -31.5 -80t-80.5 -32l132 -202h-25l-129 200q-3 -1 -8 -1h-8h-15h-98v-199h-20v430z" />
    <glyph glyph-name="overscore" unicode="&#xaf;" horiz-adv-x="130" 
d="M260 649l-5 -20h-232l4 20h233z" />
    <glyph glyph-name="degree" unicode="&#xb0;" horiz-adv-x="278" 
d="M47 554q0 57 40.5 97.5t97.5 40.5t97.5 -40.5t40.5 -97.5t-40.5 -97.5t-97.5 -40.5t-97.5 40.5t-40.5 97.5zM67 554q0 -48 35 -83t83 -35t83 35t35 83t-35 83t-83 35t-83 -35t-35 -83z" />
    <glyph glyph-name="plusminus" unicode="&#xb1;" horiz-adv-x="600" 
d="M48 20h504v-20h-504v20zM290 288h-242v20h242v198h20v-198h242v-20h-242v-198h-20v198z" />
    <glyph glyph-name="twosuperior" unicode="&#xb2;" horiz-adv-x="333" 
d="M311 297l-4 -20h-292q1 31 15 57t41.5 47t48.5 33.5t57 29.5q9 5 34 16.5t38.5 18t34 20t32 25.5t20 30t8.5 38q0 80 -106 80q-62 0 -95.5 -30t-35.5 -86h-20q3 64 41.5 100t109.5 36q20 0 38.5 -3.5t40 -13t34.5 -31t13 -52.5q0 -42 -31 -75t-76 -55.5t-91.5 -44
t-83 -52t-44.5 -68.5h273z" />
    <glyph glyph-name="threesuperior" unicode="&#xb3;" horiz-adv-x="333" 
d="M50 415q-4 -13 -4 -36q0 -41 33 -65t85 -24q57 0 100 29.5t43 79.5q0 45 -34 64.5t-84 19.5h-17l5 20h15q29 0 50.5 2.5t46.5 11t38.5 28t13.5 49.5q0 37 -32 57.5t-76 20.5q-108 0 -131 -104h-20q9 58 47.5 91t103.5 33q54 0 91 -25t37 -73q0 -95 -114 -103v-2
q36 -2 57.5 -26.5t22.5 -63.5q0 -60 -46.5 -94.5t-116.5 -34.5q-60 0 -99 27.5t-39 81.5q0 3 3 36h21z" />
    <glyph glyph-name="acute" unicode="&#xb4;" horiz-adv-x="130" 
d="M85 587h-28l163 144h28z" />
    <glyph glyph-name="mu" unicode="&#xb5;" horiz-adv-x="556" 
d="M398 0h-21l13 64l13 58l-2 2q-37 -67 -86.5 -101t-121.5 -34q-59 0 -99 32.5t-40 107.5h-2l-12 -76l-49 -229h-21l148 688h21l-59 -273q-9 -52 -9 -90q0 -141 122 -141q54 0 97.5 23t72 64t46 85t28.5 97l50 237h22z" />
    <glyph glyph-name="paragraph" unicode="&#xb6;" horiz-adv-x="600" 
d="M283 338q-95 0 -146 52t-32 146q19 95 90 136.5t172 41.5h188l-177 -853h-21l173 833h-152l-173 -833h-21z" />
    <glyph glyph-name="middot" unicode="&#xb7;" horiz-adv-x="278" 
d="M109 340q0 14 9 23t23 9t23 -9t9 -23t-9 -23t-23 -9t-23 9t-9 23z" />
    <glyph glyph-name="cedilla" unicode="&#xb8;" horiz-adv-x="130" 
d="M-80 -142q40 -21 80 -21q26 0 49 14t23 39q0 21 -16 31.5t-37 10.5q-15 0 -54 -13l-15 9l72 72h26l-40 -41l-12 -9l2 -2q7 4 21 4q32 0 52.5 -16t20.5 -46q0 -36 -28 -54.5t-65 -18.5t-87 22z" />
    <glyph glyph-name="onesuperior" unicode="&#xb9;" horiz-adv-x="333" 
d="M279 685l-96 -408h-20l91 385l-2 2q-58 -60 -137 -77l6 19q69 20 132 79h26z" />
    <glyph glyph-name="ordmasculine" unicode="&#xba;" horiz-adv-x="311" 
d="M319 568q0 104 -102 104q-79 0 -119.5 -53.5t-40.5 -128.5q0 -47 26.5 -76.5t80.5 -29.5q75 0 115 55.5t40 128.5zM339 568q0 -80 -47.5 -142t-127.5 -62q-62 0 -94.5 34t-32.5 92q0 81 48 141.5t132 60.5q60 0 91 -34.5t31 -89.5z" />
    <glyph glyph-name="guillemotright" unicode="&#xbb;" horiz-adv-x="352" 
d="M173 260l-131 -139h-2l9 37l106 113l-59 112l5 32h2l73 -139zM274 260l-131 -139h-2l9 37l106 113l-59 112l5 32h2l73 -139z" />
    <glyph glyph-name="onequarter" unicode="&#xbc;" horiz-adv-x="834" 
d="M404 99l6 28l280 281h30l-66 -289h72l-3 -20h-72l-23 -99h-21l23 99h-226zM694 384l-1 -1l-2 2l-265 -266h207zM291 685l-96 -408h-20l91 385l-2 2q-58 -60 -137 -77l6 19q69 20 132 79h26zM632 714h23l-476 -747h-23z" />
    <glyph glyph-name="onehalf" unicode="&#xbd;" horiz-adv-x="834" 
d="M716 20l-4 -20h-292q1 31 15 57t41.5 47t48.5 33.5t57 29.5q9 5 34 16.5t38.5 18t34 20t32 25.5t20 30t8.5 38q0 80 -106 80q-62 0 -95.5 -30t-35.5 -86h-20q3 64 41.5 100t109.5 36q20 0 38.5 -3.5t40 -13t34.5 -31t13 -52.5q0 -42 -31 -75t-76 -55.5t-91.5 -44t-83 -52
t-44.5 -68.5h273zM231 685l-96 -408h-20l91 385l-2 2q-58 -60 -137 -77l6 19q69 20 132 79h26zM572 714h23l-476 -747h-23z" />
    <glyph glyph-name="threequarters" unicode="&#xbe;" horiz-adv-x="834" 
d="M441 99l6 28l280 281h30l-66 -289h72l-3 -20h-72l-23 -99h-21l23 99h-226zM731 384l-1 -1l-2 2l-265 -266h207zM75 415q-4 -13 -4 -36q0 -41 33 -65t85 -24q57 0 100 29.5t43 79.5q0 45 -34 64.5t-84 19.5h-17l5 20h15q29 0 50.5 2.5t46.5 11t38.5 28t13.5 49.5
q0 37 -32 57.5t-76 20.5q-108 0 -131 -104h-20q9 58 47.5 91t103.5 33q54 0 91 -25t37 -73q0 -95 -114 -103v-2q36 -2 57.5 -26.5t22.5 -63.5q0 -60 -46.5 -94.5t-116.5 -34.5q-60 0 -99 27.5t-39 81.5q0 3 3 36h21zM675 714h23l-476 -747h-23z" />
    <glyph glyph-name="questiondown" unicode="&#xbf;" 
d="M310 542l-22 -98h-21l22 98h21zM389 47q-6 -104 -63.5 -169.5t-157.5 -65.5q-82 0 -133.5 42.5t-51.5 120.5q0 69 35 111t106 86q42 27 57.5 39t32 36.5t25.5 63.5l12 50h21l-13 -53q-8 -33 -18 -55.5t-30 -41t-31.5 -26.5t-45.5 -30q-72 -44 -102 -83t-30 -97
q0 -71 47.5 -107t118.5 -36q94 0 144.5 60t56.5 155h20z" />
    <glyph glyph-name="Agrave" unicode="&#xc0;" horiz-adv-x="574" 
d="M323 895l112 -144h-25l-112 144h25zM458 235h-366l-146 -235h-22l446 714h20l132 -714h-20zM455 255l-79 431h-2l-269 -431h350z" />
    <glyph glyph-name="Aacute" unicode="&#xc1;" horiz-adv-x="574" 
d="M325 751h-28l163 144h28zM458 235h-366l-146 -235h-22l446 714h20l132 -714h-20zM455 255l-79 431h-2l-269 -431h350z" />
    <glyph glyph-name="Acircumflex" unicode="&#xc2;" horiz-adv-x="574" 
d="M500 751h-24l-82 130l-124 -130h-26l135 144h30zM458 235h-366l-146 -235h-22l446 714h20l132 -714h-20zM455 255l-79 431h-2l-269 -431h350z" />
    <glyph glyph-name="Atilde" unicode="&#xc3;" horiz-adv-x="574" 
d="M523 842q-7 -31 -26 -54t-49 -23q-25 0 -65 30.5t-64 30.5q-33 0 -53 -60h-20q7 34 26.5 57t52.5 23q24 0 63 -30.5t65 -30.5q30 0 51 57h19zM458 235h-366l-146 -235h-22l446 714h20l132 -714h-20zM455 255l-79 431h-2l-269 -431h350z" />
    <glyph glyph-name="Adieresis" unicode="&#xc4;" horiz-adv-x="574" 
d="M321 835l-13 -81h-21l13 81h21zM479 835l-13 -81h-21l13 81h21zM458 235h-366l-146 -235h-22l446 714h20l132 -714h-20zM455 255l-79 431h-2l-269 -431h350z" />
    <glyph glyph-name="Aring" unicode="&#xc5;" horiz-adv-x="574" 
d="M303 828q0 -32 22 -54t54 -22t54 22t22 54t-22 54t-54 22t-54 -22t-22 -54zM283 828q0 40 28 68t68 28t68 -28t28 -68t-28 -68t-68 -28t-68 28t-28 68zM458 235h-366l-146 -235h-22l446 714h20l132 -714h-20zM455 255l-79 431h-2l-269 -431h350z" />
    <glyph glyph-name="AE" unicode="&#xc6;" horiz-adv-x="833" 
d="M423 294l85 400h-41l-311 -400h267zM779 20l-4 -20h-414l59 274h-276l-214 -274h-27l556 714h452l-4 -20h-379l-66 -312h349l-4 -20h-349l-72 -342h393z" />
    <glyph glyph-name="Ccedilla" unicode="&#xc7;" horiz-adv-x="685" 
d="M648 252q-30 -119 -122.5 -193.5t-216.5 -74.5l-24 -25l-13 -9l2 -2q8 4 22 4q32 0 52.5 -16t20.5 -46q0 -36 -28.5 -54.5t-65.5 -18.5t-87 22l8 19q40 -21 80 -21q28 0 50.5 13.5t22.5 39.5q0 21 -16 31.5t-37 10.5q-16 0 -55 -13l-15 9l58 58q-117 8 -184 84.5
t-67 202.5q0 84 25.5 164.5t72.5 146t122 106t166 41.5q110 0 188 -63t78 -169h-20q0 95 -73.5 153.5t-172.5 58.5q-112 0 -197.5 -64.5t-127 -162.5t-41.5 -211q0 -130 71 -200t184 -70q115 0 200.5 67t119.5 182h20z" />
    <glyph glyph-name="Egrave" unicode="&#xc8;" horiz-adv-x="519" 
d="M296 895l112 -144h-25l-112 144h25zM465 20l-5 -20h-469l152 714h453l-4 -20h-433l-67 -312h404l-4 -20h-405l-73 -342h451z" />
    <glyph glyph-name="Eacute" unicode="&#xc9;" horiz-adv-x="519" 
d="M298 751h-28l163 144h28zM465 20l-5 -20h-469l152 714h453l-4 -20h-433l-67 -312h404l-4 -20h-405l-73 -342h451z" />
    <glyph glyph-name="Ecircumflex" unicode="&#xca;" horiz-adv-x="519" 
d="M465 20l-5 -20h-469l152 714h453l-4 -20h-433l-67 -312h404l-4 -20h-405l-73 -342h451zM512 769h-24l-82 130l-124 -130h-26l135 144h30z" />
    <glyph glyph-name="Edieresis" unicode="&#xcb;" horiz-adv-x="519" 
d="M294 835l-13 -81h-21l13 81h21zM452 835l-13 -81h-21l13 81h21zM465 20l-5 -20h-469l152 714h453l-4 -20h-433l-67 -312h404l-4 -20h-405l-73 -342h451z" />
    <glyph glyph-name="Igrave" unicode="&#xcc;" horiz-adv-x="148" 
d="M110 895l112 -144h-25l-112 144h25zM-6 0l152 714h20l-153 -714h-19z" />
    <glyph glyph-name="Iacute" unicode="&#xcd;" horiz-adv-x="148" 
d="M112 751h-28l163 144h28zM-6 0l152 714h20l-153 -714h-19z" />
    <glyph glyph-name="Icircumflex" unicode="&#xce;" horiz-adv-x="148" 
d="M287 751h-24l-82 130l-124 -130h-26l135 144h30zM-6 0l152 714h20l-153 -714h-19z" />
    <glyph glyph-name="Idieresis" unicode="&#xcf;" horiz-adv-x="148" 
d="M108 835l-13 -81h-21l13 81h21zM266 835l-13 -81h-21l13 81h21zM-6 0l152 714h20l-153 -714h-19z" />
    <glyph glyph-name="Eth" unicode="&#xd0;" horiz-adv-x="667" 
d="M-8 362l4 20h81l73 332h150q39 0 62 -1t62.5 -6.5t64.5 -15.5t55 -30.5t47.5 -49.5t29.5 -74.5t12 -102.5q0 -85 -29 -173t-81 -146q-63 -70 -133.5 -92.5t-175.5 -22.5h-220l79 362h-81zM93 362l-75 -342h196q105 0 167 20t124 86q46 50 77 134t31 174q0 70 -18 119.5
t-44 76.5t-71 42t-83.5 18.5t-96.5 3.5h-134l-69 -312h262l-4 -20h-262z" />
    <glyph glyph-name="Ntilde" unicode="&#xd1;" horiz-adv-x="667" 
d="M552 842q-7 -31 -26 -54t-49 -23q-25 0 -65 30.5t-64 30.5q-33 0 -53 -60h-20q7 34 26.5 57t52.5 23q24 0 63 -30.5t65 -30.5q30 0 51 57h19zM505 0l-344 691h-2l-145 -691h-20l151 714h27l344 -691h2l146 691h21l-153 -714h-27z" />
    <glyph glyph-name="Ograve" unicode="&#xd2;" horiz-adv-x="722" 
d="M379 895l112 -144h-25l-112 144h25zM677 434q0 128 -69 202.5t-197 74.5q-111 0 -194.5 -65t-123.5 -161.5t-40 -204.5q0 -126 71 -201.5t195 -75.5q110 0 193.5 65t124 161.5t40.5 204.5zM697 434q0 -85 -25.5 -165t-72 -144t-119.5 -102.5t-161 -38.5q-136 0 -211 79.5
t-75 216.5q0 85 25 165t71.5 144t119.5 103t162 39q135 0 210.5 -80t75.5 -217z" />
    <glyph glyph-name="Oacute" unicode="&#xd3;" horiz-adv-x="722" 
d="M381 751h-28l163 144h28zM677 434q0 128 -69 202.5t-197 74.5q-111 0 -194.5 -65t-123.5 -161.5t-40 -204.5q0 -126 71 -201.5t195 -75.5q110 0 193.5 65t124 161.5t40.5 204.5zM697 434q0 -85 -25.5 -165t-72 -144t-119.5 -102.5t-161 -38.5q-136 0 -211 79.5t-75 216.5
q0 85 25 165t71.5 144t119.5 103t162 39q135 0 210.5 -80t75.5 -217z" />
    <glyph glyph-name="Ocircumflex" unicode="&#xd4;" horiz-adv-x="722" 
d="M556 751h-24l-82 130l-124 -130h-26l135 144h30zM677 434q0 128 -69 202.5t-197 74.5q-111 0 -194.5 -65t-123.5 -161.5t-40 -204.5q0 -126 71 -201.5t195 -75.5q110 0 193.5 65t124 161.5t40.5 204.5zM697 434q0 -85 -25.5 -165t-72 -144t-119.5 -102.5t-161 -38.5
q-136 0 -211 79.5t-75 216.5q0 85 25 165t71.5 144t119.5 103t162 39q135 0 210.5 -80t75.5 -217z" />
    <glyph glyph-name="Otilde" unicode="&#xd5;" horiz-adv-x="722" 
d="M579 842q-7 -31 -26 -54t-49 -23q-25 0 -65 30.5t-64 30.5q-33 0 -53 -60h-20q7 34 26.5 57t52.5 23q24 0 63 -30.5t65 -30.5q30 0 51 57h19zM677 434q0 128 -69 202.5t-197 74.5q-111 0 -194.5 -65t-123.5 -161.5t-40 -204.5q0 -126 71 -201.5t195 -75.5q110 0 193.5 65
t124 161.5t40.5 204.5zM697 434q0 -85 -25.5 -165t-72 -144t-119.5 -102.5t-161 -38.5q-136 0 -211 79.5t-75 216.5q0 85 25 165t71.5 144t119.5 103t162 39q135 0 210.5 -80t75.5 -217z" />
    <glyph glyph-name="Odieresis" unicode="&#xd6;" horiz-adv-x="722" 
d="M377 835l-13 -81h-21l13 81h21zM535 835l-13 -81h-21l13 81h21zM677 434q0 128 -69 202.5t-197 74.5q-111 0 -194.5 -65t-123.5 -161.5t-40 -204.5q0 -126 71 -201.5t195 -75.5q110 0 193.5 65t124 161.5t40.5 204.5zM697 434q0 -85 -25.5 -165t-72 -144t-119.5 -102.5
t-161 -38.5q-136 0 -211 79.5t-75 216.5q0 85 25 165t71.5 144t119.5 103t162 39q135 0 210.5 -80t75.5 -217z" />
    <glyph glyph-name="multiply" unicode="&#xd7;" horiz-adv-x="600" 
d="M300 240l-190 -190l-14 14l190 190l-190 189l14 14l190 -189l190 189l14 -14l-190 -189l190 -190l-14 -14z" />
    <glyph glyph-name="Oslash" unicode="&#xd8;" horiz-adv-x="722" 
d="M592 652q-68 59 -181 59q-111 0 -194.5 -65t-123.5 -161.5t-40 -204.5q0 -127 71 -201zM137 66q69 -63 182 -63q110 0 193.5 65t124 161.5t40.5 204.5q0 131 -71 205zM42 -20l68 82q-77 80 -77 218q0 85 25 165t71.5 144t119.5 103t162 39q120 0 193 -64l59 71l14 -11
l-59 -73q79 -79 79 -220q0 -85 -25.5 -165t-72 -144t-119.5 -102.5t-161 -38.5q-125 0 -196 65l-67 -81z" />
    <glyph glyph-name="Ugrave" unicode="&#xd9;" horiz-adv-x="648" 
d="M350 895l112 -144h-25l-112 144h25zM161 714l-99 -456q-7 -51 -7 -73q0 -88 60.5 -136t154.5 -46q32 0 57.5 3t62.5 17.5t64.5 39t53.5 72t40 112.5l102 467h21l-100 -461q-8 -33 -15.5 -56.5t-22 -58t-36.5 -59t-52 -48t-75 -35.5t-100 -12q-102 0 -168.5 50.5
t-66.5 150.5q0 41 11 99l94 430h21z" />
    <glyph glyph-name="Uacute" unicode="&#xda;" horiz-adv-x="648" 
d="M362 751h-28l163 144h28zM161 714l-99 -456q-7 -51 -7 -73q0 -88 60.5 -136t154.5 -46q32 0 57.5 3t62.5 17.5t64.5 39t53.5 72t40 112.5l102 467h21l-100 -461q-8 -33 -15.5 -56.5t-22 -58t-36.5 -59t-52 -48t-75 -35.5t-100 -12q-102 0 -168.5 50.5t-66.5 150.5
q0 41 11 99l94 430h21z" />
    <glyph glyph-name="Ucircumflex" unicode="&#xdb;" horiz-adv-x="648" 
d="M527 751h-24l-82 130l-124 -130h-26l135 144h30zM161 714l-99 -456q-7 -51 -7 -73q0 -88 60.5 -136t154.5 -46q32 0 57.5 3t62.5 17.5t64.5 39t53.5 72t40 112.5l102 467h21l-100 -461q-8 -33 -15.5 -56.5t-22 -58t-36.5 -59t-52 -48t-75 -35.5t-100 -12
q-102 0 -168.5 50.5t-66.5 150.5q0 41 11 99l94 430h21z" />
    <glyph glyph-name="Udieresis" unicode="&#xdc;" horiz-adv-x="648" 
d="M353 835l-13 -81h-21l13 81h21zM511 835l-13 -81h-21l13 81h21zM161 714l-99 -456q-7 -51 -7 -73q0 -88 60.5 -136t154.5 -46q32 0 57.5 3t62.5 17.5t64.5 39t53.5 72t40 112.5l102 467h21l-100 -461q-8 -33 -15.5 -56.5t-22 -58t-36.5 -59t-52 -48t-75 -35.5t-100 -12
q-102 0 -168.5 50.5t-66.5 150.5q0 41 11 99l94 430h21z" />
    <glyph glyph-name="Yacute" unicode="&#xdd;" horiz-adv-x="519" 
d="M298 751h-28l163 144h28zM253 322l349 392h25l-366 -411l-65 -303h-21l65 303l-194 411h23z" />
    <glyph glyph-name="Thorn" unicode="&#xde;" horiz-adv-x="574" 
d="M166 714l-26 -124h249q91 0 136.5 -44t45.5 -122q0 -63 -24 -108.5t-64.5 -69.5t-85 -34.5t-94.5 -10.5h-246l-43 -201h-20l151 714h21zM60 221h249q111 0 176.5 52.5t65.5 150.5q0 44 -15 74.5t-41.5 45t-52.5 20.5t-57 6h-250z" />
    <glyph glyph-name="germandbls" unicode="&#xdf;" horiz-adv-x="481" 
d="M208 408q95 0 158 43t63 131q0 58 -40 91t-103 33q-45 0 -76 -13t-50.5 -40.5t-30.5 -56.5t-20 -74l-110 -522h-21l111 528q10 46 23 78.5t35 61.5t56.5 43.5t82.5 14.5q70 0 116.5 -38.5t46.5 -105.5q0 -76 -45 -124.5t-117 -58.5v-2q62 -10 95 -52t33 -107
q0 -103 -66 -174t-175 -71q-27 0 -54 5l6 19q32 -5 48 -5q96 0 158.5 64.5t62.5 161.5q0 83 -54 118t-139 32z" />
    <glyph glyph-name="agrave" unicode="&#xe0;" horiz-adv-x="481" 
d="M223 731l112 -144h-25l-112 144h25zM59 365q37 159 210 161q157 0 157 -128q0 -23 -8 -63l-59 -251q-4 -16 -4 -35q0 -33 31 -33q23 0 35 4v-20q-17 -3 -34 -3q-52 0 -52 52q0 14 10 56h-2q-36 -61 -86 -88.5t-124 -27.5q-66 0 -109 31t-43 95q0 50 18 84t51.5 51t70 24
t83.5 7q54 2 75 2q61 0 94 24.5t33 90.5q0 108 -137 108q-153 1 -190 -141h-20zM386 290l-2 2q-28 -30 -179 -30q-35 -2 -59.5 -5t-54 -12.5t-48 -24.5t-31 -42t-12.5 -63q0 -53 37.5 -80t95.5 -27q92 0 150.5 52t81.5 141z" />
    <glyph glyph-name="aacute" unicode="&#xe1;" horiz-adv-x="481" 
d="M225 587h-28l163 144h28zM59 365q37 159 210 161q157 0 157 -128q0 -23 -8 -63l-59 -251q-4 -16 -4 -35q0 -33 31 -33q23 0 35 4v-20q-17 -3 -34 -3q-52 0 -52 52q0 14 10 56h-2q-36 -61 -86 -88.5t-124 -27.5q-66 0 -109 31t-43 95q0 50 18 84t51.5 51t70 24t83.5 7
q54 2 75 2q61 0 94 24.5t33 90.5q0 108 -137 108q-153 1 -190 -141h-20zM386 290l-2 2q-28 -30 -179 -30q-35 -2 -59.5 -5t-54 -12.5t-48 -24.5t-31 -42t-12.5 -63q0 -53 37.5 -80t95.5 -27q92 0 150.5 52t81.5 141z" />
    <glyph glyph-name="acircumflex" unicode="&#xe2;" horiz-adv-x="481" 
d="M400 587h-24l-82 130l-124 -130h-26l135 144h30zM59 365q37 159 210 161q157 0 157 -128q0 -23 -8 -63l-59 -251q-4 -16 -4 -35q0 -33 31 -33q23 0 35 4v-20q-17 -3 -34 -3q-52 0 -52 52q0 14 10 56h-2q-36 -61 -86 -88.5t-124 -27.5q-66 0 -109 31t-43 95q0 50 18 84
t51.5 51t70 24t83.5 7q54 2 75 2q61 0 94 24.5t33 90.5q0 108 -137 108q-153 1 -190 -141h-20zM386 290l-2 2q-28 -30 -179 -30q-35 -2 -59.5 -5t-54 -12.5t-48 -24.5t-31 -42t-12.5 -63q0 -53 37.5 -80t95.5 -27q92 0 150.5 52t81.5 141z" />
    <glyph glyph-name="atilde" unicode="&#xe3;" horiz-adv-x="481" 
d="M423 678q-7 -31 -26 -54t-49 -23q-25 0 -65 30.5t-64 30.5q-33 0 -53 -60h-20q7 34 26.5 57t52.5 23q24 0 63 -30.5t65 -30.5q30 0 51 57h19zM59 365q37 159 210 161q157 0 157 -128q0 -23 -8 -63l-59 -251q-4 -16 -4 -35q0 -33 31 -33q23 0 35 4v-20q-17 -3 -34 -3
q-52 0 -52 52q0 14 10 56h-2q-36 -61 -86 -88.5t-124 -27.5q-66 0 -109 31t-43 95q0 50 18 84t51.5 51t70 24t83.5 7q54 2 75 2q61 0 94 24.5t33 90.5q0 108 -137 108q-153 1 -190 -141h-20zM386 290l-2 2q-28 -30 -179 -30q-35 -2 -59.5 -5t-54 -12.5t-48 -24.5t-31 -42
t-12.5 -63q0 -53 37.5 -80t95.5 -27q92 0 150.5 52t81.5 141z" />
    <glyph glyph-name="adieresis" unicode="&#xe4;" horiz-adv-x="481" 
d="M221 671l-13 -81h-21l13 81h21zM379 671l-13 -81h-21l13 81h21zM59 365q37 159 210 161q157 0 157 -128q0 -23 -8 -63l-59 -251q-4 -16 -4 -35q0 -33 31 -33q23 0 35 4v-20q-17 -3 -34 -3q-52 0 -52 52q0 14 10 56h-2q-36 -61 -86 -88.5t-124 -27.5q-66 0 -109 31t-43 95
q0 50 18 84t51.5 51t70 24t83.5 7q54 2 75 2q61 0 94 24.5t33 90.5q0 108 -137 108q-153 1 -190 -141h-20zM386 290l-2 2q-28 -30 -179 -30q-35 -2 -59.5 -5t-54 -12.5t-48 -24.5t-31 -42t-12.5 -63q0 -53 37.5 -80t95.5 -27q92 0 150.5 52t81.5 141z" />
    <glyph glyph-name="aring" unicode="&#xe5;" horiz-adv-x="481" 
d="M237 664q0 -32 22 -54t54 -22t54 22t22 54t-22 54t-54 22t-54 -22t-22 -54zM217 664q0 40 28 68t68 28t68 -28t28 -68t-28 -68t-68 -28t-68 28t-28 68zM59 365q37 159 210 161q157 0 157 -128q0 -23 -8 -63l-59 -251q-4 -16 -4 -35q0 -33 31 -33q23 0 35 4v-20
q-17 -3 -34 -3q-52 0 -52 52q0 14 10 56h-2q-36 -61 -86 -88.5t-124 -27.5q-66 0 -109 31t-43 95q0 50 18 84t51.5 51t70 24t83.5 7q54 2 75 2q61 0 94 24.5t33 90.5q0 108 -137 108q-153 1 -190 -141h-20zM386 290l-2 2q-28 -30 -179 -30q-35 -2 -59.5 -5t-54 -12.5
t-48 -24.5t-31 -42t-12.5 -63q0 -53 37.5 -80t95.5 -27q92 0 150.5 52t81.5 141z" />
    <glyph glyph-name="ae" unicode="&#xe6;" horiz-adv-x="833" 
d="M369 299q-24 -26 -74 -31q-64 -6 -94 -6q-35 -2 -60 -5t-54 -12.5t-47 -24.5t-30.5 -42t-12.5 -63q0 -53 37 -80t95 -27q59 0 108 29.5t80 81.5q25 42 54 178zM382 253q-10 -27 -10 -71q0 -77 45 -125.5t118 -48.5q80 0 134.5 40.5t74.5 120.5h23q-49 -180 -234 -180
q-75 0 -125.5 47t-50.5 119h-2q-23 -71 -86.5 -118.5t-139.5 -47.5q-66 0 -109 31t-43 95q0 50 18 84t51.5 51t70 24t83.5 7q16 1 46 2.5t43 3.5q49 4 72 25.5t24 68.5q0 64 -33.5 94.5t-86.5 30.5q-153 1 -190 -141h-20q37 159 210 161q62 0 102 -37.5t34 -105.5l2 -2
q25 63 77.5 104t119.5 41q89 0 137.5 -56t48.5 -144q0 -45 -4 -73h-400zM761 273q5 24 5 53q0 77 -43 128.5t-123 51.5q-83 0 -141.5 -69.5t-73.5 -163.5h376z" />
    <glyph glyph-name="ccedilla" unicode="&#xe7;" 
d="M432 165q-23 -78 -78.5 -124.5t-130.5 -50.5l-30 -31l-13 -9l2 -2q8 4 22 4q32 0 52.5 -16t20.5 -46q0 -36 -28.5 -54.5t-65.5 -18.5t-87 22l8 19q40 -21 80 -21q28 0 50.5 13.5t22.5 39.5q0 21 -16 31.5t-37 10.5q-16 0 -55 -13l-15 9l62 62q-89 4 -136.5 56.5
t-47.5 144.5q0 135 72.5 235t195.5 100q86 0 134.5 -43.5t48.5 -123.5h-20q0 71 -43.5 109t-119.5 38q-78 0 -136.5 -48.5t-85 -118.5t-26.5 -148q0 -86 45.5 -134.5t131.5 -48.5q148 5 203 157h20z" />
    <glyph glyph-name="egrave" unicode="&#xe8;" 
d="M232 731l112 -144h-25l-112 144h25zM433 273q5 24 5 53q0 77 -43 128.5t-123 51.5q-98 0 -160 -65.5t-81 -167.5h402zM27 253q-3 -23 -3 -55q0 -56 17 -96t44.5 -59t54 -27t54.5 -8q167 0 212 161h21q-48 -180 -232 -180q-93 0 -142 58.5t-49 151.5q0 83 28.5 155.5
t91 122t148.5 49.5q89 0 137.5 -56t48.5 -144q0 -36 -4 -73h-427z" />
    <glyph glyph-name="eacute" unicode="&#xe9;" 
d="M234 587h-28l163 144h28zM433 273q5 24 5 53q0 77 -43 128.5t-123 51.5q-98 0 -160 -65.5t-81 -167.5h402zM27 253q-3 -23 -3 -55q0 -56 17 -96t44.5 -59t54 -27t54.5 -8q167 0 212 161h21q-48 -180 -232 -180q-93 0 -142 58.5t-49 151.5q0 83 28.5 155.5t91 122
t148.5 49.5q89 0 137.5 -56t48.5 -144q0 -36 -4 -73h-427z" />
    <glyph glyph-name="ecircumflex" unicode="&#xea;" 
d="M409 587h-24l-82 130l-124 -130h-26l135 144h30zM433 273q5 24 5 53q0 77 -43 128.5t-123 51.5q-98 0 -160 -65.5t-81 -167.5h402zM27 253q-3 -23 -3 -55q0 -56 17 -96t44.5 -59t54 -27t54.5 -8q167 0 212 161h21q-48 -180 -232 -180q-93 0 -142 58.5t-49 151.5
q0 83 28.5 155.5t91 122t148.5 49.5q89 0 137.5 -56t48.5 -144q0 -36 -4 -73h-427z" />
    <glyph glyph-name="edieresis" unicode="&#xeb;" 
d="M230 671l-13 -81h-21l13 81h21zM388 671l-13 -81h-21l13 81h21zM433 273q5 24 5 53q0 77 -43 128.5t-123 51.5q-98 0 -160 -65.5t-81 -167.5h402zM27 253q-3 -23 -3 -55q0 -56 17 -96t44.5 -59t54 -27t54.5 -8q167 0 212 161h21q-48 -180 -232 -180q-93 0 -142 58.5
t-49 151.5q0 83 28.5 155.5t91 122t148.5 49.5q89 0 137.5 -56t48.5 -144q0 -36 -4 -73h-427z" />
    <glyph glyph-name="igrave" unicode="&#xec;" horiz-adv-x="130" 
d="M83 731l112 -144h-25l-112 144h25zM1 0h-21l109 514h22z" />
    <glyph glyph-name="iacute" unicode="&#xed;" horiz-adv-x="130" 
d="M85 587h-28l163 144h28zM1 0h-21l109 514h22z" />
    <glyph glyph-name="icircumflex" unicode="&#xee;" horiz-adv-x="130" 
d="M240 587h-24l-82 130l-124 -130h-25l134 144h30zM1 0h-21l109 514h22z" />
    <glyph glyph-name="idieresis" unicode="&#xef;" horiz-adv-x="130" 
d="M61 671l-13 -81h-21l13 81h21zM219 671l-13 -81h-21l13 81h21zM1 0h-21l109 514h22z" />
    <glyph glyph-name="eth" unicode="&#xf0;" horiz-adv-x="519" 
d="M298 654q-40 36 -83 60l19 14q45 -25 85 -64l134 68l13 -16l-132 -67q140 -152 140 -319q0 -155 -77.5 -248t-193.5 -93q-95 0 -146 53.5t-51 148.5q0 135 73.5 229t204.5 94q48 0 91.5 -23t64.5 -64h2q-16 59 -55 117.5t-76 95.5l-133 -68l-13 15zM26 191
q0 -86 45.5 -134.5t131.5 -48.5q113 0 182 93.5t69 218.5q0 75 -49 124.5t-122 49.5q-83 0 -143 -45.5t-87 -112.5t-27 -145z" />
    <glyph glyph-name="ntilde" unicode="&#xf1;" 
d="M441 678q-7 -31 -26 -54t-49 -23q-25 0 -65 30.5t-64 30.5q-33 0 -53 -60h-20q7 34 26.5 57t52.5 23q24 0 63 -30.5t65 -30.5q30 0 51 57h19zM92 514h21l-13 -64l-13 -58l2 -2q76 136 208 136q69 0 110 -36.5t41 -103.5q0 -16 -12 -81l-64 -305h-21l65 310q12 60 12 76
q-1 58 -36.5 89t-94.5 31q-54 0 -97.5 -23t-72 -64t-46 -85t-28.5 -97l-51 -237h-20z" />
    <glyph glyph-name="ograve" unicode="&#xf2;" horiz-adv-x="519" 
d="M242 731l112 -144h-25l-112 144h25zM26 191q0 -86 45.5 -134.5t131.5 -48.5q78 0 136.5 48.5t85.5 117t27 141.5q0 90 -48 140.5t-130 50.5q-78 0 -136.5 -48.5t-85 -118.5t-26.5 -148zM6 191q0 135 72.5 235t195.5 100q92 0 145 -58t53 -153q0 -58 -18 -115
t-50.5 -104.5t-85 -77t-115.5 -29.5q-95 0 -146 53.5t-51 148.5z" />
    <glyph glyph-name="oacute" unicode="&#xf3;" horiz-adv-x="519" 
d="M244 587h-28l163 144h28zM26 191q0 -86 45.5 -134.5t131.5 -48.5q78 0 136.5 48.5t85.5 117t27 141.5q0 90 -48 140.5t-130 50.5q-78 0 -136.5 -48.5t-85 -118.5t-26.5 -148zM6 191q0 135 72.5 235t195.5 100q92 0 145 -58t53 -153q0 -58 -18 -115t-50.5 -104.5t-85 -77
t-115.5 -29.5q-95 0 -146 53.5t-51 148.5z" />
    <glyph glyph-name="ocircumflex" unicode="&#xf4;" horiz-adv-x="519" 
d="M419 587h-24l-82 130l-124 -130h-26l135 144h30zM26 191q0 -86 45.5 -134.5t131.5 -48.5q78 0 136.5 48.5t85.5 117t27 141.5q0 90 -48 140.5t-130 50.5q-78 0 -136.5 -48.5t-85 -118.5t-26.5 -148zM6 191q0 135 72.5 235t195.5 100q92 0 145 -58t53 -153q0 -58 -18 -115
t-50.5 -104.5t-85 -77t-115.5 -29.5q-95 0 -146 53.5t-51 148.5z" />
    <glyph glyph-name="otilde" unicode="&#xf5;" horiz-adv-x="519" 
d="M442 678q-7 -31 -26 -54t-49 -23q-25 0 -65 30.5t-64 30.5q-33 0 -53 -60h-20q7 34 26.5 57t52.5 23q24 0 63 -30.5t65 -30.5q30 0 51 57h19zM26 191q0 -86 45.5 -134.5t131.5 -48.5q78 0 136.5 48.5t85.5 117t27 141.5q0 90 -48 140.5t-130 50.5q-78 0 -136.5 -48.5
t-85 -118.5t-26.5 -148zM6 191q0 135 72.5 235t195.5 100q92 0 145 -58t53 -153q0 -58 -18 -115t-50.5 -104.5t-85 -77t-115.5 -29.5q-95 0 -146 53.5t-51 148.5z" />
    <glyph glyph-name="odieresis" unicode="&#xf6;" horiz-adv-x="519" 
d="M240 671l-13 -81h-21l13 81h21zM398 671l-13 -81h-21l13 81h21zM26 191q0 -86 45.5 -134.5t131.5 -48.5q78 0 136.5 48.5t85.5 117t27 141.5q0 90 -48 140.5t-130 50.5q-78 0 -136.5 -48.5t-85 -118.5t-26.5 -148zM6 191q0 135 72.5 235t195.5 100q92 0 145 -58t53 -153
q0 -58 -18 -115t-50.5 -104.5t-85 -77t-115.5 -29.5q-95 0 -146 53.5t-51 148.5z" />
    <glyph glyph-name="divide" unicode="&#xf7;" horiz-adv-x="600" 
d="M341 41q0 -41 -41 -41t-41 41q0 18 12 29.5t29 11.5t29 -12t12 -29zM341 465q0 -41 -41 -41t-41 41q0 18 12 29.5t29 11.5t29 -12t12 -29zM48 243v20h504v-20h-504z" />
    <glyph glyph-name="oslash" unicode="&#xf8;" horiz-adv-x="519" 
d="M471 518l-47 -57q48 -54 48 -146q0 -58 -18 -115t-50.5 -104.5t-85 -77t-115.5 -29.5q-92 0 -133 40l-47 -57l-15 12l48 58q-50 55 -50 149q0 135 72.5 235t195.5 100q84 0 137 -51l45 55zM398 459q-47 47 -124 47q-78 0 -136.5 -48.5t-85 -118.5t-26.5 -148
q0 -87 43 -133zM83 45q37 -37 120 -37q78 0 136.5 48.5t85.5 117t27 141.5q0 84 -42 129z" />
    <glyph glyph-name="ugrave" unicode="&#xf9;" 
d="M241 731l112 -144h-25l-112 144h25zM368 0h-21l13 64l13 58l-2 2q-37 -67 -86.5 -101t-121.5 -34q-69 0 -110 36t-41 103q0 16 12 81l64 305h21l-65 -310q-12 -60 -12 -76q1 -58 36.5 -89t94.5 -31q54 0 97.5 23t72 64t46 85t28.5 97l50 237h22z" />
    <glyph glyph-name="uacute" unicode="&#xfa;" 
d="M243 587h-28l163 144h28zM368 0h-21l13 64l13 58l-2 2q-37 -67 -86.5 -101t-121.5 -34q-69 0 -110 36t-41 103q0 16 12 81l64 305h21l-65 -310q-12 -60 -12 -76q1 -58 36.5 -89t94.5 -31q54 0 97.5 23t72 64t46 85t28.5 97l50 237h22z" />
    <glyph glyph-name="ucircumflex" unicode="&#xfb;" 
d="M418 587h-24l-82 130l-124 -130h-26l135 144h30zM368 0h-21l13 64l13 58l-2 2q-37 -67 -86.5 -101t-121.5 -34q-69 0 -110 36t-41 103q0 16 12 81l64 305h21l-65 -310q-12 -60 -12 -76q1 -58 36.5 -89t94.5 -31q54 0 97.5 23t72 64t46 85t28.5 97l50 237h22z" />
    <glyph glyph-name="udieresis" unicode="&#xfc;" 
d="M239 671l-13 -81h-21l13 81h21zM397 671l-13 -81h-21l13 81h21zM368 0h-21l13 64l13 58l-2 2q-37 -67 -86.5 -101t-121.5 -34q-69 0 -110 36t-41 103q0 16 12 81l64 305h21l-65 -310q-12 -60 -12 -76q1 -58 36.5 -89t94.5 -31q54 0 97.5 23t72 64t46 85t28.5 97l50 237
h22z" />
    <glyph glyph-name="yacute" unicode="&#xfd;" horiz-adv-x="407" 
d="M224 587h-28l163 144h28zM138 26l281 488h25l-337 -582q-39 -63 -58 -79q-31 -26 -81 -28q-3 -1 -8 -1h-9h-17l3 20q56 -2 82 13.5t58 65.5l44 77l-100 514h22z" />
    <glyph glyph-name="thorn" unicode="&#xfe;" horiz-adv-x="537" 
d="M143 714h21l-71 -336h2q74 148 213 148q91 0 136.5 -58.5t45.5 -150.5q0 -79 -31.5 -153t-95 -124.5t-143.5 -50.5q-79 0 -125 38.5t-51 107.5h-2l-65 -311h-21zM470 313q0 87 -39 140t-123 53q-77 0 -136.5 -55.5t-87 -130t-27.5 -147.5q0 -77 41.5 -121t121.5 -44
q73 0 132 48t88.5 117t29.5 140z" />
    <glyph glyph-name="ydieresis" unicode="&#xff;" horiz-adv-x="407" 
d="M210 671l-13 -81h-21l13 81h21zM368 671l-13 -81h-21l13 81h21zM138 26l281 488h25l-337 -582q-39 -63 -58 -79q-31 -26 -81 -28q-3 -1 -8 -1h-9h-17l3 20q56 -2 82 13.5t58 65.5l44 77l-100 514h22z" />
    <glyph glyph-name="Amacron" unicode="&#x100;" horiz-adv-x="574" 
d="M458 235h-366l-146 -235h-22l446 714h20l132 -714h-20zM455 255l-79 431h-2l-269 -431h350zM428 784l-5 -20h-232l4 20h233z" />
    <glyph glyph-name="amacron" unicode="&#x101;" horiz-adv-x="481" 
d="M59 365q37 159 210 161q157 0 157 -128q0 -23 -8 -63l-59 -251q-4 -16 -4 -35q0 -33 31 -33q23 0 35 4v-20q-17 -3 -34 -3q-52 0 -52 52q0 14 10 56h-2q-36 -61 -86 -88.5t-124 -27.5q-66 0 -109 31t-43 95q0 50 18 84t51.5 51t70 24t83.5 7q54 2 75 2q61 0 94 24.5
t33 90.5q0 108 -137 108q-153 1 -190 -141h-20zM386 290l-2 2q-28 -30 -179 -30q-35 -2 -59.5 -5t-54 -12.5t-48 -24.5t-31 -42t-12.5 -63q0 -53 37.5 -80t95.5 -27q92 0 150.5 52t81.5 141zM391 599l-5 -20h-232l4 20h233z" />
    <glyph glyph-name="Abreve" unicode="&#x102;" horiz-adv-x="574" 
d="M458 235h-366l-146 -235h-22l446 714h20l132 -714h-20zM455 255l-79 431h-2l-269 -431h350zM195 875h20q-2 -39 23 -65t67 -26t73.5 25t46.5 66h20q-12 -49 -50.5 -80t-88.5 -31q-51 0 -81 30t-30 81z" />
    <glyph glyph-name="abreve" unicode="&#x103;" horiz-adv-x="481" 
d="M59 365q37 159 210 161q157 0 157 -128q0 -23 -8 -63l-59 -251q-4 -16 -4 -35q0 -33 31 -33q23 0 35 4v-20q-17 -3 -34 -3q-52 0 -52 52q0 14 10 56h-2q-36 -61 -86 -88.5t-124 -27.5q-66 0 -109 31t-43 95q0 50 18 84t51.5 51t70 24t83.5 7q54 2 75 2q61 0 94 24.5
t33 90.5q0 108 -137 108q-153 1 -190 -141h-20zM386 290l-2 2q-28 -30 -179 -30q-35 -2 -59.5 -5t-54 -12.5t-48 -24.5t-31 -42t-12.5 -63q0 -53 37.5 -80t95.5 -27q92 0 150.5 52t81.5 141zM158 690h20q-2 -39 23 -65t67 -26t73.5 25t46.5 66h20q-12 -49 -50.5 -80
t-88.5 -31q-51 0 -81 30t-30 81z" />
    <glyph glyph-name="Aogonek" unicode="&#x104;" horiz-adv-x="574" 
d="M445 -188q-58 0 -58 58q0 26 17.5 51.5t37 41.5t42.5 32q6 3 8 5h10l-44 235h-366l-146 -235h-22l446 714h20l132 -714q-59 -37 -86.5 -67.5t-27.5 -62.5q0 -16 9 -28t28 -12q43 0 78 40l13 -12q-40 -46 -91 -46zM455 255l-79 431h-2l-269 -431h350z" />
    <glyph glyph-name="aogonek" unicode="&#x105;" horiz-adv-x="481" 
d="M344 -188q-58 0 -58 58q0 21 8.5 39.5t28.5 37t29.5 26t33.5 24.5q-51 1 -51 52q0 14 10 56h-2q-36 -61 -86 -88.5t-124 -27.5q-66 0 -109 31t-43 95q0 50 18 84t51.5 51t70 24t83.5 7q54 2 75 2q61 0 94 24.5t33 90.5q0 108 -137 108q-153 1 -190 -141h-20
q37 159 210 161q157 0 157 -128q0 -23 -8 -63l-59 -251q-4 -16 -4 -35q0 -33 31 -33q23 0 35 4v-20q-59 -37 -86.5 -67.5t-27.5 -62.5q0 -16 9 -28t28 -12q43 0 78 40l13 -12q-40 -46 -91 -46zM133 8q92 0 150.5 52t81.5 141l21 89l-2 2q-28 -30 -179 -30q-35 -2 -59.5 -5
t-54 -12.5t-48 -24.5t-31 -42t-12.5 -63q0 -53 37.5 -80t95.5 -27z" />
    <glyph glyph-name="Cacute" unicode="&#x106;" horiz-adv-x="685" 
d="M628 252h20q-31 -119 -123 -193.5t-217 -74.5q-128 0 -201.5 78t-73.5 211q0 84 25.5 164.5t72.5 146t122 106t166 41.5q110 0 188 -63t78 -169h-20q0 95 -73.5 153.5t-172.5 58.5q-112 0 -197.5 -64.5t-127 -162.5t-41.5 -211q0 -130 71 -200t184 -70q115 0 200.5 67
t119.5 182zM395 751h-28l163 144h28z" />
    <glyph glyph-name="cacute" unicode="&#x107;" 
d="M463 359h-20q0 71 -43.5 109t-119.5 38q-78 0 -136.5 -48.5t-85 -118.5t-26.5 -148q0 -86 45.5 -134.5t131.5 -48.5q148 5 203 157h20q-22 -81 -83 -128.5t-140 -47.5q-95 0 -146 53.5t-51 148.5q0 135 72.5 235t195.5 100q86 0 134.5 -43.5t48.5 -123.5zM262 587h-28
l163 144h28z" />
    <glyph glyph-name="Ccircumflex" unicode="&#x108;" horiz-adv-x="685" 
d="M648 252q-31 -119 -123 -193.5t-217 -74.5q-128 0 -201.5 78t-73.5 211q0 84 25.5 164.5t72.5 146t122 106t166 41.5q110 0 188 -63t78 -169h-20q0 95 -73.5 153.5t-172.5 58.5q-112 0 -197.5 -64.5t-127 -162.5t-41.5 -211q0 -130 71 -200t184 -70q115 0 200.5 67
t119.5 182h20zM591 781h-24l-82 130l-124 -130h-26l135 144h30z" />
    <glyph glyph-name="ccircumflex" unicode="&#x109;" 
d="M443 359q0 71 -43.5 109t-119.5 38q-78 0 -136.5 -48.5t-85 -118.5t-26.5 -148q0 -86 45.5 -134.5t131.5 -48.5q148 5 203 157h20q-22 -81 -83 -128.5t-140 -47.5q-95 0 -146 53.5t-51 148.5q0 135 72.5 235t195.5 100q86 0 134.5 -43.5t48.5 -123.5h-20zM448 579h-24
l-82 130l-124 -130h-26l135 144h30z" />
    <glyph glyph-name="Cdotaccent" unicode="&#x10a;" horiz-adv-x="685" 
d="M648 252q-31 -119 -123 -193.5t-217 -74.5q-128 0 -201.5 78t-73.5 211q0 84 25.5 164.5t72.5 146t122 106t166 41.5q110 0 188 -63t78 -169h-20q0 95 -73.5 153.5t-172.5 58.5q-112 0 -197.5 -64.5t-127 -162.5t-41.5 -211q0 -130 71 -200t184 -70q115 0 200.5 67
t119.5 182h20zM473 862l-13 -81h-21l13 81h21z" />
    <glyph glyph-name="cdotaccent" unicode="&#x10b;" 
d="M443 359q0 71 -43.5 109t-119.5 38q-78 0 -136.5 -48.5t-85 -118.5t-26.5 -148q0 -86 45.5 -134.5t131.5 -48.5q148 5 203 157h20q-22 -81 -83 -128.5t-140 -47.5q-95 0 -146 53.5t-51 148.5q0 135 72.5 235t195.5 100q86 0 134.5 -43.5t48.5 -123.5h-20zM331 660
l-13 -81h-21l13 81h21z" />
    <glyph glyph-name="Ccaron" unicode="&#x10c;" horiz-adv-x="685" 
d="M648 252q-31 -119 -123 -193.5t-217 -74.5q-128 0 -201.5 78t-73.5 211q0 84 25.5 164.5t72.5 146t122 106t166 41.5q110 0 188 -63t78 -169h-20q0 95 -73.5 153.5t-172.5 58.5q-112 0 -197.5 -64.5t-127 -162.5t-41.5 -211q0 -130 71 -200t184 -70q115 0 200.5 67
t119.5 182h20zM426 781l-91 144h24l82 -130l124 130h26l-135 -144h-30z" />
    <glyph glyph-name="ccaron" unicode="&#x10d;" 
d="M443 359q0 71 -43.5 109t-119.5 38q-78 0 -136.5 -48.5t-85 -118.5t-26.5 -148q0 -86 45.5 -134.5t131.5 -48.5q148 5 203 157h20q-22 -81 -83 -128.5t-140 -47.5q-95 0 -146 53.5t-51 148.5q0 135 72.5 235t195.5 100q86 0 134.5 -43.5t48.5 -123.5h-20zM283 579
l-91 144h24l82 -130l124 130h26l-135 -144h-30z" />
    <glyph glyph-name="Dcaron" unicode="&#x10e;" horiz-adv-x="667" 
d="M150 714h150q39 0 62 -1t62.5 -6.5t64.5 -15.5t55 -30.5t47.5 -49.5t29.5 -74.5t12 -102.5q0 -85 -29 -173t-81 -146q-63 -70 -133.5 -92.5t-175.5 -22.5h-220zM18 20h196q105 0 167 20t124 86q46 50 77 134t31 174q0 70 -18 119.5t-44 76.5t-71 42t-83.5 18.5t-96.5 3.5
h-134zM377 764l-91 144h24l82 -130l124 130h26l-135 -144h-30z" />
    <glyph glyph-name="dcaron" unicode="&#x10f;" horiz-adv-x="704" 
d="M392 76l16 63l-2 2q-67 -152 -216 -152q-89 0 -136.5 51.5t-47.5 142.5q0 57 18.5 116.5t52 110.5t86 83.5t114.5 32.5q80 0 128.5 -43t48.5 -119h2l12 65l62 285h21l-154 -714h-21zM440 336q0 80 -41.5 125t-121.5 45q-59 0 -108 -30.5t-79.5 -78.5t-47 -104t-16.5 -110
q0 -79 42 -127t121 -48q78 0 136.5 53t85.5 126t29 149zM713 714l-29 -131q-20 -74 -74 -94l4 26q24 13 34.5 31.5t16.5 46.5l27 121h21z" />
    <glyph glyph-name="Dcroat" unicode="&#x110;" horiz-adv-x="667" 
d="M-8 362l4 20h81l73 332h150q39 0 62 -1t62.5 -6.5t64.5 -15.5t55 -30.5t47.5 -49.5t29.5 -74.5t12 -102.5q0 -85 -29 -173t-81 -146q-63 -70 -133.5 -92.5t-175.5 -22.5h-220l79 362h-81zM93 362l-75 -342h196q105 0 167 20t124 86q46 50 77 134t31 174q0 70 -18 119.5
t-44 76.5t-71 42t-83.5 18.5t-96.5 3.5h-134l-69 -312h262l-4 -20h-262z" />
    <glyph glyph-name="dslash" unicode="&#x111;" horiz-adv-x="537" 
d="M397 622h113l20 92h21l-20 -92h96l-4 -20h-96l-130 -602h-21l16 76l16 63l-2 2q-67 -152 -216 -152q-89 0 -136.5 51.5t-47.5 142.5q0 57 18.5 116.5t52 110.5t86 83.5t114.5 32.5q80 0 128.5 -43t48.5 -119h2l12 65l37 173h-112zM440 336q0 80 -41.5 125t-121.5 45
q-59 0 -108 -30.5t-79.5 -78.5t-47 -104t-16.5 -110q0 -79 42 -127t121 -48q78 0 136.5 53t85.5 126t29 149z" />
    <glyph glyph-name="Emacron" unicode="&#x112;" horiz-adv-x="519" 
d="M465 20l-5 -20h-469l152 714h453l-4 -20h-433l-67 -312h404l-4 -20h-405l-73 -342h451zM499 784l-5 -20h-232l4 20h233z" />
    <glyph glyph-name="emacron" unicode="&#x113;" 
d="M433 273q5 24 5 53q0 77 -43 128.5t-123 51.5q-98 0 -160 -65.5t-81 -167.5h402zM27 253q-3 -23 -3 -55q0 -56 17 -96t44.5 -59t54 -27t54.5 -8q167 0 212 161h21q-48 -180 -232 -180q-93 0 -142 58.5t-49 151.5q0 83 28.5 155.5t91 122t148.5 49.5q89 0 137.5 -56
t48.5 -144q0 -36 -4 -73h-427zM418 599l-5 -20h-232l4 20h233z" />
    <glyph glyph-name="Ebreve" unicode="&#x114;" horiz-adv-x="519" 
d="M465 20l-5 -20h-469l152 714h453l-4 -20h-433l-67 -312h404l-4 -20h-405l-73 -342h451zM266 875h20q-2 -39 23 -65t67 -26t73.5 25t46.5 66h20q-12 -49 -50.5 -80t-88.5 -31q-51 0 -81 30t-30 81z" />
    <glyph glyph-name="ebreve" unicode="&#x115;" 
d="M433 273q5 24 5 53q0 77 -43 128.5t-123 51.5q-98 0 -160 -65.5t-81 -167.5h402zM27 253q-3 -23 -3 -55q0 -56 17 -96t44.5 -59t54 -27t54.5 -8q167 0 212 161h21q-48 -180 -232 -180q-93 0 -142 58.5t-49 151.5q0 83 28.5 155.5t91 122t148.5 49.5q89 0 137.5 -56
t48.5 -144q0 -36 -4 -73h-427zM185 690h20q-2 -39 23 -65t67 -26t73.5 25t46.5 66h20q-12 -49 -50.5 -80t-88.5 -31q-51 0 -81 30t-30 81z" />
    <glyph glyph-name="Edotaccent" unicode="&#x116;" horiz-adv-x="519" 
d="M465 20l-5 -20h-469l152 714h453l-4 -20h-433l-67 -312h404l-4 -20h-405l-73 -342h451zM404 845l-13 -81h-21l13 81h21z" />
    <glyph glyph-name="edotaccent" unicode="&#x117;" 
d="M433 273q5 24 5 53q0 77 -43 128.5t-123 51.5q-98 0 -160 -65.5t-81 -167.5h402zM27 253q-3 -23 -3 -55q0 -56 17 -96t44.5 -59t54 -27t54.5 -8q167 0 212 161h21q-48 -180 -232 -180q-93 0 -142 58.5t-49 151.5q0 83 28.5 155.5t91 122t148.5 49.5q89 0 137.5 -56
t48.5 -144q0 -36 -4 -73h-427zM324 660l-13 -81h-21l13 81h21z" />
    <glyph glyph-name="Eogonek" unicode="&#x118;" horiz-adv-x="519" 
d="M345 -188q-58 0 -58 58q0 26 17.5 51.5t37 41.5t42.5 32q6 3 8 5h-401l152 714h453l-4 -20h-433l-67 -312h404l-4 -20h-405l-73 -342h451l-5 -20h-38q-59 -37 -86.5 -67.5t-27.5 -62.5q0 -16 9 -28t28 -12q43 0 78 40l13 -12q-40 -46 -91 -46z" />
    <glyph glyph-name="eogonek" unicode="&#x119;" 
d="M167 -188q-58 0 -58 58q0 56 89 119h-3q-93 0 -142 58.5t-49 151.5q0 83 28.5 155.5t91 122t148.5 49.5q89 0 137.5 -56t48.5 -144q0 -36 -4 -73h-427q-3 -23 -3 -55q0 -56 17 -96t44.5 -59t54 -27t54.5 -8q167 0 212 161h21q-22 -87 -81 -134q-45 -36 -117 -44
q-99 -65 -99 -121q0 -16 9 -28t28 -12q43 0 78 40l13 -12q-40 -46 -91 -46zM31 273h402q5 24 5 53q0 77 -43 128.5t-123 51.5q-98 0 -160 -65.5t-81 -167.5z" />
    <glyph glyph-name="Ecaron" unicode="&#x11a;" horiz-adv-x="519" 
d="M465 20l-5 -20h-469l152 714h453l-4 -20h-433l-67 -312h404l-4 -20h-405l-73 -342h451zM357 764l-91 144h24l82 -130l124 130h26l-135 -144h-30z" />
    <glyph glyph-name="ecaron" unicode="&#x11b;" 
d="M433 273q5 24 5 53q0 77 -43 128.5t-123 51.5q-98 0 -160 -65.5t-81 -167.5h402zM27 253q-3 -23 -3 -55q0 -56 17 -96t44.5 -59t54 -27t54.5 -8q167 0 212 161h21q-48 -180 -232 -180q-93 0 -142 58.5t-49 151.5q0 83 28.5 155.5t91 122t148.5 49.5q89 0 137.5 -56
t48.5 -144q0 -36 -4 -73h-427zM276 579l-91 144h24l82 -130l124 130h26l-135 -144h-30z" />
    <glyph glyph-name="Gcircumflex" unicode="&#x11c;" horiz-adv-x="722" 
d="M608 99l25 97l-2 2q-46 -106 -121 -159t-188 -55q-148 5 -218 86q-73 85 -71 209q0 120 44 222t134.5 166.5t212.5 63.5q113 2 184.5 -58.5t81.5 -172.5h-20q-11 106 -75.5 159.5t-170.5 51.5q-87 1 -159 -35t-117.5 -97.5t-70 -138.5t-24.5 -161q0 -55 19.5 -111.5
t55.5 -92.5q67 -67 194 -72q137 2 219 86.5t115 224.5h-277l4 20h295l-71 -334h-20zM593 782h-24l-82 130l-124 -130h-26l135 144h30z" />
    <glyph glyph-name="gcircumflex" unicode="&#x11d;" horiz-adv-x="519" 
d="M499 514l-102 -476q-25 -118 -84 -172t-164 -54q-81 0 -126.5 40t-41.5 119h19q-4 -70 36.5 -104.5t112.5 -34.5q35 0 63.5 6t51 20t39 27.5t30.5 39.5t22.5 45t17.5 53.5t13.5 56t12.5 61.5l-2 2q-27 -54 -78.5 -86t-113.5 -32q-91 0 -140.5 57.5t-49.5 150.5
q0 71 28.5 136.5t89.5 111t142 45.5q73 0 119 -42.5t53 -122.5h2l14 75l16 78h20zM433 330q-4 85 -44 130.5t-126 45.5q-100 0 -164 -83t-64 -190q0 -84 43 -136t127 -52q70 0 123.5 44.5t79 108t25.5 132.5zM467 579h-24l-82 130l-124 -130h-26l135 144h30z" />
    <glyph glyph-name="Gbreve" unicode="&#x11e;" horiz-adv-x="722" 
d="M608 99l25 97l-2 2q-46 -106 -121 -159t-188 -55q-148 5 -218 86q-73 85 -71 209q0 120 44 222t134.5 166.5t212.5 63.5q113 2 184.5 -58.5t81.5 -172.5h-20q-11 106 -75.5 159.5t-170.5 51.5q-87 1 -159 -35t-117.5 -97.5t-70 -138.5t-24.5 -161q0 -55 19.5 -111.5
t55.5 -92.5q67 -67 194 -72q137 2 219 86.5t115 224.5h-277l4 20h295l-71 -334h-20zM337 893h20q-2 -39 23 -65t67 -26t73.5 25t46.5 66h20q-12 -49 -50.5 -80t-88.5 -31q-51 0 -81 30t-30 81z" />
    <glyph glyph-name="gbreve" unicode="&#x11f;" horiz-adv-x="519" 
d="M499 514l-102 -476q-25 -118 -84 -172t-164 -54q-81 0 -126.5 40t-41.5 119h19q-4 -70 36.5 -104.5t112.5 -34.5q35 0 63.5 6t51 20t39 27.5t30.5 39.5t22.5 45t17.5 53.5t13.5 56t12.5 61.5l-2 2q-27 -54 -78.5 -86t-113.5 -32q-91 0 -140.5 57.5t-49.5 150.5
q0 71 28.5 136.5t89.5 111t142 45.5q73 0 119 -42.5t53 -122.5h2l14 75l16 78h20zM433 330q-4 85 -44 130.5t-126 45.5q-100 0 -164 -83t-64 -190q0 -84 43 -136t127 -52q70 0 123.5 44.5t79 108t25.5 132.5zM211 690h20q-2 -39 23 -65t67 -26t73.5 25t46.5 66h20
q-12 -49 -50.5 -80t-88.5 -31q-51 0 -81 30t-30 81z" />
    <glyph glyph-name="Gdotaccent" unicode="&#x120;" horiz-adv-x="722" 
d="M608 99l25 97l-2 2q-46 -106 -121 -159t-188 -55q-148 5 -218 86q-73 85 -71 209q0 120 44 222t134.5 166.5t212.5 63.5q113 2 184.5 -58.5t81.5 -172.5h-20q-11 106 -75.5 159.5t-170.5 51.5q-87 1 -159 -35t-117.5 -97.5t-70 -138.5t-24.5 -161q0 -55 19.5 -111.5
t55.5 -92.5q67 -67 194 -72q137 2 219 86.5t115 224.5h-277l4 20h295l-71 -334h-20zM475 863l-13 -81h-21l13 81h21z" />
    <glyph glyph-name="gdotaccent" unicode="&#x121;" horiz-adv-x="519" 
d="M499 514l-102 -476q-25 -118 -84 -172t-164 -54q-81 0 -126.5 40t-41.5 119h19q-4 -70 36.5 -104.5t112.5 -34.5q35 0 63.5 6t51 20t39 27.5t30.5 39.5t22.5 45t17.5 53.5t13.5 56t12.5 61.5l-2 2q-27 -54 -78.5 -86t-113.5 -32q-91 0 -140.5 57.5t-49.5 150.5
q0 71 28.5 136.5t89.5 111t142 45.5q73 0 119 -42.5t53 -122.5h2l14 75l16 78h20zM433 330q-4 85 -44 130.5t-126 45.5q-100 0 -164 -83t-64 -190q0 -84 43 -136t127 -52q70 0 123.5 44.5t79 108t25.5 132.5zM350 660l-13 -81h-21l13 81h21z" />
    <glyph glyph-name="Gcommaaccent" unicode="&#x122;" horiz-adv-x="722" 
d="M608 99l25 97l-2 2q-46 -106 -121 -159t-188 -55q-148 5 -218 86q-73 85 -71 209q0 120 44 222t134.5 166.5t212.5 63.5q113 2 184.5 -58.5t81.5 -172.5h-20q-11 106 -75.5 159.5t-170.5 51.5q-87 1 -159 -35t-117.5 -97.5t-70 -138.5t-24.5 -161q0 -55 19.5 -111.5
t55.5 -92.5q67 -67 194 -72q137 2 219 86.5t115 224.5h-277l4 20h295l-71 -334h-20zM306 -100l-29 -131q-20 -74 -74 -94l4 26q24 13 34.5 31.5t16.5 46.5l27 121h21z" />
    <glyph glyph-name="gcommaaccent" unicode="&#x123;" horiz-adv-x="519" 
d="M499 514l-102 -476q-25 -118 -84 -172t-164 -54q-81 0 -126.5 40t-41.5 119h19q-4 -70 36.5 -104.5t112.5 -34.5q35 0 63.5 6t51 20t39 27.5t30.5 39.5t22.5 45t17.5 53.5t13.5 56t12.5 61.5l-2 2q-27 -54 -78.5 -86t-113.5 -32q-91 0 -140.5 57.5t-49.5 150.5
q0 71 28.5 136.5t89.5 111t142 45.5q73 0 119 -42.5t53 -122.5h2l14 75l16 78h20zM433 330q-4 85 -44 130.5t-126 45.5q-100 0 -164 -83t-64 -190q0 -84 43 -136t127 -52q70 0 123.5 44.5t79 108t25.5 132.5zM300 639l29 131q20 74 74 94l-4 -26q-24 -13 -34.5 -31.5
t-16.5 -46.5l-27 -121h-21z" />
    <glyph glyph-name="Hcircumflex" unicode="&#x124;" horiz-adv-x="648" 
d="M574 382l72 332h20l-153 -714h-20l77 362h-479l-78 -362h-19l152 714h20l-71 -332h479zM558 764h-24l-82 130l-124 -130h-26l135 144h30z" />
    <glyph glyph-name="hcircumflex" unicode="&#x125;" 
d="M135 714h21l-56 -264l-13 -58l2 -2q76 136 208 136q69 0 110 -36.5t41 -103.5q0 -16 -12 -81l-64 -305h-21l65 310q12 60 12 76q-1 58 -36.5 89t-94.5 31q-54 0 -97.5 -23t-72 -64t-46 -85t-28.5 -97l-51 -237h-20zM443 764h-24l-82 130l-124 -130h-26l135 144h30z" />
    <glyph glyph-name="Hbar" unicode="&#x126;" horiz-adv-x="648" 
d="M11 593h109l26 121h20l-26 -121h480l26 121h20l-26 -121h121l-4 -20h-121l-123 -573h-20l77 362h-479l-78 -362h-19l122 573h-109zM574 382l41 191h-480l-40 -191h479z" />
    <glyph glyph-name="hbar" unicode="&#x127;" 
d="M17 622h98l20 92h21l-20 -92h111l-4 -20h-111l-32 -152l-13 -58l2 -2q76 136 208 136q69 0 110 -36.5t41 -103.5q0 -16 -12 -81l-64 -305h-21l65 310l8 38q4 17 4 38q-1 58 -36.5 89t-94.5 31q-54 0 -97.5 -23t-72 -64t-46 -85t-28.5 -97l-51 -237h-20l129 602h-98z" />
    <glyph glyph-name="Itilde" unicode="&#x128;" horiz-adv-x="148" 
d="M-6 0l152 714h20l-153 -714h-19zM293 841h19q-7 -31 -26 -54t-49 -23q-25 0 -65 30.5t-64 30.5q-33 0 -53 -60h-20q7 34 26.5 57t52.5 23q24 0 63 -30.5t65 -30.5q30 0 51 57z" />
    <glyph glyph-name="itilde" unicode="&#x129;" horiz-adv-x="130" 
d="M1 0h-21l109 514h22zM239 644h19q-7 -31 -26 -54t-49 -23q-25 0 -65 30.5t-64 30.5q-33 0 -53 -60h-20q7 34 26.5 57t52.5 23q24 0 63 -30.5t65 -30.5q30 0 51 57z" />
    <glyph glyph-name="Imacron" unicode="&#x12a;" horiz-adv-x="148" 
d="M-6 0l152 714h20l-153 -714h-19zM285 784l-5 -20h-232l4 20h233z" />
    <glyph glyph-name="imacron" unicode="&#x12b;" horiz-adv-x="130" 
d="M1 0h-21l109 514h22zM231 587l-5 -20h-232l4 20h233z" />
    <glyph glyph-name="Ibreve" unicode="&#x12c;" horiz-adv-x="148" 
d="M-6 0l152 714h20l-153 -714h-19zM79 881q-2 -39 23 -65t67 -26t73.5 25t46.5 66h20q-12 -49 -50.5 -80t-88.5 -31q-51 0 -81 30t-30 81h20z" />
    <glyph glyph-name="ibreve" unicode="&#x12d;" horiz-adv-x="130" 
d="M1 0h-21l109 514h22zM36 679q-2 -39 23 -65t67 -26t73.5 25t46.5 66h20q-12 -49 -50.5 -80t-88.5 -31q-51 0 -81 30t-30 81h20z" />
    <glyph glyph-name="Iogonek" unicode="&#x12e;" horiz-adv-x="148" 
d="M-6 0l152 714h20l-153 -714h-19zM45 0h-30q-63 -44 -82 -70q-23 -30 -23 -60q0 -58 58 -58q51 0 91 46l-13 12q-35 -40 -78 -40q-19 0 -28 12t-9 28q0 32 27.5 62.5t86.5 67.5z" />
    <glyph glyph-name="iogonek" unicode="&#x12f;" horiz-adv-x="130" 
d="M129 714h22l-23 -104h-22zM1 0h-21l109 514h22zM31 0h-30q-63 -44 -82 -70q-23 -30 -23 -60q0 -58 58 -58q51 0 91 46l-13 12q-35 -40 -78 -40q-19 0 -28 12t-9 28q0 32 27.5 62.5t86.5 67.5z" />
    <glyph glyph-name="Idot" unicode="&#x130;" horiz-adv-x="148" 
d="M-6 0l152 714h20l-153 -714h-19zM195 851l-13 -81h-21l13 81h21z" />
    <glyph glyph-name="dotlessi" unicode="&#x131;" horiz-adv-x="130" 
d="M1 0h-21l109 514h22z" />
    <glyph glyph-name="IJ" unicode="&#x132;" horiz-adv-x="611" 
d="M-6 0l152 714h20l-153 -714h-19zM629 714l-113 -529q-9 -43 -21.5 -74.5t-35 -62.5t-60 -47.5t-88.5 -16.5q-91 0 -137 42.5t-46 117.5q0 46 9 76h19q-8 -45 -8 -76q0 -70 43 -105.5t120 -35.5q86 0 125.5 48.5t60.5 142.5l111 520h21z" />
    <glyph glyph-name="ij" unicode="&#x133;" horiz-adv-x="260" 
d="M129 714h22l-23 -104h-22zM1 0h-21l109 514h22zM259 714h22l-23 -104h-22zM122 -42q-8 -34 -14 -52t-18.5 -40t-33.5 -32t-51 -10q-15 0 -41 2l3 18q3 -1 11 -1h10h9q5 0 8 -1q31 0 52 21t26.5 37t15.5 56l1.5 3t1 3t0.5 4l117 548h22z" />
    <glyph glyph-name="Jcircumflex" unicode="&#x134;" horiz-adv-x="463" 
d="M481 714l-113 -529q-9 -43 -21.5 -74.5t-35 -62.5t-60 -47.5t-88.5 -16.5q-91 0 -137 42.5t-46 117.5q0 46 9 76h19q-8 -45 -8 -76q0 -70 43 -105.5t120 -35.5q86 0 125.5 48.5t60.5 142.5l111 520h21zM612 761h-24l-82 130l-124 -130h-26l135 144h30z" />
    <glyph glyph-name="jcircumflex" unicode="&#x135;" horiz-adv-x="130" 
d="M111 514l-119 -556q-8 -34 -14 -52t-18.5 -40t-33.5 -32t-51 -10q-15 0 -41 2l3 18q3 -1 11 -1h10h9q5 0 8 -1q31 0 52 21t26.5 37t15.5 56q2 7 3 10l117 548h22zM260 587h-24l-82 130l-124 -130h-26l135 144h30z" />
    <glyph glyph-name="Kcommaaccent" unicode="&#x136;" horiz-adv-x="593" 
d="M69 262l-56 -262h-19l151 714h20l-90 -424l576 424h33l-416 -307l292 -407h-24l-284 395zM246 0l-29 -131q-20 -74 -74 -94l4 26q24 13 34.5 31.5t16.5 46.5l27 121h21z" />
    <glyph glyph-name="kcommaaccent" unicode="&#x137;" horiz-adv-x="444" 
d="M36 202l-43 -202h-21l154 714h21l-104 -483l408 283h34l-306 -214l214 -300h-27l-204 289zM186 0l-29 -131q-20 -74 -74 -94l4 26q24 13 34.5 31.5t16.5 46.5l27 121h21z" />
    <glyph glyph-name="kgreenlandic" unicode="&#x138;" horiz-adv-x="444" 
d="M36 202l-43 -202h-21l113 514h21l-63 -283l408 283h34l-306 -214l214 -300h-27l-204 289z" />
    <glyph glyph-name="Lacute" unicode="&#x139;" horiz-adv-x="481" 
d="M431 20l-5 -20h-432l152 714h21l-149 -694h413zM246 764h-28l163 144h28z" />
    <glyph glyph-name="lacute" unicode="&#x13a;" horiz-adv-x="130" 
d="M-20 0l149 714h22l-150 -714h-21zM99 764h-28l163 144h28z" />
    <glyph glyph-name="Lcommaaccent" unicode="&#x13b;" horiz-adv-x="481" 
d="M431 20l-5 -20h-432l152 714h21l-149 -694h413zM216 -80l-29 -131q-20 -74 -74 -94l4 26q24 13 34.5 31.5t16.5 46.5l27 121h21z" />
    <glyph glyph-name="lcommaaccent" unicode="&#x13c;" horiz-adv-x="130" 
d="M-20 0l149 714h22l-150 -714h-21zM-14 -80l-29 -131q-20 -74 -74 -94l4 26q24 13 34.5 31.5t16.5 46.5l27 121h21z" />
    <glyph glyph-name="Lcaron" unicode="&#x13d;" horiz-adv-x="481" 
d="M431 20l-5 -20h-432l152 714h21l-149 -694h413zM276 764l-91 144h24l82 -130l124 130h26l-135 -144h-30z" />
    <glyph glyph-name="lcaron" unicode="&#x13e;" horiz-adv-x="225" 
d="M173 453l61 260h20l-61 -260h-20zM-20 0l149 714h22l-150 -714h-21z" />
    <glyph glyph-name="Ldot" unicode="&#x13f;" horiz-adv-x="481" 
d="M431 20l-5 -20h-432l152 714h21l-149 -694h413zM275 394l22 98h21l-22 -98h-21z" />
    <glyph glyph-name="ldot" unicode="&#x140;" horiz-adv-x="244" 
d="M-20 0l149 714h22l-150 -714h-21zM185 394l22 98h21l-22 -98h-21z" />
    <glyph glyph-name="Lslash" unicode="&#x141;" horiz-adv-x="481" 
d="M-6 0l59 286l-101 -65l7 28l101 64l86 401h21l-82 -385l237 149l-7 -28l-236 -149l-61 -281h413l-5 -20h-432z" />
    <glyph glyph-name="lslash" unicode="&#x142;" horiz-adv-x="130" 
d="M-20 317l5 28l78 54l66 315h22l-63 -298l87 59l-6 -28l-87 -59l-81 -388h-21l77 371z" />
    <glyph glyph-name="Nacute" unicode="&#x143;" horiz-adv-x="667" 
d="M505 0l-344 691h-2l-145 -691h-20l151 714h27l344 -691h2l146 691h21l-153 -714h-27zM386 751h-28l163 144h28z" />
    <glyph glyph-name="nacute" unicode="&#x144;" 
d="M92 514h21l-13 -64l-13 -58l2 -2q76 136 208 136q69 0 110 -36.5t41 -103.5q0 -16 -12 -81l-64 -305h-21l65 310q12 60 12 76q-1 58 -36.5 89t-94.5 31q-54 0 -97.5 -23t-72 -64t-46 -85t-28.5 -97l-51 -237h-20zM262 587h-28l163 144h28z" />
    <glyph glyph-name="Ncommaaccent" unicode="&#x145;" horiz-adv-x="667" 
d="M505 0l-344 691h-2l-145 -691h-20l151 714h27l344 -691h2l146 691h21l-153 -714h-27zM266 0l-29 -131q-20 -74 -74 -94l4 26q24 13 34.5 31.5t16.5 46.5l27 121h21z" />
    <glyph glyph-name="ncedilla" unicode="&#x146;" 
d="M92 514h21l-13 -64l-13 -58l2 -2q76 136 208 136q69 0 110 -36.5t41 -103.5q0 -16 -12 -81l-64 -305h-21l65 310q12 60 12 76q-1 58 -36.5 89t-94.5 31q-54 0 -97.5 -23t-72 -64t-46 -85t-28.5 -97l-51 -237h-20zM206 0l-29 -131q-20 -74 -74 -94l4 26q24 13 34.5 31.5
t16.5 46.5l27 121h21z" />
    <glyph glyph-name="Ncaron" unicode="&#x147;" horiz-adv-x="667" 
d="M505 0l-344 691h-2l-145 -691h-20l151 714h27l344 -691h2l146 691h21l-153 -714h-27zM403 764l-91 144h24l82 -130l124 130h26l-135 -144h-30z" />
    <glyph glyph-name="ncaron" unicode="&#x148;" 
d="M92 514h21l-13 -64l-13 -58l2 -2q76 136 208 136q69 0 110 -36.5t41 -103.5q0 -16 -12 -81l-64 -305h-21l65 310q12 60 12 76q-1 58 -36.5 89t-94.5 31q-54 0 -97.5 -23t-72 -64t-46 -85t-28.5 -97l-51 -237h-20zM259 579l-91 144h24l82 -130l124 130h26l-135 -144h-30z
" />
    <glyph glyph-name="napostrophe" unicode="&#x149;" horiz-adv-x="599" 
d="M179 720l-29 -131q-20 -74 -74 -94l4 26q24 13 34.5 31.5t16.5 46.5l27 121h21zM191 514h21l-13 -64l-13 -58l2 -2q76 136 208 136q69 0 110 -36.5t41 -103.5q0 -16 -12 -81l-64 -305h-21l65 310q12 60 12 76q-1 58 -36.5 89t-94.5 31q-54 0 -97.5 -23t-72 -64t-46 -85
t-28.5 -97l-51 -237h-20z" />
    <glyph glyph-name="Eng" unicode="&#x14a;" horiz-adv-x="667" 
d="M505 0l-344 691h-2l-145 -691h-20l151 714h27l342 -689l150 689h21l-163 -756q-8 -34 -14 -52t-18.5 -40t-33.5 -32t-51 -10q-15 0 -41 2l3 18q3 -1 11 -1h19q5 0 8 -1q66 0 86 82l11 42l7 34h-4z" />
    <glyph glyph-name="eng" unicode="&#x14b;" 
d="M436 305l-74 -347q-8 -34 -14 -52t-18.5 -40t-33.5 -32t-51 -10q-15 0 -41 2l3 18q3 -1 11 -1h19q5 0 8 -1q63 0 88 82l91 424q4 17 4 38q-1 58 -36.5 89t-94.5 31q-54 0 -97.5 -23t-72 -64t-46 -85t-28.5 -97l-51 -237h-20l110 514h21l-13 -64l-13 -58l2 -2
q76 136 208 136q69 0 110 -36.5t41 -103.5q0 -16 -12 -81z" />
    <glyph glyph-name="Omacron" unicode="&#x14c;" horiz-adv-x="722" 
d="M677 434q0 128 -69 202.5t-197 74.5q-111 0 -194.5 -65t-123.5 -161.5t-40 -204.5q0 -126 71 -201.5t195 -75.5q110 0 193.5 65t124 161.5t40.5 204.5zM697 434q0 -85 -25.5 -165t-72 -144t-119.5 -102.5t-161 -38.5q-136 0 -211 79.5t-75 216.5q0 85 25 165t71.5 144
t119.5 103t162 39q135 0 210.5 -80t75.5 -217zM574 801l-5 -20h-232l4 20h233z" />
    <glyph glyph-name="omacron" unicode="&#x14d;" horiz-adv-x="519" 
d="M26 191q0 -86 45.5 -134.5t131.5 -48.5q78 0 136.5 48.5t85.5 117t27 141.5q0 90 -48 140.5t-130 50.5q-78 0 -136.5 -48.5t-85 -118.5t-26.5 -148zM6 191q0 135 72.5 235t195.5 100q92 0 145 -58t53 -153q0 -58 -18 -115t-50.5 -104.5t-85 -77t-115.5 -29.5
q-95 0 -146 53.5t-51 148.5zM426 599l-5 -20h-232l4 20h233z" />
    <glyph glyph-name="Obreve" unicode="&#x14e;" horiz-adv-x="722" 
d="M677 434q0 128 -69 202.5t-197 74.5q-111 0 -194.5 -65t-123.5 -161.5t-40 -204.5q0 -126 71 -201.5t195 -75.5q110 0 193.5 65t124 161.5t40.5 204.5zM697 434q0 -85 -25.5 -165t-72 -144t-119.5 -102.5t-161 -38.5q-136 0 -211 79.5t-75 216.5q0 85 25 165t71.5 144
t119.5 103t162 39q135 0 210.5 -80t75.5 -217zM341 892h20q-2 -39 23 -65t67 -26t73.5 25t46.5 66h20q-12 -49 -50.5 -80t-88.5 -31q-51 0 -81 30t-30 81z" />
    <glyph glyph-name="obreve" unicode="&#x14f;" horiz-adv-x="519" 
d="M26 191q0 -86 45.5 -134.5t131.5 -48.5q78 0 136.5 48.5t85.5 117t27 141.5q0 90 -48 140.5t-130 50.5q-78 0 -136.5 -48.5t-85 -118.5t-26.5 -148zM6 191q0 135 72.5 235t195.5 100q92 0 145 -58t53 -153q0 -58 -18 -115t-50.5 -104.5t-85 -77t-115.5 -29.5
q-95 0 -146 53.5t-51 148.5zM193 690h20q-2 -39 23 -65t67 -26t73.5 25t46.5 66h20q-12 -49 -50.5 -80t-88.5 -31q-51 0 -81 30t-30 81z" />
    <glyph glyph-name="Ohungarumlaut" unicode="&#x150;" horiz-adv-x="722" 
d="M677 434q0 128 -69 202.5t-197 74.5q-111 0 -194.5 -65t-123.5 -161.5t-40 -204.5q0 -126 71 -201.5t195 -75.5q110 0 193.5 65t124 161.5t40.5 204.5zM697 434q0 -85 -25.5 -165t-72 -144t-119.5 -102.5t-161 -38.5q-136 0 -211 79.5t-75 216.5q0 85 25 165t71.5 144
t119.5 103t162 39q135 0 210.5 -80t75.5 -217zM482 781h-28l163 144h28zM322 781h-28l163 144h28z" />
    <glyph glyph-name="ohungarumlaut" unicode="&#x151;" horiz-adv-x="519" 
d="M26 191q0 -86 45.5 -134.5t131.5 -48.5q78 0 136.5 48.5t85.5 117t27 141.5q0 90 -48 140.5t-130 50.5q-78 0 -136.5 -48.5t-85 -118.5t-26.5 -148zM6 191q0 135 72.5 235t195.5 100q92 0 145 -58t53 -153q0 -58 -18 -115t-50.5 -104.5t-85 -77t-115.5 -29.5
q-95 0 -146 53.5t-51 148.5zM334 579h-28l163 144h28zM174 579h-28l163 144h28z" />
    <glyph glyph-name="OE" unicode="&#x152;" horiz-adv-x="981" 
d="M602 362l-73 -342h399l-4 -20h-420l17 77h-2q-76 -93 -205 -93q-134 0 -207.5 82t-73.5 216q0 181 97 308q109 141 277 141q160 0 227 -116l22 99h403l-4 -20h-383l-67 -312h355l-4 -20h-354zM629 588q-67 123 -222 123q-83 0 -151.5 -37.5t-112 -99t-67 -137.5
t-23.5 -155q0 -125 68.5 -202t192.5 -77q70 0 133.5 41t80.5 68z" />
    <glyph glyph-name="oe" unicode="&#x153;" horiz-adv-x="889" 
d="M441 253q-8 -40 -8 -75q0 -72 44 -121t127 -49q164 0 210 161h20q-22 -88 -80.5 -134t-149.5 -46q-47 0 -83.5 16t-55 35.5t-31 47.5t-15 41t-4.5 27h-2q-70 -167 -214 -167q-93 0 -143 53.5t-50 148.5q0 136 72.5 235.5t198.5 99.5q80 0 123.5 -55t41.5 -137l2 -2
q23 85 82.5 139.5t144.5 54.5q87 0 133 -56.5t46 -146.5q0 -35 -7 -70h-402zM826 273q4 25 4 50q0 79 -40 131t-119 52q-89 0 -147.5 -67t-78.5 -166h381zM426 319q0 83 -36 135t-113 52q-81 0 -139.5 -48.5t-85 -118t-26.5 -148.5q0 -87 44 -135t129 -48q110 0 175 110
q22 40 37 97.5t15 103.5z" />
    <glyph glyph-name="Racute" unicode="&#x154;" horiz-adv-x="593" 
d="M142 714h275q33 0 62.5 -7.5t58 -25t44.5 -52t15 -83.5q-2 -94 -59.5 -148.5t-148.5 -56.5v-2q109 -17 108 -148l-4 -116q0 -45 10 -75h-20q-11 31 -11 76q2 73 5 115q1 43 -13 73.5t-38 44.5t-48 20t-50 6h-245l-70 -335h-19zM89 355h239q30 0 57 2.5t64 14t63 31
t45 56.5t20 87q1 47 -15 78.5t-44.5 45.5t-53.5 19t-54 5h-250zM329 764h-28l163 144h28z" />
    <glyph glyph-name="racute" unicode="&#x155;" horiz-adv-x="259" 
d="M-22 0l108 514h22l-14 -66l-15 -63l2 -2q70 139 187 139q28 0 41 -4l-4 -20q-9 4 -36 4q-44 0 -84.5 -27.5t-62 -56.5t-34.5 -57q-20 -43 -35 -103l-54 -258h-21zM157 575h-28l163 144h28z" />
    <glyph glyph-name="Rcommaaccent" unicode="&#x156;" horiz-adv-x="593" 
d="M142 714h275q33 0 62.5 -7.5t58 -25t44.5 -52t15 -83.5q-2 -94 -59.5 -148.5t-148.5 -56.5v-2q109 -17 108 -148l-4 -116q0 -45 10 -75h-20q-11 31 -11 76q2 73 5 115q1 43 -13 73.5t-38 44.5t-48 20t-50 6h-245l-70 -335h-19zM89 355h239q30 0 57 2.5t64 14t63 31
t45 56.5t20 87q1 47 -15 78.5t-44.5 45.5t-53.5 19t-54 5h-250zM266 0l-29 -131q-20 -74 -74 -94l4 26q24 13 34.5 31.5t16.5 46.5l27 121h21z" />
    <glyph glyph-name="rcommaaccent" unicode="&#x157;" horiz-adv-x="259" 
d="M-22 0l108 514h22l-14 -66l-15 -63l2 -2q70 139 187 139q28 0 41 -4l-4 -20q-9 4 -36 4q-44 0 -84.5 -27.5t-62 -56.5t-34.5 -57q-20 -43 -35 -103l-54 -258h-21zM-14 -100l-29 -131q-20 -74 -74 -94l4 26q24 13 34.5 31.5t16.5 46.5l27 121h21z" />
    <glyph glyph-name="Rcaron" unicode="&#x158;" horiz-adv-x="593" 
d="M142 714h275q33 0 62.5 -7.5t58 -25t44.5 -52t15 -83.5q-2 -94 -59.5 -148.5t-148.5 -56.5v-2q109 -17 108 -148l-4 -116q0 -45 10 -75h-20q-11 31 -11 76q2 73 5 115q1 43 -13 73.5t-38 44.5t-48 20t-50 6h-245l-70 -335h-19zM89 355h239q30 0 57 2.5t64 14t63 31
t45 56.5t20 87q1 47 -15 78.5t-44.5 45.5t-53.5 19t-54 5h-250zM359 764l-91 144h24l82 -130l124 130h26l-135 -144h-30z" />
    <glyph glyph-name="rcaron" unicode="&#x159;" horiz-adv-x="259" 
d="M-22 0l108 514h22l-14 -66l-15 -63l2 -2q70 139 187 139q28 0 41 -4l-4 -20q-9 4 -36 4q-44 0 -84.5 -27.5t-62 -56.5t-34.5 -57q-20 -43 -35 -103l-54 -258h-21zM187 575l-91 144h24l82 -130l124 130h26l-135 -144h-30z" />
    <glyph glyph-name="Sacute" unicode="&#x15a;" horiz-adv-x="611" 
d="M-3 237h20q-12 -109 58.5 -171.5t189.5 -62.5q22 0 45.5 3.5t51 10.5t51 21.5t43 34.5t31 50.5t11.5 68.5q0 49 -30 82.5t-74.5 48.5t-96.5 31.5t-96.5 33t-74.5 53t-30 90.5q2 99 72.5 149.5t172.5 50.5q118 0 184 -53.5t58 -167.5h-20q8 105 -53 153t-169 48
q-58 0 -106.5 -17.5t-83 -59.5t-35.5 -103q-1 -42 20.5 -72t57 -46.5t78.5 -29.5t86.5 -26.5t79 -32t58 -52t22.5 -80.5q0 -59 -25 -102t-65 -65t-80.5 -31.5t-82.5 -9.5q-127 0 -203 64.5t-65 188.5zM348 751h-28l163 144h28z" />
    <glyph glyph-name="sacute" unicode="&#x15b;" horiz-adv-x="463" 
d="M412 360h-20q9 74 -31.5 110t-118.5 36q-61 0 -108 -28.5t-47 -88.5q0 -56 61 -87q12 -6 58 -25q9 -3 35.5 -12.5t39 -14.5t33.5 -17t31 -24t18.5 -31t8.5 -43q0 -76 -54 -111t-135 -35q-186 0 -186 147q0 6 1 19t1 19h20q-22 -166 164 -166q70 0 119.5 31t49.5 96
q0 15 -3 27.5t-12 23t-15 17t-21.5 14.5t-22 11t-26 11t-24.5 10q-9 3 -35 12.5t-38 14.5t-32.5 17t-30 23.5t-17.5 30.5t-8 42q0 67 51.5 102t123.5 35q187 0 170 -166zM234 587h-28l163 144h28z" />
    <glyph glyph-name="Scircumflex" unicode="&#x15c;" horiz-adv-x="611" 
d="M27 237q-12 -109 58.5 -171.5t189.5 -62.5q22 0 45.5 3.5t51 10.5t51 21.5t43 34.5t31 50.5t11.5 68.5q0 49 -30 82.5t-74.5 48.5t-96.5 31.5t-96.5 33t-74.5 53t-30 90.5q2 99 72.5 149.5t172.5 50.5q118 0 184 -53.5t58 -167.5h-20q8 105 -53 153t-169 48
q-58 0 -106.5 -17.5t-83 -59.5t-35.5 -103q-1 -42 20.5 -72t57 -46.5t78.5 -29.5t86.5 -26.5t79 -32t58 -52t22.5 -80.5q0 -59 -25 -102t-65 -65t-80.5 -31.5t-82.5 -9.5q-127 0 -203 64.5t-65 188.5h20zM531 781h-24l-82 130l-124 -130h-26l135 144h30z" />
    <glyph glyph-name="scircumflex" unicode="&#x15d;" horiz-adv-x="463" 
d="M392 360q9 74 -31.5 110t-118.5 36q-61 0 -108 -28.5t-47 -88.5q0 -56 61 -87q12 -6 58 -25q9 -3 35.5 -12.5t39 -14.5t33.5 -17t31 -24t18.5 -31t8.5 -43q0 -76 -54 -111t-135 -35q-186 0 -186 147q0 6 1 19t1 19h20q-22 -166 164 -166q70 0 119.5 31t49.5 96
q0 15 -3 27.5t-12 23t-15 17t-21.5 14.5t-22 11t-26 11t-24.5 10q-9 3 -35 12.5t-38 14.5t-32.5 17t-30 23.5t-17.5 30.5t-8 42q0 67 51.5 102t123.5 35q187 0 170 -166h-20zM417 579h-24l-82 130l-124 -130h-26l135 144h30z" />
    <glyph glyph-name="Scedilla" unicode="&#x15e;" horiz-adv-x="611" 
d="M27 237q-12 -109 58.5 -171.5t189.5 -62.5q22 0 45.5 3.5t51 10.5t51 21.5t43 34.5t31 50.5t11.5 68.5q0 49 -30 82.5t-74.5 48.5t-96.5 31.5t-96.5 33t-74.5 53t-30 90.5q2 99 72.5 149.5t172.5 50.5q118 0 184 -53.5t58 -167.5h-20q8 105 -53 153t-169 48
q-58 0 -106.5 -17.5t-83 -59.5t-35.5 -103q-1 -42 20.5 -72t57 -46.5t78.5 -29.5t86.5 -26.5t79 -32t58 -52t22.5 -80.5q0 -59 -25 -102t-65 -65t-80.5 -31.5t-82.5 -9.5q-127 0 -203 64.5t-65 188.5h20zM119 -155l-8 -19q49 -22 87 -22q37 0 65 18.5t28 54.5q0 30 -20.5 46
t-52.5 16q-14 0 -21 -4l-2 2l12 9l40 41h-26l-72 -72l15 -9q39 13 54 13q21 0 37 -10.5t16 -31.5q0 -25 -23 -39t-49 -14q-40 0 -80 21z" />
    <glyph glyph-name="scedilla" unicode="&#x15f;" horiz-adv-x="463" 
d="M392 360q9 74 -31.5 110t-118.5 36q-61 0 -108 -28.5t-47 -88.5q0 -56 61 -87q12 -6 58 -25q9 -3 35.5 -12.5t39 -14.5t33.5 -17t31 -24t18.5 -31t8.5 -43q0 -76 -54 -111t-135 -35q-186 0 -186 147q0 6 1 19t1 19h20q-22 -166 164 -166q70 0 119.5 31t49.5 96
q0 15 -3 27.5t-12 23t-15 17t-21.5 14.5t-22 11t-26 11t-24.5 10q-9 3 -35 12.5t-38 14.5t-32.5 17t-30 23.5t-17.5 30.5t-8 42q0 67 51.5 102t123.5 35q187 0 170 -166h-20zM49 -150l-8 -19q50 -22 87 -22t65 18.5t28 54.5q0 30 -20.5 46t-52.5 16q-14 0 -21 -4l-2 2l12 9
l40 41h-26l-72 -72l15 -9q39 13 54 13q21 0 37 -10.5t16 -31.5q0 -25 -23 -39t-49 -14q-40 0 -80 21z" />
    <glyph glyph-name="Scaron" unicode="&#x160;" horiz-adv-x="611" 
d="M357 751l-91 144h24l82 -130l124 130h26l-135 -144h-30zM27 237q-12 -109 58.5 -171.5t189.5 -62.5q22 0 45.5 3.5t51 10.5t51 21.5t43 34.5t31 50.5t11.5 68.5q0 49 -30 82.5t-74.5 48.5t-96.5 31.5t-96.5 33t-74.5 53t-30 90.5q2 99 72.5 149.5t172.5 50.5
q118 0 184 -53.5t58 -167.5h-20q8 105 -53 153t-169 48q-58 0 -106.5 -17.5t-83 -59.5t-35.5 -103q-1 -42 20.5 -72t57 -46.5t78.5 -29.5t86.5 -26.5t79 -32t58 -52t22.5 -80.5q0 -59 -25 -102t-65 -65t-80.5 -31.5t-82.5 -9.5q-127 0 -203 64.5t-65 188.5h20z" />
    <glyph glyph-name="scaron" unicode="&#x161;" horiz-adv-x="463" 
d="M283 587l-91 144h24l82 -130l124 130h26l-135 -144h-30zM392 360q9 74 -31.5 110t-118.5 36q-61 0 -108 -28.5t-47 -88.5q0 -56 61 -87q12 -6 58 -25q9 -3 35.5 -12.5t39 -14.5t33.5 -17t31 -24t18.5 -31t8.5 -43q0 -76 -54 -111t-135 -35q-186 0 -186 147q0 6 1 19t1 19
h20q-22 -166 164 -166q70 0 119.5 31t49.5 96q0 15 -3 27.5t-12 23t-15 17t-21.5 14.5t-22 11t-26 11t-24.5 10q-9 3 -35 12.5t-38 14.5t-32.5 17t-30 23.5t-17.5 30.5t-8 42q0 67 51.5 102t123.5 35q187 0 170 -166h-20z" />
    <glyph glyph-name="Tcedilla" unicode="&#x162;" 
d="M60 694l4 20h537l-4 -20h-258l-148 -694h-21l148 694h-258zM154 -142l-8 -19q50 -22 87 -22t65 18.5t28 54.5q0 30 -20.5 46t-52.5 16q-14 0 -21 -4l-2 2l12 9l40 41h-26l-72 -72l15 -9q39 13 54 13q21 0 37 -10.5t16 -31.5q0 -25 -23 -39t-49 -14q-40 0 -80 21z" />
    <glyph glyph-name="tcedilla" unicode="&#x163;" horiz-adv-x="241" 
d="M156 676h21l-34 -162h112l-4 -20h-112l-80 -375q-9 -44 -10 -59q0 -13 5 -22.5t9.5 -13.5t18 -6t17 -2h19.5q33 0 48 4l-4 -20q-2 0 -23 -1.5t-32 -1.5q-78 0 -78 57q0 6 8 59l81 381h-97l4 20h97zM-35 -142l-8 -19q49 -22 87 -22q37 0 65 18.5t28 54.5q0 30 -20.5 46
t-52.5 16q-14 0 -21 -4l-2 2l12 9l40 41h-26l-72 -72l15 -9q39 13 54 13q21 0 37 -10.5t16 -31.5q0 -25 -23 -39t-49 -14q-40 0 -80 21z" />
    <glyph glyph-name="Tcaron" unicode="&#x164;" 
d="M60 694l4 20h537l-4 -20h-258l-148 -694h-21l148 694h-258zM394 764l-91 144h24l82 -130l124 130h26l-135 -144h-30z" />
    <glyph glyph-name="tcaron" unicode="&#x165;" horiz-adv-x="408" 
d="M156 676h21l-34 -162h112l-4 -20h-112l-80 -375q-9 -44 -10 -59q0 -13 5 -22.5t9.5 -13.5t18 -6t17 -2h19.5q33 0 48 4l-4 -20q-2 0 -23 -1.5t-32 -1.5q-78 0 -78 57q0 6 8 59l81 381h-97l4 20h97zM417 714l-29 -131q-20 -74 -74 -94l4 26q24 13 34.5 31.5t16.5 46.5
l27 121h21z" />
    <glyph glyph-name="Tbar" unicode="&#x166;" 
d="M127 491h148l43 203h-258l4 20h537l-4 -20h-258l-44 -203h142l-4 -20h-142l-100 -471h-21l100 471h-147z" />
    <glyph glyph-name="tbar" unicode="&#x167;" horiz-adv-x="241" 
d="M-3 385h98l23 109h-97l4 20h97l34 162h21l-34 -162h112l-4 -20h-112l-24 -109h112l-4 -20h-112l-52 -246q-9 -44 -10 -59q0 -13 5 -22.5t9.5 -13.5t18 -6t17 -2h19.5q33 0 48 4l-4 -20q-2 0 -23 -1.5t-32 -1.5q-78 0 -78 57q0 6 8 59l53 252h-97z" />
    <glyph glyph-name="Utilde" unicode="&#x168;" horiz-adv-x="648" 
d="M161 714l-99 -456q-7 -51 -7 -73q0 -88 60.5 -136t154.5 -46q32 0 57.5 3t62.5 17.5t64.5 39t53.5 72t40 112.5l102 467h21l-100 -461q-8 -33 -15.5 -56.5t-22 -58t-36.5 -59t-52 -48t-75 -35.5t-100 -12q-102 0 -168.5 50.5t-66.5 150.5q0 41 11 99l94 430h21zM568 841
h19q-7 -31 -26 -54t-49 -23q-25 0 -65 30.5t-64 30.5q-33 0 -53 -60h-20q7 34 26.5 57t52.5 23q24 0 63 -30.5t65 -30.5q30 0 51 57z" />
    <glyph glyph-name="utilde" unicode="&#x169;" 
d="M368 0h-21l13 64l13 58l-2 2q-37 -67 -86.5 -101t-121.5 -34q-69 0 -110 36t-41 103q0 16 12 81l64 305h21l-65 -310q-12 -60 -12 -76q1 -58 36.5 -89t94.5 -31q54 0 97.5 23t72 64t46 85t28.5 97l50 237h22zM440 644h19q-7 -31 -26 -54t-49 -23q-25 0 -65 30.5t-64 30.5
q-33 0 -53 -60h-20q7 34 26.5 57t52.5 23q24 0 63 -30.5t65 -30.5q30 0 51 57z" />
    <glyph glyph-name="Umacron" unicode="&#x16a;" horiz-adv-x="648" 
d="M161 714l-99 -456q-7 -51 -7 -73q0 -88 60.5 -136t154.5 -46q32 0 57.5 3t62.5 17.5t64.5 39t53.5 72t40 112.5l102 467h21l-100 -461q-8 -33 -15.5 -56.5t-22 -58t-36.5 -59t-52 -48t-75 -35.5t-100 -12q-102 0 -168.5 50.5t-66.5 150.5q0 41 11 99l94 430h21zM560 784
l-5 -20h-232l4 20h233z" />
    <glyph glyph-name="umacron" unicode="&#x16b;" 
d="M368 0h-21l13 64l13 58l-2 2q-37 -67 -86.5 -101t-121.5 -34q-69 0 -110 36t-41 103q0 16 12 81l64 305h21l-65 -310q-12 -60 -12 -76q1 -58 36.5 -89t94.5 -31q54 0 97.5 23t72 64t46 85t28.5 97l50 237h22zM432 587l-5 -20h-232l4 20h233z" />
    <glyph glyph-name="Ubreve" unicode="&#x16c;" horiz-adv-x="648" 
d="M161 714l-99 -456q-7 -51 -7 -73q0 -88 60.5 -136t154.5 -46q32 0 57.5 3t62.5 17.5t64.5 39t53.5 72t40 112.5l102 467h21l-100 -461q-8 -33 -15.5 -56.5t-22 -58t-36.5 -59t-52 -48t-75 -35.5t-100 -12q-102 0 -168.5 50.5t-66.5 150.5q0 41 11 99l94 430h21zM327 875
h20q-2 -39 23 -65t67 -26t73.5 25t46.5 66h20q-12 -49 -50.5 -80t-88.5 -31q-51 0 -81 30t-30 81z" />
    <glyph glyph-name="ubreve" unicode="&#x16d;" 
d="M368 0h-21l13 64l13 58l-2 2q-37 -67 -86.5 -101t-121.5 -34q-69 0 -110 36t-41 103q0 16 12 81l64 305h21l-65 -310q-12 -60 -12 -76q1 -58 36.5 -89t94.5 -31q54 0 97.5 23t72 64t46 85t28.5 97l50 237h22zM199 678h20q-2 -39 23 -65t67 -26t73.5 25t46.5 66h20
q-12 -49 -50.5 -80t-88.5 -31q-51 0 -81 30t-30 81z" />
    <glyph glyph-name="Uring" unicode="&#x16e;" horiz-adv-x="648" 
d="M161 714l-99 -456q-7 -51 -7 -73q0 -88 60.5 -136t154.5 -46q32 0 57.5 3t62.5 17.5t64.5 39t53.5 72t40 112.5l102 467h21l-100 -461q-8 -33 -15.5 -56.5t-22 -58t-36.5 -59t-52 -48t-75 -35.5t-100 -12q-102 0 -168.5 50.5t-66.5 150.5q0 41 11 99l94 430h21zM384 860
q0 -32 22 -54t54 -22t54 22t22 54t-22 54t-54 22t-54 -22t-22 -54zM364 860q0 40 28 68t68 28t68 -28t28 -68t-28 -68t-68 -28t-68 28t-28 68z" />
    <glyph glyph-name="uring" unicode="&#x16f;" 
d="M368 0h-21l13 64l13 58l-2 2q-37 -67 -86.5 -101t-121.5 -34q-69 0 -110 36t-41 103q0 16 12 81l64 305h21l-65 -310q-12 -60 -12 -76q1 -58 36.5 -89t94.5 -31q54 0 97.5 23t72 64t46 85t28.5 97l50 237h22zM256 663q0 -32 22 -54t54 -22t54 22t22 54t-22 54t-54 22
t-54 -22t-22 -54zM236 663q0 40 28 68t68 28t68 -28t28 -68t-28 -68t-68 -28t-68 28t-28 68z" />
    <glyph glyph-name="Uhungarumlaut" unicode="&#x170;" horiz-adv-x="648" 
d="M161 714l-99 -456q-7 -51 -7 -73q0 -88 60.5 -136t154.5 -46q32 0 57.5 3t62.5 17.5t64.5 39t53.5 72t40 112.5l102 467h21l-100 -461q-8 -33 -15.5 -56.5t-22 -58t-36.5 -59t-52 -48t-75 -35.5t-100 -12q-102 0 -168.5 50.5t-66.5 150.5q0 41 11 99l94 430h21zM468 764
h-28l163 144h28zM308 764h-28l163 144h28z" />
    <glyph glyph-name="uhungarumlaut" unicode="&#x171;" 
d="M368 0h-21l13 64l13 58l-2 2q-37 -67 -86.5 -101t-121.5 -34q-69 0 -110 36t-41 103q0 16 12 81l64 305h21l-65 -310q-12 -60 -12 -76q1 -58 36.5 -89t94.5 -31q54 0 97.5 23t72 64t46 85t28.5 97l50 237h22zM340 567h-28l163 144h28zM180 567h-28l163 144h28z" />
    <glyph glyph-name="Uogonek" unicode="&#x172;" horiz-adv-x="648" 
d="M161 714l-99 -456q-7 -51 -7 -73q0 -88 60.5 -136t154.5 -46q32 0 57.5 3t62.5 17.5t64.5 39t53.5 72t40 112.5l102 467h21l-100 -461q-8 -33 -15.5 -56.5t-22 -58t-36.5 -59t-52 -48t-75 -35.5t-100 -12q-102 0 -168.5 50.5t-66.5 150.5q0 41 11 99l94 430h21zM317 -13
h-30q-63 -44 -82 -70q-23 -30 -23 -60q0 -58 58 -58q51 0 91 46l-13 12q-35 -40 -78 -40q-19 0 -28 12t-9 28q0 32 27.5 62.5t86.5 67.5z" />
    <glyph glyph-name="uogonek" unicode="&#x173;" 
d="M368 0h-21l13 64l13 58l-2 2q-37 -67 -86.5 -101t-121.5 -34q-69 0 -110 36t-41 103q0 16 12 81l64 305h21l-65 -310q-12 -60 -12 -76q1 -58 36.5 -89t94.5 -31q54 0 97.5 23t72 64t46 85t28.5 97l50 237h22zM231 -8h-30q-63 -44 -82 -70q-23 -30 -23 -60q0 -58 58 -58
q51 0 91 46l-13 12q-35 -40 -78 -40q-19 0 -28 12t-9 28q0 32 27.5 62.5t86.5 67.5z" />
    <glyph glyph-name="Wcircumflex" unicode="&#x174;" horiz-adv-x="889" 
d="M139 0l-65 714h20l62 -688h2l347 688h32l62 -688h2l347 688h23l-363 -714h-26l-63 696h-2l-352 -696h-26zM751 764h-24l-82 130l-124 -130h-26l135 144h30z" />
    <glyph glyph-name="wcircumflex" unicode="&#x175;" horiz-adv-x="685" 
d="M448 0h-30l-56 494h-2l-262 -494h-30l-59 514h21l55 -494h2l262 494h30l56 -494h2l261 494h23zM573 567h-24l-82 130l-124 -130h-26l135 144h30z" />
    <glyph glyph-name="Ycircumflex" unicode="&#x176;" horiz-adv-x="519" 
d="M253 322l349 392h25l-366 -411l-65 -303h-21l65 303l-194 411h23zM565 764h-24l-82 130l-124 -130h-26l135 144h30z" />
    <glyph glyph-name="ycircumflex" unicode="&#x177;" horiz-adv-x="407" 
d="M138 26l281 488h25l-337 -582q-39 -63 -58 -79q-31 -26 -81 -28q-3 -1 -8 -1h-9h-17l3 20q56 -2 82 13.5t58 65.5l44 77l-100 514h22zM416 567h-24l-82 130l-124 -130h-26l135 144h30z" />
    <glyph glyph-name="Ydieresis" unicode="&#x178;" horiz-adv-x="519" 
d="M294 835l-13 -81h-21l13 81h21zM452 835l-13 -81h-21l13 81h21zM253 322l349 392h25l-366 -411l-65 -303h-21l65 303l-194 411h23z" />
    <glyph glyph-name="Zacute" unicode="&#x179;" 
d="M457 20l-3 -20h-532l4 24l626 670h-475l5 20h497l-4 -24l-626 -670h508zM302 751h-28l163 144h28z" />
    <glyph glyph-name="zacute" unicode="&#x17a;" horiz-adv-x="407" 
d="M331 20l-5 -20h-390l6 27l469 467h-355l4 20h384l-6 -23l-473 -471h366zM216 587h-28l163 144h28z" />
    <glyph glyph-name="Zdotaccent" unicode="&#x17b;" 
d="M457 20l-3 -20h-532l4 24l626 670h-475l5 20h497l-4 -24l-626 -670h508zM347 835l-13 -81h-21l13 81h21z" />
    <glyph glyph-name="zdotaccent" unicode="&#x17c;" horiz-adv-x="407" 
d="M331 20l-5 -20h-390l6 27l469 467h-355l4 20h384l-6 -23l-473 -471h366zM270 671l-13 -81h-21l13 81h21z" />
    <glyph glyph-name="Zcaron" unicode="&#x17d;" 
d="M319 751l-91 144h24l82 -130l124 130h26l-135 -144h-30zM457 20l-3 -20h-532l4 24l626 670h-475l5 20h497l-4 -24l-626 -670h508z" />
    <glyph glyph-name="zcaron" unicode="&#x17e;" horiz-adv-x="407" 
d="M255 587l-91 144h24l82 -130l124 130h26l-135 -144h-30zM331 20l-5 -20h-390l6 27l469 467h-355l4 20h384l-6 -23l-473 -471h366z" />
    <glyph glyph-name="longs" unicode="&#x17f;" horiz-adv-x="204" 
d="M114 514l12 45q0 2 4 20.5t5.5 25.5t7.5 25t11 26.5t15 21.5t21.5 19.5t28 11.5t35.5 5q8 0 24.5 -0.5t26.5 -0.5l-4 -20q-3 1 -11 1h-11h-25q-26 0 -45 -9t-29 -26t-16 -32.5t-11 -37t-9 -30.5l-123 -559h-21l109 494h-90l5 20h90z" />
    <glyph glyph-name="uni018E" unicode="&#x18e;" horiz-adv-x="519" 
d="M122 694l5 20h469l-152 -714h-453l4 20h433l67 312h-404l4 20h405l73 342h-451z" />
    <glyph glyph-name="uni018F" unicode="&#x18f;" horiz-adv-x="722" 
d="M672 362h-613q-6 -40 -6 -82q0 -126 71 -201.5t195 -75.5q74 0 137 30t106.5 80.5t71.5 114t38 134.5zM42 382h632q3 27 3 56q0 122 -71 198t-186 76q-106 0 -183.5 -50.5t-120.5 -144.5h-22q41 98 126 156t200 58q127 0 202 -80t75 -214q0 -85 -25.5 -165t-72 -144
t-119.5 -102.5t-161 -38.5q-136 0 -211 79.5t-75 216.5q0 53 9 99z" />
    <glyph glyph-name="florin" unicode="&#x192;" horiz-adv-x="556" 
d="M273 411l-92 -360q-30 -119 -50 -156q-40 -70 -118 -71h-21q-6 0 -24 2l6 20q21 -4 40 -2q19 1 35 7.5t27 12.5t22 22t16.5 24.5t14 32.5t11 33t11 39t10.5 39l91 357h-115l6 20h114l44 174q20 74 51 100t100 26q22 0 48 -2l-6 -20q-6 0 -19.5 1t-22.5 1q-59 0 -87.5 -25
t-44.5 -88l-42 -167h124l-6 -20h-123z" />
    <glyph glyph-name="Ohorn" unicode="&#x1a0;" horiz-adv-x="803" 
d="M677 434q0 128 -69 202.5t-197 74.5q-111 0 -194.5 -65t-123.5 -161.5t-40 -204.5q0 -126 71 -201.5t195 -75.5q110 0 193.5 65t124 161.5t40.5 204.5zM697 434q0 -85 -25.5 -165t-72 -144t-119.5 -102.5t-161 -38.5q-136 0 -211 79.5t-75 216.5q0 85 25 165t71.5 144
t119.5 103t162 39q135 0 210.5 -80t75.5 -217zM776 714v-98q0 -44 -35 -73q-38 -31 -59 -45l-4 24q21 11 47 31q31 22 31 63v98h20z" />
    <glyph glyph-name="ohorn" unicode="&#x1a1;" horiz-adv-x="519" 
d="M26 191q0 -86 45.5 -134.5t131.5 -48.5q78 0 136.5 48.5t85.5 117t27 141.5q0 90 -48 140.5t-130 50.5q-78 0 -136.5 -48.5t-85 -118.5t-26.5 -148zM6 191q0 135 72.5 235t195.5 100q92 0 145 -58t53 -153q0 -58 -18 -115t-50.5 -104.5t-85 -77t-115.5 -29.5
q-95 0 -146 53.5t-51 148.5zM561 514v-98q0 -44 -35 -73q-38 -31 -59 -45l-4 24q21 11 47 31q31 22 31 63v98h20z" />
    <glyph glyph-name="uni01A2" unicode="&#x1a2;" horiz-adv-x="651" 
d="M475 -176l185 870l-86 -11l-144 -681q-51 -18 -111 -18q-141 0 -213.5 82.5t-72.5 213.5q0 121 44.5 222.5t132 165t201.5 63.5q83 0 147 -33l126 16l-189 -890h-20zM319 3q59 0 94 13l140 663q-1 1 -15.5 7t-19.5 7.5t-19.5 6t-25 6.5t-27.5 3.5t-35 1.5
q-156 0 -257 -125t-101 -306q0 -122 69.5 -199.5t196.5 -77.5z" />
    <glyph glyph-name="uni01A3" unicode="&#x1a3;" horiz-adv-x="495" 
d="M314 -176l143 670l-67 -7l-103 -483q-34 -15 -84 -15q-95 0 -146 53.5t-51 148.5q0 135 72.5 235t195.5 100q50 0 99 -22l108 10l-147 -690h-20zM203 8q29 0 67 10l99 465q-40 23 -95 23q-78 0 -136.5 -48.5t-85 -118.5t-26.5 -148q0 -86 45.5 -134.5t131.5 -48.5z" />
    <glyph glyph-name="uni01A7" unicode="&#x1a7;" horiz-adv-x="611" 
d="M176 514h-20q58 217 298 217q46 0 85 -9.5t71 -29.5t45.5 -57t3.5 -88q-8 -38 -27.5 -67.5t-42.5 -47t-58.5 -32t-63 -21.5t-69.5 -16q-4 -1 -6.5 -1.5t-6 -1t-6.5 -1.5q-14 -3 -44 -9.5t-46.5 -10.5t-43.5 -12t-43.5 -16t-37.5 -21t-33.5 -28.5t-24 -37.5t-16.5 -48
q-13 -59 14 -99.5t74 -57t107 -16.5q258 0 309 234h20q-27 -130 -115 -191.5t-218 -61.5q-65 0 -116 18.5t-80 63.5t-15 109q9 40 28.5 70t35 47t58 34t58.5 21.5t75 18.5q20 5 31 8t41.5 9.5t43 9.5t38.5 10t39 13t33 15.5t31 20t24 24.5t21 32t12 39q10 46 -3.5 79.5
t-44 51t-66 25.5t-75.5 8q-227 0 -274 -197z" />
    <glyph glyph-name="uni01A8" unicode="&#x1a8;" horiz-adv-x="463" 
d="M140 362h-20q36 164 221 164q88 0 122.5 -39t24.5 -90q-9 -42 -29 -67t-56 -39q-39 -16 -122 -35q-101 -23 -133 -39q-59 -29 -71 -88q-13 -61 31 -91t109 -30q188 0 224 168h20q-41 -187 -248 -187q-76 0 -123.5 35t-32.5 107q6 28 21.5 50t30 34.5t45.5 24.5t45.5 16
t52.5 13q120 31 140 38q62 25 76 90q-1 6 1.5 18.5t-4.5 28t-18.5 29.5t-40 23.5t-69.5 9.5q-163 0 -197 -144z" />
    <glyph glyph-name="Uhorn" unicode="&#x1af;" horiz-adv-x="648" 
d="M796 714l-30 -98q0 -44 -60 -73q-52 -25 -82 -44l-53 -246q-8 -33 -15.5 -56.5t-22 -58t-36.5 -59t-52 -48t-75 -35.5t-100 -12q-102 0 -168.5 50.5t-66.5 150.5q0 41 11 99l94 430h21l-99 -456q-7 -51 -7 -73q0 -88 60.5 -136t154.5 -46q32 0 57.5 3t62.5 17.5t64.5 39
t53.5 72t40 112.5l102 467h21l-40 -186l59 25q56 23 56 63l30 98h20z" />
    <glyph glyph-name="uhorn" unicode="&#x1b0;" 
d="M368 0h-21l13 64l13 58l-2 2q-37 -67 -86.5 -101t-121.5 -34q-69 0 -110 36t-41 103q0 16 12 81l64 305h21l-65 -310l-8 -38q-4 -17 -4 -38q1 -58 36.5 -89t94.5 -31q54 0 97.5 23t72 64t46 85t28.5 97l50 237h22l-40 -185l57 24q56 23 56 63l30 98h20l-30 -98
q0 -44 -60 -73q-52 -25 -79 -42z" />
    <glyph glyph-name="uni01B5" unicode="&#x1b5;" 
d="M-78 0l4 24l316 338h-184l5 20h197l292 312h-475l5 20h497l-4 -24l-288 -308h189l-5 -20h-203l-319 -342h508l-3 -20h-532z" />
    <glyph glyph-name="uni01B6" unicode="&#x1b6;" horiz-adv-x="407" 
d="M-64 0l6 27l235 234h-129l4 20h145l214 213h-355l4 20h384l-6 -23l-211 -210h132l-4 -20h-148l-242 -241h366l-5 -20h-390z" />
    <glyph glyph-name="clickdental" unicode="&#x1c0;" horiz-adv-x="222" 
d="M101 -213v999h20v-999h-20z" />
    <glyph glyph-name="clicklateral" unicode="&#x1c1;" horiz-adv-x="444" 
d="M101 -213v999h20v-999h-20zM323 -213v999h20v-999h-20z" />
    <glyph glyph-name="clickretroflex" unicode="&#x1c3;" horiz-adv-x="185" 
d="M163 714h21l-118 -532h-21zM28 98h21l-22 -98h-21z" />
    <glyph glyph-name="DZcaron" unicode="&#x1c4;" horiz-adv-x="1167" 
d="M150 714h150q39 0 62 -1t62.5 -6.5t64.5 -15.5t55 -30.5t47.5 -49.5t29.5 -74.5t12 -102.5q0 -85 -29 -173t-81 -146q-63 -70 -133.5 -92.5t-175.5 -22.5h-220zM18 20h196q105 0 167 20t124 86q46 50 77 134t31 174q0 70 -18 119.5t-44 76.5t-71 42t-83.5 18.5t-96.5 3.5
h-134zM1124 20l-3 -20h-532l4 24l626 670h-475l5 20h497l-4 -24l-626 -670h508zM971 767l-91 144h24l82 -130l124 130h26l-135 -144h-30z" />
    <glyph glyph-name="Dzcaron" unicode="&#x1c5;" horiz-adv-x="1074" 
d="M150 714h150q39 0 62 -1t62.5 -6.5t64.5 -15.5t55 -30.5t47.5 -49.5t29.5 -74.5t12 -102.5q0 -85 -29 -173t-81 -146q-63 -70 -133.5 -92.5t-175.5 -22.5h-220zM18 20h196q105 0 167 20t124 86q46 50 77 134t31 174q0 70 -18 119.5t-44 76.5t-71 42t-83.5 18.5t-96.5 3.5
h-134zM998 20l-5 -20h-390l6 27l469 467h-355l4 20h384l-6 -23l-473 -471h366zM912 568l-91 144h24l82 -130l124 130h26l-135 -144h-30z" />
    <glyph glyph-name="dzcaron" unicode="&#x1c6;" horiz-adv-x="944" 
d="M392 76l16 63l-2 2q-67 -152 -216 -152q-89 0 -136.5 51.5t-47.5 142.5q0 57 18.5 116.5t52 110.5t86 83.5t114.5 32.5q80 0 128.5 -43t48.5 -119h2l12 65l62 285h21l-154 -714h-21zM440 336q0 80 -41.5 125t-121.5 45q-59 0 -108 -30.5t-79.5 -78.5t-47 -104t-16.5 -110
q0 -79 42 -127t121 -48q78 0 136.5 53t85.5 126t29 149zM868 20l-5 -20h-390l6 27l469 467h-355l4 20h384l-6 -23l-473 -471h366zM782 568l-91 144h24l82 -130l124 130h26l-135 -144h-30z" />
    <glyph glyph-name="LJ" unicode="&#x1c7;" horiz-adv-x="944" 
d="M431 20l-5 -20h-432l152 714h21l-149 -694h413zM962 714l-113 -529q-9 -43 -21.5 -74.5t-35 -62.5t-60 -47.5t-88.5 -16.5q-91 0 -137 42.5t-46 117.5q0 46 9 76h19q-8 -45 -8 -76q0 -70 43 -105.5t120 -35.5q86 0 125.5 48.5t60.5 142.5l111 520h21z" />
    <glyph glyph-name="Lj" unicode="&#x1c8;" horiz-adv-x="611" 
d="M431 20l-5 -20h-432l152 714h21l-149 -694h413zM610 714h22l-23 -104h-22zM473 -42q-8 -34 -14 -52t-18.5 -40t-33.5 -32t-51 -10q-15 0 -41 2l3 18q3 -1 11 -1h10h9q5 0 8 -1q31 0 52 21t26.5 37t15.5 56q2 7 3 10l117 548h22z" />
    <glyph glyph-name="lj" unicode="&#x1c9;" horiz-adv-x="260" 
d="M-20 0l149 714h22l-150 -714h-21zM259 714h22l-23 -104h-22zM122 -42q-8 -34 -14 -52t-18.5 -40t-33.5 -32t-51 -10q-15 0 -41 2l3 18q3 -1 11 -1h10h9q5 0 8 -1q31 0 52 21t26.5 37t15.5 56l1.5 3t1 3t0.5 4l117 548h22z" />
    <glyph glyph-name="NJ" unicode="&#x1ca;" horiz-adv-x="1130" 
d="M505 0l-344 691h-2l-145 -691h-20l151 714h27l344 -691h2l146 691h21l-153 -714h-27zM1148 714l-113 -529q-9 -43 -21.5 -74.5t-35 -62.5t-60 -47.5t-88.5 -16.5q-91 0 -137 42.5t-46 117.5q0 46 9 76h19q-8 -45 -8 -76q0 -70 43 -105.5t120 -35.5q86 0 125.5 48.5
t60.5 142.5l111 520h21z" />
    <glyph glyph-name="Nj" unicode="&#x1cb;" horiz-adv-x="797" 
d="M505 0l-344 691h-2l-145 -691h-20l151 714h27l344 -691h2l146 691h21l-153 -714h-27zM796 714h22l-23 -104h-22zM659 -42q-8 -34 -14 -52t-18.5 -40t-33.5 -32t-51 -10q-15 0 -41 2l3 18q3 -1 11 -1h10h9q5 0 8 -1q31 0 52 21t26.5 37t15.5 56q2 7 3 10l117 548h22z" />
    <glyph glyph-name="nj" unicode="&#x1cc;" horiz-adv-x="630" 
d="M92 514h21l-13 -64l-13 -58l2 -2q76 136 208 136q69 0 110 -36.5t41 -103.5q0 -16 -12 -81l-64 -305h-21l65 310q12 60 12 76q-1 58 -36.5 89t-94.5 31q-54 0 -97.5 -23t-72 -64t-46 -85t-28.5 -97l-51 -237h-20zM629 714h22l-23 -104h-22zM492 -42q-8 -34 -14 -52
t-18.5 -40t-33.5 -32t-51 -10q-15 0 -41 2l3 18q3 -1 11 -1h10h9q5 0 8 -1q31 0 52 21t26.5 37t15.5 56q2 7 3 10l117 548h22z" />
    <glyph glyph-name="Acaron" unicode="&#x1cd;" horiz-adv-x="574" 
d="M458 235h-366l-146 -235h-22l446 714h20l132 -714h-20zM455 255l-79 431h-2l-269 -431h350zM382 764l-91 144h24l82 -130l124 130h26l-135 -144h-30z" />
    <glyph glyph-name="acaron" unicode="&#x1ce;" horiz-adv-x="481" 
d="M59 365q37 159 210 161q157 0 157 -128q0 -23 -8 -63l-59 -251q-4 -16 -4 -35q0 -33 31 -33q23 0 35 4v-20q-17 -3 -34 -3q-52 0 -52 52q0 14 10 56h-2q-36 -61 -86 -88.5t-124 -27.5q-66 0 -109 31t-43 95q0 50 18 84t51.5 51t70 24t83.5 7q54 2 75 2q61 0 94 24.5
t33 90.5q0 108 -137 108q-153 1 -190 -141h-20zM386 290l-2 2q-28 -30 -179 -30q-35 -2 -59.5 -5t-54 -12.5t-48 -24.5t-31 -42t-12.5 -63q0 -53 37.5 -80t95.5 -27q92 0 150.5 52t81.5 141zM283 580l-91 144h24l82 -130l124 130h26l-135 -144h-30z" />
    <glyph glyph-name="Icaron" unicode="&#x1cf;" horiz-adv-x="148" 
d="M-6 0l152 714h20l-153 -714h-19zM145 759l-91 144h24l82 -130l124 130h26l-135 -144h-30z" />
    <glyph glyph-name="icaron" unicode="&#x1d0;" horiz-adv-x="130" 
d="M1 0h-21l109 514h22zM105 568l-91 144h24l82 -130l124 130h26l-135 -144h-30z" />
    <glyph glyph-name="Ocaron" unicode="&#x1d1;" horiz-adv-x="722" 
d="M677 434q0 128 -69 202.5t-197 74.5q-111 0 -194.5 -65t-123.5 -161.5t-40 -204.5q0 -126 71 -201.5t195 -75.5q110 0 193.5 65t124 161.5t40.5 204.5zM697 434q0 -85 -25.5 -165t-72 -144t-119.5 -102.5t-161 -38.5q-136 0 -211 79.5t-75 216.5q0 85 25 165t71.5 144
t119.5 103t162 39q135 0 210.5 -80t75.5 -217zM446 787l-91 144h24l82 -130l124 130h26l-135 -144h-30z" />
    <glyph glyph-name="ocaron" unicode="&#x1d2;" horiz-adv-x="519" 
d="M26 191q0 -86 45.5 -134.5t131.5 -48.5q78 0 136.5 48.5t85.5 117t27 141.5q0 90 -48 140.5t-130 50.5q-78 0 -136.5 -48.5t-85 -118.5t-26.5 -148zM6 191q0 135 72.5 235t195.5 100q92 0 145 -58t53 -153q0 -58 -18 -115t-50.5 -104.5t-85 -77t-115.5 -29.5
q-95 0 -146 53.5t-51 148.5zM291 580l-91 144h24l82 -130l124 130h26l-135 -144h-30z" />
    <glyph glyph-name="Ucaron" unicode="&#x1d3;" horiz-adv-x="648" 
d="M161 714l-99 -456q-7 -51 -7 -73q0 -88 60.5 -136t154.5 -46q32 0 57.5 3t62.5 17.5t64.5 39t53.5 72t40 112.5l102 467h21l-100 -461q-8 -33 -15.5 -56.5t-22 -58t-36.5 -59t-52 -48t-75 -35.5t-100 -12q-102 0 -168.5 50.5t-66.5 150.5q0 41 11 99l94 430h21zM414 767
l-91 144h24l82 -130l124 130h26l-135 -144h-30z" />
    <glyph glyph-name="ucaron" unicode="&#x1d4;" 
d="M368 0h-21l13 64l13 58l-2 2q-37 -67 -86.5 -101t-121.5 -34q-69 0 -110 36t-41 103q0 16 12 81l64 305h21l-65 -310q-12 -60 -12 -76q1 -58 36.5 -89t94.5 -31q54 0 97.5 23t72 64t46 85t28.5 97l50 237h22zM267 568l-91 144h24l82 -130l124 130h26l-135 -144h-30z" />
    <glyph glyph-name="Udieresismacron" unicode="&#x1d5;" horiz-adv-x="648" 
d="M161 714l-99 -456q-7 -51 -7 -73q0 -88 60.5 -136t154.5 -46q32 0 57.5 3t62.5 17.5t64.5 39t53.5 72t40 112.5l102 467h21l-100 -461q-8 -33 -15.5 -56.5t-22 -58t-36.5 -59t-52 -48t-75 -35.5t-100 -12q-102 0 -168.5 50.5t-66.5 150.5q0 41 11 99l94 430h21zM348 839
l-13 -81h-21l13 81h21zM506 839l-13 -81h-21l13 81h21zM549 912l-5 -20h-232l4 20h233z" />
    <glyph glyph-name="udieresismacron" unicode="&#x1d6;" 
d="M368 0h-21l13 64l13 58l-2 2q-37 -67 -86.5 -101t-121.5 -34q-69 0 -110 36t-41 103q0 16 12 81l64 305h21l-65 -310q-12 -60 -12 -76q1 -58 36.5 -89t94.5 -31q54 0 97.5 23t72 64t46 85t28.5 97l50 237h22zM233 655l-13 -81h-21l13 81h21zM391 655l-13 -81h-21l13 81
h21zM434 715l-5 -20h-232l4 20h233z" />
    <glyph glyph-name="Udieresisacute" unicode="&#x1d7;" horiz-adv-x="648" 
d="M161 714l-99 -456q-7 -51 -7 -73q0 -88 60.5 -136t154.5 -46q32 0 57.5 3t62.5 17.5t64.5 39t53.5 72t40 112.5l102 467h21l-100 -461q-8 -33 -15.5 -56.5t-22 -58t-36.5 -59t-52 -48t-75 -35.5t-100 -12q-102 0 -168.5 50.5t-66.5 150.5q0 41 11 99l94 430h21zM353 845
l-13 -81h-21l13 81h21zM511 845l-13 -81h-21l13 81h21zM438 892h-28l163 144h28z" />
    <glyph glyph-name="udieresisacute" unicode="&#x1d8;" 
d="M368 0h-21l13 64l13 58l-2 2q-37 -67 -86.5 -101t-121.5 -34q-69 0 -110 36t-41 103q0 16 12 81l64 305h21l-65 -310q-12 -60 -12 -76q1 -58 36.5 -89t94.5 -31q54 0 97.5 23t72 64t46 85t28.5 97l50 237h22zM227 649l-13 -81h-21l13 81h21zM385 649l-13 -81h-21l13 81
h21zM307 692h-28l163 144h28z" />
    <glyph glyph-name="Udieresiscaron" unicode="&#x1d9;" horiz-adv-x="648" 
d="M161 714l-99 -456q-7 -51 -7 -73q0 -88 60.5 -136t154.5 -46q32 0 57.5 3t62.5 17.5t64.5 39t53.5 72t40 112.5l102 467h21l-100 -461q-8 -33 -15.5 -56.5t-22 -58t-36.5 -59t-52 -48t-75 -35.5t-100 -12q-102 0 -168.5 50.5t-66.5 150.5q0 41 11 99l94 430h21zM353 839
l-13 -81h-21l13 81h21zM511 839l-13 -81h-21l13 81h21zM421 884l-91 144h24l82 -130l124 130h26l-135 -144h-30z" />
    <glyph glyph-name="udieresiscaron" unicode="&#x1da;" 
d="M368 0h-21l13 64l13 58l-2 2q-37 -67 -86.5 -101t-121.5 -34q-69 0 -110 36t-41 103q0 16 12 81l64 305h21l-65 -310q-12 -60 -12 -76q1 -58 36.5 -89t94.5 -31q54 0 97.5 23t72 64t46 85t28.5 97l50 237h22zM225 649l-13 -81h-21l13 81h21zM383 649l-13 -81h-21l13 81
h21zM284 695l-91 144h24l82 -130l124 130h26l-135 -144h-30z" />
    <glyph glyph-name="Udieresisgrave" unicode="&#x1db;" horiz-adv-x="648" 
d="M161 714l-99 -456q-7 -51 -7 -73q0 -88 60.5 -136t154.5 -46q32 0 57.5 3t62.5 17.5t64.5 39t53.5 72t40 112.5l102 467h21l-100 -461q-8 -33 -15.5 -56.5t-22 -58t-36.5 -59t-52 -48t-75 -35.5t-100 -12q-102 0 -168.5 50.5t-66.5 150.5q0 41 11 99l94 430h21zM356 845
l-13 -81h-21l13 81h21zM514 845l-13 -81h-21l13 81h21zM340 1024l112 -144h-25l-112 144h25z" />
    <glyph glyph-name="udieresisgrave" unicode="&#x1dc;" 
d="M368 0h-21l13 64l13 58l-2 2q-37 -67 -86.5 -101t-121.5 -34q-69 0 -110 36t-41 103q0 16 12 81l64 305h21l-65 -310q-12 -60 -12 -76q1 -58 36.5 -89t94.5 -31q54 0 97.5 23t72 64t46 85t28.5 97l50 237h22zM233 649l-13 -81h-21l13 81h21zM391 649l-13 -81h-21l13 81
h21zM211 833l112 -144h-25l-112 144h25z" />
    <glyph glyph-name="uni01DD" unicode="&#x1dd;" 
d="M431 242h-402q-5 -24 -5 -53q0 -77 43 -128.5t123 -51.5q98 0 160 65.5t81 167.5zM8 262h427q3 23 3 55q0 56 -17 96t-44.5 59t-54 27t-54.5 8q-167 0 -212 -161h-21q48 180 232 180q93 0 142 -58.5t49 -151.5q0 -83 -28.5 -155.5t-91 -122t-148.5 -49.5q-89 0 -137.5 56
t-48.5 144q0 36 4 73z" />
    <glyph glyph-name="Adieresismacron" unicode="&#x1de;" horiz-adv-x="574" 
d="M458 235h-366l-146 -235h-22l446 714h20l132 -714h-20zM455 255l-79 431h-2l-269 -431h350zM342 857l-13 -81h-21l13 81h21zM500 857l-13 -81h-21l13 81h21zM538 921l-5 -20h-232l4 20h233z" />
    <glyph glyph-name="adieresismacron" unicode="&#x1df;" horiz-adv-x="481" 
d="M59 365q37 159 210 161q157 0 157 -128q0 -23 -8 -63l-59 -251q-4 -16 -4 -35q0 -33 31 -33q23 0 35 4v-20q-17 -3 -34 -3q-52 0 -52 52q0 14 10 56h-2q-36 -61 -86 -88.5t-124 -27.5q-66 0 -109 31t-43 95q0 50 18 84t51.5 51t70 24t83.5 7q54 2 75 2q61 0 94 24.5
t33 90.5q0 108 -137 108q-153 1 -190 -141h-20zM386 290l-2 2q-28 -30 -179 -30q-35 -2 -59.5 -5t-54 -12.5t-48 -24.5t-31 -42t-12.5 -63q0 -53 37.5 -80t95.5 -27q92 0 150.5 52t81.5 141zM252 664l-13 -81h-21l13 81h21zM410 664l-13 -81h-21l13 81h21zM452 729l-5 -20
h-232l4 20h233z" />
    <glyph glyph-name="Adotmacron" unicode="&#x1e0;" horiz-adv-x="574" 
d="M458 235h-366l-146 -235h-22l446 714h20l132 -714h-20zM455 255l-79 431h-2l-269 -431h350zM417 845l-13 -81h-21l13 81h21zM545 918l-5 -20h-232l4 20h233z" />
    <glyph glyph-name="adotmacron" unicode="&#x1e1;" horiz-adv-x="481" 
d="M59 365q37 159 210 161q157 0 157 -128q0 -23 -8 -63l-59 -251q-4 -16 -4 -35q0 -33 31 -33q23 0 35 4v-20q-17 -3 -34 -3q-52 0 -52 52q0 14 10 56h-2q-36 -61 -86 -88.5t-124 -27.5q-66 0 -109 31t-43 95q0 50 18 84t51.5 51t70 24t83.5 7q54 2 75 2q61 0 94 24.5
t33 90.5q0 108 -137 108q-153 1 -190 -141h-20zM386 290l-2 2q-28 -30 -179 -30q-35 -2 -59.5 -5t-54 -12.5t-48 -24.5t-31 -42t-12.5 -63q0 -53 37.5 -80t95.5 -27q92 0 150.5 52t81.5 141zM313 661l-13 -81h-21l13 81h21zM433 730l-5 -20h-232l4 20h233z" />
    <glyph glyph-name="AEmacron" unicode="&#x1e2;" horiz-adv-x="833" 
d="M423 294l85 400h-41l-311 -400h267zM779 20l-4 -20h-414l59 274h-276l-214 -274h-27l556 714h452l-4 -20h-379l-66 -312h349l-4 -20h-349l-72 -342h393zM759 790l-5 -20h-232l4 20h233z" />
    <glyph glyph-name="aemacron" unicode="&#x1e3;" horiz-adv-x="833" 
d="M369 299q-24 -26 -74 -31q-64 -6 -94 -6q-35 -2 -60 -5t-54 -12.5t-47 -24.5t-30.5 -42t-12.5 -63q0 -53 37 -80t95 -27q59 0 108 29.5t80 81.5q25 42 54 178zM382 253q-10 -27 -10 -71q0 -77 45 -125.5t118 -48.5q80 0 134.5 40.5t74.5 120.5h23q-49 -180 -234 -180
q-75 0 -125.5 47t-50.5 119h-2q-23 -71 -86.5 -118.5t-139.5 -47.5q-66 0 -109 31t-43 95q0 50 18 84t51.5 51t70 24t83.5 7q16 1 46 2.5t43 3.5q49 4 72 25.5t24 68.5q0 64 -33.5 94.5t-86.5 30.5q-153 1 -190 -141h-20q37 159 210 161q62 0 102 -37.5t34 -105.5l2 -2
q25 63 77.5 104t119.5 41q89 0 137.5 -56t48.5 -144q0 -45 -4 -73h-400zM761 273q5 24 5 53q0 77 -43 128.5t-123 51.5q-83 0 -141.5 -69.5t-73.5 -163.5h376zM583 600l-5 -20h-232l4 20h233z" />
    <glyph glyph-name="Gcaron" unicode="&#x1e6;" horiz-adv-x="722" 
d="M608 99l25 97l-2 2q-46 -106 -121 -159t-188 -55q-148 5 -218 86q-73 85 -71 209q0 120 44 222t134.5 166.5t212.5 63.5q113 2 184.5 -58.5t81.5 -172.5h-20q-11 106 -75.5 159.5t-170.5 51.5q-87 1 -159 -35t-117.5 -97.5t-70 -138.5t-24.5 -161q0 -55 19.5 -111.5
t55.5 -92.5q67 -67 194 -72q137 2 219 86.5t115 224.5h-277l4 20h295l-71 -334h-20zM453 785l-91 144h24l82 -130l124 130h26l-135 -144h-30z" />
    <glyph glyph-name="gcaron" unicode="&#x1e7;" horiz-adv-x="519" 
d="M499 514l-102 -476q-25 -118 -84 -172t-164 -54q-81 0 -126.5 40t-41.5 119h19q-4 -70 36.5 -104.5t112.5 -34.5q35 0 63.5 6t51 20t39 27.5t30.5 39.5t22.5 45t17.5 53.5t13.5 56t12.5 61.5l-2 2q-27 -54 -78.5 -86t-113.5 -32q-91 0 -140.5 57.5t-49.5 150.5
q0 71 28.5 136.5t89.5 111t142 45.5q73 0 119 -42.5t53 -122.5h2l14 75l16 78h20zM433 330q-4 85 -44 130.5t-126 45.5q-100 0 -164 -83t-64 -190q0 -84 43 -136t127 -52q70 0 123.5 44.5t79 108t25.5 132.5zM263 583l-91 144h24l82 -130l124 130h26l-135 -144h-30z" />
    <glyph glyph-name="Kcaron" unicode="&#x1e8;" horiz-adv-x="593" 
d="M69 262l-56 -262h-19l151 714h20l-90 -424l576 424h33l-416 -307l292 -407h-24l-284 395zM379 756l-91 144h24l82 -130l124 130h26l-135 -144h-30z" />
    <glyph glyph-name="kcaron" unicode="&#x1e9;" horiz-adv-x="444" 
d="M36 202l-43 -202h-21l154 714h21l-104 -483l408 283h34l-306 -214l214 -300h-27l-204 289zM299 758l-91 144h24l82 -130l124 130h26l-135 -144h-30z" />
    <glyph glyph-name="Oogonek" unicode="&#x1ea;" horiz-adv-x="722" 
d="M677 434q0 128 -69 202.5t-197 74.5q-111 0 -194.5 -65t-123.5 -161.5t-40 -204.5q0 -126 71 -201.5t195 -75.5q110 0 193.5 65t124 161.5t40.5 204.5zM697 434q0 -85 -25.5 -165t-72 -144t-119.5 -102.5t-161 -38.5q-136 0 -211 79.5t-75 216.5q0 85 25 165t71.5 144
t119.5 103t162 39q135 0 210.5 -80t75.5 -217zM302 -12h30q-59 -37 -86.5 -67.5t-27.5 -62.5q0 -16 9 -28t28 -12q43 0 78 40l13 -12q-40 -46 -91 -46q-58 0 -58 58q0 26 17.5 51.5t37 41.5t42.5 32q6 3 8 5z" />
    <glyph glyph-name="oogonek" unicode="&#x1eb;" horiz-adv-x="519" 
d="M26 191q0 -86 45.5 -134.5t131.5 -48.5q78 0 136.5 48.5t85.5 117t27 141.5q0 90 -48 140.5t-130 50.5q-78 0 -136.5 -48.5t-85 -118.5t-26.5 -148zM6 191q0 135 72.5 235t195.5 100q92 0 145 -58t53 -153q0 -58 -18 -115t-50.5 -104.5t-85 -77t-115.5 -29.5
q-95 0 -146 53.5t-51 148.5zM227 -7h-30q-63 -44 -82 -70q-23 -30 -23 -60q0 -58 58 -58q51 0 91 46l-13 12q-35 -40 -78 -40q-19 0 -28 12t-9 28q0 32 27.5 62.5t86.5 67.5z" />
    <glyph glyph-name="Oogonekmacron" unicode="&#x1ec;" horiz-adv-x="722" 
d="M677 434q0 128 -69 202.5t-197 74.5q-111 0 -194.5 -65t-123.5 -161.5t-40 -204.5q0 -126 71 -201.5t195 -75.5q110 0 193.5 65t124 161.5t40.5 204.5zM697 434q0 -85 -25.5 -165t-72 -144t-119.5 -102.5t-161 -38.5q-136 0 -211 79.5t-75 216.5q0 85 25 165t71.5 144
t119.5 103t162 39q135 0 210.5 -80t75.5 -217zM332 -12h-30q-63 -44 -82 -70q-23 -30 -23 -60q0 -58 58 -58q51 0 91 46l-13 12q-35 -40 -78 -40q-19 0 -28 12t-9 28q0 32 27.5 62.5t86.5 67.5zM564 795l-5 -20h-232l4 20h233z" />
    <glyph glyph-name="oogonekmacron" unicode="&#x1ed;" horiz-adv-x="519" 
d="M26 191q0 -86 45.5 -134.5t131.5 -48.5q78 0 136.5 48.5t85.5 117t27 141.5q0 90 -48 140.5t-130 50.5q-78 0 -136.5 -48.5t-85 -118.5t-26.5 -148zM6 191q0 135 72.5 235t195.5 100q92 0 145 -58t53 -153q0 -58 -18 -115t-50.5 -104.5t-85 -77t-115.5 -29.5
q-95 0 -146 53.5t-51 148.5zM227 -7h-30q-63 -44 -82 -70q-23 -30 -23 -60q0 -58 58 -58q51 0 91 46l-13 12q-35 -40 -78 -40q-19 0 -28 12t-9 28q0 32 27.5 62.5t86.5 67.5zM412 600l-5 -20h-232l4 20h233z" />
    <glyph glyph-name="jcaron" unicode="&#x1f0;" horiz-adv-x="130" 
d="M-8 -42l119 556h-22l-117 -548q-17 -69 -32 -91q-23 -33 -65 -33q-3 1 -8 1h-9h-10q-8 0 -11 1l-3 -18q26 -2 41 -2q30 0 51 10t33.5 32t18.5 40t14 52zM37 565l-91 144h24l82 -130l124 130h26l-135 -144h-30z" />
    <glyph glyph-name="DZ" unicode="&#x1f1;" horiz-adv-x="1167" 
d="M150 714h150q39 0 62 -1t62.5 -6.5t64.5 -15.5t55 -30.5t47.5 -49.5t29.5 -74.5t12 -102.5q0 -85 -29 -173t-81 -146q-63 -70 -133.5 -92.5t-175.5 -22.5h-220zM18 20h196q105 0 167 20t124 86q46 50 77 134t31 174q0 70 -18 119.5t-44 76.5t-71 42t-83.5 18.5t-96.5 3.5
h-134zM1124 20l-3 -20h-532l4 24l626 670h-475l5 20h497l-4 -24l-626 -670h508z" />
    <glyph glyph-name="Dz" unicode="&#x1f2;" horiz-adv-x="1074" 
d="M150 714h150q39 0 62 -1t62.5 -6.5t64.5 -15.5t55 -30.5t47.5 -49.5t29.5 -74.5t12 -102.5q0 -85 -29 -173t-81 -146q-63 -70 -133.5 -92.5t-175.5 -22.5h-220zM18 20h196q105 0 167 20t124 86q46 50 77 134t31 174q0 70 -18 119.5t-44 76.5t-71 42t-83.5 18.5t-96.5 3.5
h-134zM998 20l-5 -20h-390l6 27l469 467h-355l4 20h384l-6 -23l-473 -471h366z" />
    <glyph glyph-name="dz" unicode="&#x1f3;" horiz-adv-x="944" 
d="M392 76l16 63l-2 2q-67 -152 -216 -152q-89 0 -136.5 51.5t-47.5 142.5q0 57 18.5 116.5t52 110.5t86 83.5t114.5 32.5q80 0 128.5 -43t48.5 -119h2l12 65l62 285h21l-154 -714h-21zM440 336q0 80 -41.5 125t-121.5 45q-59 0 -108 -30.5t-79.5 -78.5t-47 -104t-16.5 -110
q0 -79 42 -127t121 -48q78 0 136.5 53t85.5 126t29 149zM868 20l-5 -20h-390l6 27l469 467h-355l4 20h384l-6 -23l-473 -471h366z" />
    <glyph glyph-name="Gacute" unicode="&#x1f4;" horiz-adv-x="722" 
d="M608 99l25 97l-2 2q-46 -106 -121 -159t-188 -55q-148 5 -218 86q-73 85 -71 209q0 120 44 222t134.5 166.5t212.5 63.5q113 2 184.5 -58.5t81.5 -172.5h-20q-11 106 -75.5 159.5t-170.5 51.5q-87 1 -159 -35t-117.5 -97.5t-70 -138.5t-24.5 -161q0 -55 19.5 -111.5
t55.5 -92.5q67 -67 194 -72q137 2 219 86.5t115 224.5h-277l4 20h295l-71 -334h-20zM433 788h-28l163 144h28z" />
    <glyph glyph-name="gacute" unicode="&#x1f5;" horiz-adv-x="519" 
d="M499 514l-102 -476q-25 -118 -84 -172t-164 -54q-81 0 -126.5 40t-41.5 119h19q-4 -70 36.5 -104.5t112.5 -34.5q35 0 63.5 6t51 20t39 27.5t30.5 39.5t22.5 45t17.5 53.5t13.5 56t12.5 61.5l-2 2q-27 -54 -78.5 -86t-113.5 -32q-91 0 -140.5 57.5t-49.5 150.5
q0 71 28.5 136.5t89.5 111t142 45.5q73 0 119 -42.5t53 -122.5h2l14 75l16 78h20zM433 330q-4 85 -44 130.5t-126 45.5q-100 0 -164 -83t-64 -190q0 -84 43 -136t127 -52q70 0 123.5 44.5t79 108t25.5 132.5zM278 580h-28l163 144h28z" />
    <glyph glyph-name="Ngrave" unicode="&#x1f8;" horiz-adv-x="667" 
d="M505 0l-344 691h-2l-145 -691h-20l151 714h27l344 -691h2l146 691h21l-153 -714h-27zM323 908l112 -144h-25l-112 144h25z" />
    <glyph glyph-name="ngrave" unicode="&#x1f9;" 
d="M92 514h21l-13 -64l-13 -58l2 -2q76 136 208 136q69 0 110 -36.5t41 -103.5q0 -16 -12 -81l-64 -305h-21l65 310q12 60 12 76q-1 58 -36.5 89t-94.5 31q-54 0 -97.5 -23t-72 -64t-46 -85t-28.5 -97l-51 -237h-20zM259 724l112 -144h-25l-112 144h25z" />
    <glyph glyph-name="Aringacute" unicode="&#x1fa;" horiz-adv-x="574" 
d="M458 235h-366l-146 -235h-22l446 714h20l132 -714h-20zM455 255l-79 431h-2l-269 -431h350zM321 857q0 -32 22 -54t54 -22t54 22t22 54t-22 54t-54 22t-54 -22t-22 -54zM301 857q0 40 28 68t68 28t68 -28t28 -68t-28 -68t-68 -28t-68 28t-28 68zM425 994h-28l163 144h28z
" />
    <glyph glyph-name="aringacute" unicode="&#x1fb;" horiz-adv-x="481" 
d="M59 365q37 159 210 161q157 0 157 -128q0 -23 -8 -63l-59 -251q-4 -16 -4 -35q0 -33 31 -33q23 0 35 4v-20q-17 -3 -34 -3q-52 0 -52 52q0 14 10 56h-2q-36 -61 -86 -88.5t-124 -27.5q-66 0 -109 31t-43 95q0 50 18 84t51.5 51t70 24t83.5 7q54 2 75 2q61 0 94 24.5
t33 90.5q0 108 -137 108q-153 1 -190 -141h-20zM386 290l-2 2q-28 -30 -179 -30q-35 -2 -59.5 -5t-54 -12.5t-48 -24.5t-31 -42t-12.5 -63q0 -53 37.5 -80t95.5 -27q92 0 150.5 52t81.5 141zM240 672q0 -32 22 -54t54 -22t54 22t22 54t-22 54t-54 22t-54 -22t-22 -54z
M220 672q0 40 28 68t68 28t68 -28t28 -68t-28 -68t-68 -28t-68 28t-28 68zM336 809h-28l163 144h28z" />
    <glyph glyph-name="AEacute" unicode="&#x1fc;" horiz-adv-x="833" 
d="M423 294l85 400h-41l-311 -400h267zM779 20l-4 -20h-414l59 274h-276l-214 -274h-27l556 714h452l-4 -20h-379l-66 -312h349l-4 -20h-349l-72 -342h393zM675 767h-28l163 144h28z" />
    <glyph glyph-name="aeacute" unicode="&#x1fd;" horiz-adv-x="833" 
d="M369 299q-24 -26 -74 -31q-64 -6 -94 -6q-35 -2 -60 -5t-54 -12.5t-47 -24.5t-30.5 -42t-12.5 -63q0 -53 37 -80t95 -27q59 0 108 29.5t80 81.5q25 42 54 178zM382 253q-10 -27 -10 -71q0 -77 45 -125.5t118 -48.5q80 0 134.5 40.5t74.5 120.5h23q-49 -180 -234 -180
q-75 0 -125.5 47t-50.5 119h-2q-23 -71 -86.5 -118.5t-139.5 -47.5q-66 0 -109 31t-43 95q0 50 18 84t51.5 51t70 24t83.5 7q16 1 46 2.5t43 3.5q49 4 72 25.5t24 68.5q0 64 -33.5 94.5t-86.5 30.5q-153 1 -190 -141h-20q37 159 210 161q62 0 102 -37.5t34 -105.5l2 -2
q25 63 77.5 104t119.5 41q89 0 137.5 -56t48.5 -144q0 -45 -4 -73h-400zM761 273q5 24 5 53q0 77 -43 128.5t-123 51.5q-83 0 -141.5 -69.5t-73.5 -163.5h376zM459 586h-28l163 144h28z" />
    <glyph glyph-name="Oslashacute" unicode="&#x1fe;" horiz-adv-x="722" 
d="M592 652q-68 59 -181 59q-111 0 -194.5 -65t-123.5 -161.5t-40 -204.5q0 -127 71 -201zM137 66q69 -63 182 -63q110 0 193.5 65t124 161.5t40.5 204.5q0 131 -71 205zM42 -20l68 82q-77 80 -77 218q0 85 25 165t71.5 144t119.5 103t162 39q120 0 193 -64l59 71l14 -11
l-59 -73q79 -79 79 -220q0 -85 -25.5 -165t-72 -144t-119.5 -102.5t-161 -38.5q-125 0 -196 65l-67 -81zM465 793h-28l163 144h28z" />
    <glyph glyph-name="oslashacute" unicode="&#x1ff;" horiz-adv-x="519" 
d="M471 518l-47 -57q48 -54 48 -146q0 -58 -18 -115t-50.5 -104.5t-85 -77t-115.5 -29.5q-92 0 -133 40l-47 -57l-15 12l48 58q-50 55 -50 149q0 135 72.5 235t195.5 100q84 0 137 -51l45 55zM398 459q-47 47 -124 47q-78 0 -136.5 -48.5t-85 -118.5t-26.5 -148
q0 -87 43 -133zM83 45q37 -37 120 -37q78 0 136.5 48.5t85.5 117t27 141.5q0 84 -42 129zM298 582h-28l163 144h28z" />
    <glyph glyph-name="Adblgrave" unicode="&#x200;" horiz-adv-x="574" 
d="M458 235h-366l-146 -235h-22l446 714h20l132 -714h-20zM455 255l-79 431h-2l-269 -431h350zM345 908l112 -144h-25l-112 144h25zM215 908l112 -144h-25l-112 144h25z" />
    <glyph glyph-name="adblgrave" unicode="&#x201;" horiz-adv-x="481" 
d="M59 365q37 159 210 161q157 0 157 -128q0 -23 -8 -63l-59 -251q-4 -16 -4 -35q0 -33 31 -33q23 0 35 4v-20q-17 -3 -34 -3q-52 0 -52 52q0 14 10 56h-2q-36 -61 -86 -88.5t-124 -27.5q-66 0 -109 31t-43 95q0 50 18 84t51.5 51t70 24t83.5 7q54 2 75 2q61 0 94 24.5
t33 90.5q0 108 -137 108q-153 1 -190 -141h-20zM386 290l-2 2q-28 -30 -179 -30q-35 -2 -59.5 -5t-54 -12.5t-48 -24.5t-31 -42t-12.5 -63q0 -53 37.5 -80t95.5 -27q92 0 150.5 52t81.5 141zM308 721l112 -144h-25l-112 144h25zM178 721l112 -144h-25l-112 144h25z" />
    <glyph glyph-name="Ainvertedbreve" unicode="&#x202;" horiz-adv-x="574" 
d="M458 235h-366l-146 -235h-22l446 714h20l132 -714h-20zM455 255l-79 431h-2l-269 -431h350zM445 764h-20q2 39 -23 65t-67 26t-73.5 -25t-46.5 -66h-20q12 49 50.5 80t88.5 31q51 0 81 -30t30 -81z" />
    <glyph glyph-name="ainvertedbreve" unicode="&#x203;" horiz-adv-x="481" 
d="M59 365q37 159 210 161q157 0 157 -128q0 -23 -8 -63l-59 -251q-4 -16 -4 -35q0 -33 31 -33q23 0 35 4v-20q-17 -3 -34 -3q-52 0 -52 52q0 14 10 56h-2q-36 -61 -86 -88.5t-124 -27.5q-66 0 -109 31t-43 95q0 50 18 84t51.5 51t70 24t83.5 7q54 2 75 2q61 0 94 24.5
t33 90.5q0 108 -137 108q-153 1 -190 -141h-20zM386 290l-2 2q-28 -30 -179 -30q-35 -2 -59.5 -5t-54 -12.5t-48 -24.5t-31 -42t-12.5 -63q0 -53 37.5 -80t95.5 -27q92 0 150.5 52t81.5 141zM408 577h-20q2 39 -23 65t-67 26t-73.5 -25t-46.5 -66h-20q12 49 50.5 80t88.5 31
q51 0 81 -30t30 -81z" />
    <glyph glyph-name="Edblgrave" unicode="&#x204;" horiz-adv-x="519" 
d="M465 20l-5 -20h-469l152 714h453l-4 -20h-433l-67 -312h404l-4 -20h-405l-73 -342h451zM416 908l112 -144h-25l-112 144h25zM286 908l112 -144h-25l-112 144h25z" />
    <glyph glyph-name="edblgrave" unicode="&#x205;" 
d="M433 273q5 24 5 53q0 77 -43 128.5t-123 51.5q-98 0 -160 -65.5t-81 -167.5h402zM27 253q-3 -23 -3 -55q0 -56 17 -96t44.5 -59t54 -27t54.5 -8q167 0 212 161h21q-48 -180 -232 -180q-93 0 -142 58.5t-49 151.5q0 83 28.5 155.5t91 122t148.5 49.5q89 0 137.5 -56
t48.5 -144q0 -36 -4 -73h-427zM335 721l112 -144h-25l-112 144h25zM205 721l112 -144h-25l-112 144h25z" />
    <glyph glyph-name="Einvertedbreve" unicode="&#x206;" horiz-adv-x="519" 
d="M465 20l-5 -20h-469l152 714h453l-4 -20h-433l-67 -312h404l-4 -20h-405l-73 -342h451zM516 764h-20q2 39 -23 65t-67 26t-73.5 -25t-46.5 -66h-20q12 49 50.5 80t88.5 31q51 0 81 -30t30 -81z" />
    <glyph glyph-name="einvertedbreve" unicode="&#x207;" 
d="M433 273q5 24 5 53q0 77 -43 128.5t-123 51.5q-98 0 -160 -65.5t-81 -167.5h402zM27 253q-3 -23 -3 -55q0 -56 17 -96t44.5 -59t54 -27t54.5 -8q167 0 212 161h21q-48 -180 -232 -180q-93 0 -142 58.5t-49 151.5q0 83 28.5 155.5t91 122t148.5 49.5q89 0 137.5 -56
t48.5 -144q0 -36 -4 -73h-427zM435 577h-20q2 39 -23 65t-67 26t-73.5 -25t-46.5 -66h-20q12 49 50.5 80t88.5 31q51 0 81 -30t30 -81z" />
    <glyph glyph-name="Idblgrave" unicode="&#x208;" horiz-adv-x="148" 
d="M-6 0l152 714h20l-153 -714h-19zM202 908l112 -144h-25l-112 144h25zM72 908l112 -144h-25l-112 144h25z" />
    <glyph glyph-name="idblgrave" unicode="&#x209;" horiz-adv-x="130" 
d="M1 0h-21l109 514h22zM148 709l112 -144h-25l-112 144h25zM18 709l112 -144h-25l-112 144h25z" />
    <glyph glyph-name="Iinvertedbreve" unicode="&#x20a;" horiz-adv-x="148" 
d="M-6 0l152 714h20l-153 -714h-19zM302 764h-20q2 39 -23 65t-67 26t-73.5 -25t-46.5 -66h-20q12 49 50.5 80t88.5 31q51 0 81 -30t30 -81z" />
    <glyph glyph-name="iinvertedbreve" unicode="&#x20b;" horiz-adv-x="130" 
d="M1 0h-21l109 514h22zM248 565h-20q2 39 -23 65t-67 26t-73.5 -25t-46.5 -66h-20q12 49 50.5 80t88.5 31q51 0 81 -30t30 -81z" />
    <glyph glyph-name="Odblgrave" unicode="&#x20c;" horiz-adv-x="722" 
d="M677 434q0 128 -69 202.5t-197 74.5q-111 0 -194.5 -65t-123.5 -161.5t-40 -204.5q0 -126 71 -201.5t195 -75.5q110 0 193.5 65t124 161.5t40.5 204.5zM697 434q0 -85 -25.5 -165t-72 -144t-119.5 -102.5t-161 -38.5q-136 0 -211 79.5t-75 216.5q0 85 25 165t71.5 144
t119.5 103t162 39q135 0 210.5 -80t75.5 -217zM491 925l112 -144h-25l-112 144h25zM361 925l112 -144h-25l-112 144h25z" />
    <glyph glyph-name="odblgrave" unicode="&#x20d;" horiz-adv-x="519" 
d="M26 191q0 -86 45.5 -134.5t131.5 -48.5q78 0 136.5 48.5t85.5 117t27 141.5q0 90 -48 140.5t-130 50.5q-78 0 -136.5 -48.5t-85 -118.5t-26.5 -148zM6 191q0 135 72.5 235t195.5 100q92 0 145 -58t53 -153q0 -58 -18 -115t-50.5 -104.5t-85 -77t-115.5 -29.5
q-95 0 -146 53.5t-51 148.5zM343 721l112 -144h-25l-112 144h25zM213 721l112 -144h-25l-112 144h25z" />
    <glyph glyph-name="Oinvertedbreve" unicode="&#x20e;" horiz-adv-x="722" 
d="M677 434q0 128 -69 202.5t-197 74.5q-111 0 -194.5 -65t-123.5 -161.5t-40 -204.5q0 -126 71 -201.5t195 -75.5q110 0 193.5 65t124 161.5t40.5 204.5zM697 434q0 -85 -25.5 -165t-72 -144t-119.5 -102.5t-161 -38.5q-136 0 -211 79.5t-75 216.5q0 85 25 165t71.5 144
t119.5 103t162 39q135 0 210.5 -80t75.5 -217zM591 781h-20q2 39 -23 65t-67 26t-73.5 -25t-46.5 -66h-20q12 49 50.5 80t88.5 31q51 0 81 -30t30 -81z" />
    <glyph glyph-name="oinvertedbreve" unicode="&#x20f;" horiz-adv-x="519" 
d="M26 191q0 -86 45.5 -134.5t131.5 -48.5q78 0 136.5 48.5t85.5 117t27 141.5q0 90 -48 140.5t-130 50.5q-78 0 -136.5 -48.5t-85 -118.5t-26.5 -148zM6 191q0 135 72.5 235t195.5 100q92 0 145 -58t53 -153q0 -58 -18 -115t-50.5 -104.5t-85 -77t-115.5 -29.5
q-95 0 -146 53.5t-51 148.5zM443 577h-20q2 39 -23 65t-67 26t-73.5 -25t-46.5 -66h-20q12 49 50.5 80t88.5 31q51 0 81 -30t30 -81z" />
    <glyph glyph-name="Rdblgrave" unicode="&#x210;" horiz-adv-x="593" 
d="M142 714h275q33 0 62.5 -7.5t58 -25t44.5 -52t15 -83.5q-2 -94 -59.5 -148.5t-148.5 -56.5v-2q109 -17 108 -148l-4 -116q0 -45 10 -75h-20q-11 31 -11 76q2 73 5 115q1 43 -13 73.5t-38 44.5t-48 20t-50 6h-245l-70 -335h-19zM89 355h239q30 0 57 2.5t64 14t63 31
t45 56.5t20 87q1 47 -15 78.5t-44.5 45.5t-53.5 19t-54 5h-250zM418 908l112 -144h-25l-112 144h25zM288 908l112 -144h-25l-112 144h25z" />
    <glyph glyph-name="rdblgrave" unicode="&#x211;" horiz-adv-x="259" 
d="M-22 0l108 514h22l-14 -66l-15 -63l2 -2q70 139 187 139q28 0 41 -4l-4 -20q-9 4 -36 4q-44 0 -84.5 -27.5t-62 -56.5t-34.5 -57q-20 -43 -35 -103l-54 -258h-21zM246 717l112 -144h-25l-112 144h25zM116 717l112 -144h-25l-112 144h25z" />
    <glyph glyph-name="Rinvertedbreve" unicode="&#x212;" horiz-adv-x="593" 
d="M142 714h275q33 0 62.5 -7.5t58 -25t44.5 -52t15 -83.5q-2 -94 -59.5 -148.5t-148.5 -56.5v-2q109 -17 108 -148l-4 -116q0 -45 10 -75h-20q-11 31 -11 76q2 73 5 115q1 43 -13 73.5t-38 44.5t-48 20t-50 6h-245l-70 -335h-19zM89 355h239q30 0 57 2.5t64 14t63 31
t45 56.5t20 87q1 47 -15 78.5t-44.5 45.5t-53.5 19t-54 5h-250zM518 764h-20q2 39 -23 65t-67 26t-73.5 -25t-46.5 -66h-20q12 49 50.5 80t88.5 31q51 0 81 -30t30 -81z" />
    <glyph glyph-name="rinvertedbreve" unicode="&#x213;" horiz-adv-x="259" 
d="M-22 0l108 514h22l-14 -66l-15 -63l2 -2q70 139 187 139q28 0 41 -4l-4 -20q-9 4 -36 4q-44 0 -84.5 -27.5t-62 -56.5t-34.5 -57q-20 -43 -35 -103l-54 -258h-21zM346 573h-20q2 39 -23 65t-67 26t-73.5 -25t-46.5 -66h-20q12 49 50.5 80t88.5 31q51 0 81 -30t30 -81z
" />
    <glyph glyph-name="Udblgrave" unicode="&#x214;" horiz-adv-x="648" 
d="M161 714l-99 -456q-7 -51 -7 -73q0 -88 60.5 -136t154.5 -46q32 0 57.5 3t62.5 17.5t64.5 39t53.5 72t40 112.5l102 467h21l-100 -461q-8 -33 -15.5 -56.5t-22 -58t-36.5 -59t-52 -48t-75 -35.5t-100 -12q-102 0 -168.5 50.5t-66.5 150.5q0 41 11 99l94 430h21zM477 908
l112 -144h-25l-112 144h25zM347 908l112 -144h-25l-112 144h25z" />
    <glyph glyph-name="udblgrave" unicode="&#x215;" 
d="M368 0h-21l13 64l13 58l-2 2q-37 -67 -86.5 -101t-121.5 -34q-69 0 -110 36t-41 103q0 16 12 81l64 305h21l-65 -310q-12 -60 -12 -76q1 -58 36.5 -89t94.5 -31q54 0 97.5 23t72 64t46 85t28.5 97l50 237h22zM349 709l112 -144h-25l-112 144h25zM219 709l112 -144h-25
l-112 144h25z" />
    <glyph glyph-name="Uinvertedbreve" unicode="&#x216;" horiz-adv-x="648" 
d="M161 714l-99 -456q-7 -51 -7 -73q0 -88 60.5 -136t154.5 -46q32 0 57.5 3t62.5 17.5t64.5 39t53.5 72t40 112.5l102 467h21l-100 -461q-8 -33 -15.5 -56.5t-22 -58t-36.5 -59t-52 -48t-75 -35.5t-100 -12q-102 0 -168.5 50.5t-66.5 150.5q0 41 11 99l94 430h21zM577 764
h-20q2 39 -23 65t-67 26t-73.5 -25t-46.5 -66h-20q12 49 50.5 80t88.5 31q51 0 81 -30t30 -81z" />
    <glyph glyph-name="uinvertedbreve" unicode="&#x217;" 
d="M368 0h-21l13 64l13 58l-2 2q-37 -67 -86.5 -101t-121.5 -34q-69 0 -110 36t-41 103q0 16 12 81l64 305h21l-65 -310q-12 -60 -12 -76q1 -58 36.5 -89t94.5 -31q54 0 97.5 23t72 64t46 85t28.5 97l50 237h22zM449 565h-20q2 39 -23 65t-67 26t-73.5 -25t-46.5 -66h-20
q12 49 50.5 80t88.5 31q51 0 81 -30t30 -81z" />
    <glyph glyph-name="Scommaaccent" unicode="&#x218;" horiz-adv-x="611" 
d="M27 237q-12 -109 58.5 -171.5t189.5 -62.5q22 0 45.5 3.5t51 10.5t51 21.5t43 34.5t31 50.5t11.5 68.5q0 49 -30 82.5t-74.5 48.5t-96.5 31.5t-96.5 33t-74.5 53t-30 90.5q2 99 72.5 149.5t172.5 50.5q118 0 184 -53.5t58 -167.5h-20q8 105 -53 153t-169 48
q-58 0 -106.5 -17.5t-83 -59.5t-35.5 -103q-1 -42 20.5 -72t57 -46.5t78.5 -29.5t86.5 -26.5t79 -32t58 -52t22.5 -80.5q0 -59 -25 -102t-65 -65t-80.5 -31.5t-82.5 -9.5q-127 0 -203 64.5t-65 188.5h20zM208 -196l29 131h-21l-27 -121q-6 -28 -16.5 -46.5t-34.5 -31.5
l-4 -26q54 20 74 94z" />
    <glyph glyph-name="scommaaccent" unicode="&#x219;" horiz-adv-x="463" 
d="M392 360q9 74 -31.5 110t-118.5 36q-61 0 -108 -28.5t-47 -88.5q0 -56 61 -87q12 -6 58 -25q9 -3 35.5 -12.5t39 -14.5t33.5 -17t31 -24t18.5 -31t8.5 -43q0 -76 -54 -111t-135 -35q-186 0 -186 147q0 6 1 19t1 19h20q-22 -166 164 -166q70 0 119.5 31t49.5 96
q0 15 -3 27.5t-12 23t-15 17t-21.5 14.5t-22 11t-26 11t-24.5 10q-9 3 -35 12.5t-38 14.5t-32.5 17t-30 23.5t-17.5 30.5t-8 42q0 67 51.5 102t123.5 35q187 0 170 -166h-20zM138 -191l29 131h-21l-27 -121q-6 -28 -16.5 -46.5t-34.5 -31.5l-4 -26q54 20 74 94z" />
    <glyph glyph-name="Tcommaaccent" unicode="&#x21a;" 
d="M60 694l4 20h537l-4 -20h-258l-148 -694h-21l148 694h-258zM244 -180l29 131h-21l-27 -121q-6 -28 -16.5 -46.5t-34.5 -31.5l-4 -26q54 20 74 94z" />
    <glyph glyph-name="tcommaaccent" unicode="&#x21b;" horiz-adv-x="241" 
d="M156 676h21l-34 -162h112l-4 -20h-112l-80 -375q-9 -44 -10 -59q0 -13 5 -22.5t9.5 -13.5t18 -6t17 -2h19.5q33 0 48 4l-4 -20q-2 0 -23 -1.5t-32 -1.5q-78 0 -78 57q0 6 8 59l81 381h-97l4 20h97zM54 -183l29 131h-21l-27 -121q-6 -28 -16.5 -46.5t-34.5 -31.5l-4 -26
q54 20 74 94z" />
    <glyph glyph-name="Hcaron" unicode="&#x21e;" horiz-adv-x="648" 
d="M574 382l72 332h20l-153 -714h-20l77 362h-479l-78 -362h-19l152 714h20l-71 -332h479zM415 764l-91 144h24l82 -130l124 130h26l-135 -144h-30z" />
    <glyph glyph-name="hcaron" unicode="&#x21f;" 
d="M135 714h21l-56 -264l-13 -58l2 -2q76 136 208 136q69 0 110 -36.5t41 -103.5q0 -16 -12 -81l-64 -305h-21l65 310q12 60 12 76q-1 58 -36.5 89t-94.5 31q-54 0 -97.5 -23t-72 -64t-46 -85t-28.5 -97l-51 -237h-20zM314 767l-91 144h24l82 -130l124 130h26l-135 -144h-30
z" />
    <glyph glyph-name="Adotaccent" unicode="&#x226;" horiz-adv-x="574" 
d="M458 235h-366l-146 -235h-22l446 714h20l132 -714h-20zM455 255l-79 431h-2l-269 -431h350zM420 862l-13 -81h-21l13 81h21z" />
    <glyph glyph-name="adotaccent" unicode="&#x227;" horiz-adv-x="481" 
d="M59 365q37 159 210 161q157 0 157 -128q0 -23 -8 -63l-59 -251q-4 -16 -4 -35q0 -33 31 -33q23 0 35 4v-20q-17 -3 -34 -3q-52 0 -52 52q0 14 10 56h-2q-36 -61 -86 -88.5t-124 -27.5q-66 0 -109 31t-43 95q0 50 18 84t51.5 51t70 24t83.5 7q54 2 75 2q61 0 94 24.5
t33 90.5q0 108 -137 108q-153 1 -190 -141h-20zM386 290l-2 2q-28 -30 -179 -30q-35 -2 -59.5 -5t-54 -12.5t-48 -24.5t-31 -42t-12.5 -63q0 -53 37.5 -80t95.5 -27q92 0 150.5 52t81.5 141zM299 661l-13 -81h-21l13 81h21z" />
    <glyph glyph-name="Ecedilla" unicode="&#x228;" horiz-adv-x="519" 
d="M465 20l-5 -20h-469l152 714h453l-4 -20h-433l-67 -312h404l-4 -20h-405l-73 -342h451zM116 -142q40 -21 80 -21q26 0 49 14t23 39q0 21 -16 31.5t-37 10.5q-15 0 -54 -13l-15 9l72 72h26l-40 -41l-12 -9l2 -2q7 4 21 4q32 0 52.5 -16t20.5 -46q0 -36 -28 -54.5
t-65 -18.5t-87 22z" />
    <glyph glyph-name="ecedilla" unicode="&#x229;" 
d="M433 273q5 24 5 53q0 77 -43 128.5t-123 51.5q-98 0 -160 -65.5t-81 -167.5h402zM27 253q-3 -23 -3 -55q0 -56 17 -96t44.5 -59t54 -27t54.5 -8q167 0 212 161h21q-48 -180 -232 -180q-93 0 -142 58.5t-49 151.5q0 83 28.5 155.5t91 122t148.5 49.5q89 0 137.5 -56
t48.5 -144q0 -36 -4 -73h-427zM77 -149q40 -21 80 -21q26 0 49 14t23 39q0 21 -16 31.5t-37 10.5q-15 0 -54 -13l-15 9l72 72h26l-40 -41l-12 -9l2 -2q7 4 21 4q32 0 52.5 -16t20.5 -46q0 -36 -28 -54.5t-65 -18.5q-38 0 -87 22z" />
    <glyph glyph-name="Odieresismacron" unicode="&#x22a;" horiz-adv-x="722" 
d="M677 434q0 128 -69 202.5t-197 74.5q-111 0 -194.5 -65t-123.5 -161.5t-40 -204.5q0 -126 71 -201.5t195 -75.5q110 0 193.5 65t124 161.5t40.5 204.5zM697 434q0 -85 -25.5 -165t-72 -144t-119.5 -102.5t-161 -38.5q-136 0 -211 79.5t-75 216.5q0 85 25 165t71.5 144
t119.5 103t162 39q135 0 210.5 -80t75.5 -217zM376 862l-13 -81h-21l13 81h21zM534 862l-13 -81h-21l13 81h21zM583 946l-5 -20h-232l4 20h233z" />
    <glyph glyph-name="odieresismacron" unicode="&#x22b;" horiz-adv-x="519" 
d="M26 191q0 -86 45.5 -134.5t131.5 -48.5q78 0 136.5 48.5t85.5 117t27 141.5q0 90 -48 140.5t-130 50.5q-78 0 -136.5 -48.5t-85 -118.5t-26.5 -148zM6 191q0 135 72.5 235t195.5 100q92 0 145 -58t53 -153q0 -58 -18 -115t-50.5 -104.5t-85 -77t-115.5 -29.5
q-95 0 -146 53.5t-51 148.5zM257 661l-13 -81h-21l13 81h21zM415 661l-13 -81h-21l13 81h21zM465 738l-5 -20h-232l4 20h233z" />
    <glyph glyph-name="Otildemacron" unicode="&#x22c;" horiz-adv-x="722" 
d="M677 434q0 128 -69 202.5t-197 74.5q-111 0 -194.5 -65t-123.5 -161.5t-40 -204.5q0 -126 71 -201.5t195 -75.5q110 0 193.5 65t124 161.5t40.5 204.5zM697 434q0 -85 -25.5 -165t-72 -144t-119.5 -102.5t-161 -38.5q-136 0 -211 79.5t-75 216.5q0 85 25 165t71.5 144
t119.5 103t162 39q135 0 210.5 -80t75.5 -217zM597 861q-7 -31 -26 -54t-49 -23q-25 0 -65 30.5t-64 30.5q-33 0 -53 -60h-20q7 34 26.5 57t52.5 23q24 0 63 -30.5t65 -30.5q30 0 51 57h19zM607 955l-5 -20h-232l4 20h233z" />
    <glyph glyph-name="otildemacron" unicode="&#x22d;" horiz-adv-x="519" 
d="M26 191q0 -86 45.5 -134.5t131.5 -48.5q78 0 136.5 48.5t85.5 117t27 141.5q0 90 -48 140.5t-130 50.5q-78 0 -136.5 -48.5t-85 -118.5t-26.5 -148zM6 191q0 135 72.5 235t195.5 100q92 0 145 -58t53 -153q0 -58 -18 -115t-50.5 -104.5t-85 -77t-115.5 -29.5
q-95 0 -146 53.5t-51 148.5zM462 657q-7 -31 -26 -54t-49 -23q-25 0 -65 30.5t-64 30.5q-33 0 -53 -60h-20q7 34 26.5 57t52.5 23q24 0 63 -30.5t65 -30.5q30 0 51 57h19zM489 733l-5 -20h-232l4 20h233z" />
    <glyph glyph-name="Odotaccent" unicode="&#x22e;" horiz-adv-x="722" 
d="M677 434q0 128 -69 202.5t-197 74.5q-111 0 -194.5 -65t-123.5 -161.5t-40 -204.5q0 -126 71 -201.5t195 -75.5q110 0 193.5 65t124 161.5t40.5 204.5zM697 434q0 -85 -25.5 -165t-72 -144t-119.5 -102.5t-161 -38.5q-136 0 -211 79.5t-75 216.5q0 85 25 165t71.5 144
t119.5 103t162 39q135 0 210.5 -80t75.5 -217zM478 865l-13 -81h-21l13 81h21z" />
    <glyph glyph-name="odotaccent" unicode="&#x22f;" horiz-adv-x="519" 
d="M26 191q0 -86 45.5 -134.5t131.5 -48.5q78 0 136.5 48.5t85.5 117t27 141.5q0 90 -48 140.5t-130 50.5q-78 0 -136.5 -48.5t-85 -118.5t-26.5 -148zM6 191q0 135 72.5 235t195.5 100q92 0 145 -58t53 -153q0 -58 -18 -115t-50.5 -104.5t-85 -77t-115.5 -29.5
q-95 0 -146 53.5t-51 148.5zM335 661l-13 -81h-21l13 81h21z" />
    <glyph glyph-name="Odotaccentmacron" unicode="&#x230;" horiz-adv-x="722" 
d="M677 434q0 128 -69 202.5t-197 74.5q-111 0 -194.5 -65t-123.5 -161.5t-40 -204.5q0 -126 71 -201.5t195 -75.5q110 0 193.5 65t124 161.5t40.5 204.5zM697 434q0 -85 -25.5 -165t-72 -144t-119.5 -102.5t-161 -38.5q-136 0 -211 79.5t-75 216.5q0 85 25 165t71.5 144
t119.5 103t162 39q135 0 210.5 -80t75.5 -217zM435 862l-13 -81h-21l13 81h21zM557 935l-5 -20h-232l4 20h233z" />
    <glyph glyph-name="odotaccentmacron" unicode="&#x231;" horiz-adv-x="519" 
d="M26 191q0 -86 45.5 -134.5t131.5 -48.5q78 0 136.5 48.5t85.5 117t27 141.5q0 90 -48 140.5t-130 50.5q-78 0 -136.5 -48.5t-85 -118.5t-26.5 -148zM6 191q0 135 72.5 235t195.5 100q92 0 145 -58t53 -153q0 -58 -18 -115t-50.5 -104.5t-85 -77t-115.5 -29.5
q-95 0 -146 53.5t-51 148.5zM335 661l-13 -81h-21l13 81h21zM466 727l-5 -20h-232l4 20h233z" />
    <glyph glyph-name="Ymacron" unicode="&#x232;" horiz-adv-x="519" 
d="M253 322l349 392h25l-366 -411l-65 -303h-21l65 303l-194 411h23zM449 784l-5 -20h-232l4 20h233z" />
    <glyph glyph-name="ymacron" unicode="&#x233;" horiz-adv-x="407" 
d="M138 26l281 488h25l-337 -582q-39 -63 -58 -79q-31 -26 -81 -28q-3 -1 -8 -1h-9h-17l3 20q56 -2 82 13.5t58 65.5l44 77l-100 514h22zM361 588l-5 -20h-232l4 20h233z" />
    <glyph glyph-name="uni0237" unicode="&#x237;" horiz-adv-x="130" 
d="M111 514l-119 -556q-8 -34 -14 -52t-18.5 -40t-33.5 -32t-51 -10q-15 0 -41 2l3 18q3 -1 11 -1h10h9q5 0 8 -1q31 0 52 21t26.5 37t15.5 56q2 7 3 10l117 548h22z" />
    <glyph glyph-name="uni0259" unicode="&#x259;" horiz-adv-x="519" 
d="M447 256h-416q-5 -35 -5 -65q0 -86 45.5 -134.5t131.5 -48.5q99 0 163.5 74t80.5 174zM14 276h436q1 12 1 37q0 94 -45.5 144t-128.5 50q-70 0 -123.5 -36t-80.5 -104h-23q60 159 227 159q96 0 145.5 -57t49.5 -154q0 -58 -18 -115t-50.5 -104.5t-85 -77t-115.5 -29.5
q-95 0 -146 53.5t-51 148.5q0 40 8 85z" />
    <glyph glyph-name="commaturnedmod" unicode="&#x2bb;" horiz-adv-x="167" 
d="M90 489l29 131q20 74 74 94l-4 -26q-24 -13 -34.5 -31.5t-16.5 -46.5l-27 -121h-21z" />
    <glyph glyph-name="afii57929" unicode="&#x2bc;" horiz-adv-x="167" 
d="M176 714l-29 -131q-20 -74 -74 -94l4 26q24 13 34.5 31.5t16.5 46.5l27 121h21z" />
    <glyph glyph-name="circumflex" unicode="&#x2c6;" horiz-adv-x="130" 
d="M260 587h-24l-82 130l-124 -130h-26l135 144h30z" />
    <glyph glyph-name="caron" unicode="&#x2c7;" horiz-adv-x="130" 
d="M116 587l-91 144h24l82 -130l124 130h26l-135 -144h-30z" />
    <glyph glyph-name="uni02C9.macronCopy" unicode="&#x2c9;" horiz-adv-x="130" 
d="M260 649l-5 -20h-232l4 20h233z" />
    <glyph glyph-name="breve" unicode="&#x2d8;" horiz-adv-x="130" 
d="M49 703q-2 -39 23 -65t67 -26t73.5 25t46.5 66h20q-12 -49 -50.5 -80t-88.5 -31q-51 0 -81 30t-30 81h20z" />
    <glyph glyph-name="dotaccent" unicode="&#x2d9;" horiz-adv-x="130" 
d="M118 671l-13 -81h-21l13 81h21z" />
    <glyph glyph-name="ring" unicode="&#x2da;" horiz-adv-x="130" 
d="M61 664q0 -32 22 -54t54 -22t54 22t22 54t-22 54t-54 22t-54 -22t-22 -54zM41 664q0 40 28 68t68 28t68 -28t28 -68t-28 -68t-68 -28t-68 28t-28 68z" />
    <glyph glyph-name="ogonek" unicode="&#x2db;" horiz-adv-x="130" 
d="M44 0h30q-59 -37 -86.5 -67.5t-27.5 -62.5q0 -16 9 -28t28 -12q43 0 78 40l13 -12q-40 -46 -91 -46q-58 0 -58 58q0 26 17.5 51.5t37 41.5t42.5 32q6 3 8 5z" />
    <glyph glyph-name="tilde" unicode="&#x2dc;" horiz-adv-x="130" 
d="M283 678q-7 -31 -26 -54t-49 -23q-25 0 -65 30.5t-64 30.5q-33 0 -53 -60h-20q7 34 26.5 57t52.5 23q24 0 63 -30.5t65 -30.5q30 0 51 57h19z" />
    <glyph glyph-name="hungarumlaut" unicode="&#x2dd;" horiz-adv-x="130" 
d="M200 587h-28l163 144h28zM40 587h-28l163 144h28z" />
    <glyph glyph-name="uni02EE" unicode="&#x2ee;" horiz-adv-x="278" 
d="M284 714l-29 -131q-20 -74 -74 -94l4 26q24 13 34.5 31.5t16.5 46.5l27 121h21zM183 714l-29 -131q-20 -74 -74 -94l4 26q24 13 34.5 31.5t16.5 46.5l27 121h21z" />
    <glyph glyph-name="gravecmb" unicode="&#x300;" horiz-adv-x="0" 
d="M-46 731l112 -144h-25l-112 144h25z" />
    <glyph glyph-name="acutecmb" unicode="&#x301;" horiz-adv-x="0" 
d="M-44 587h-28l163 144h28z" />
    <glyph glyph-name="circumflexcmb" unicode="&#x302;" horiz-adv-x="0" 
d="M131 587h-24l-82 130l-124 -130h-26l135 144h30z" />
    <glyph glyph-name="tildecmb" unicode="&#x303;" horiz-adv-x="0" 
d="M135 678h19q-7 -31 -26 -54t-49 -23q-25 0 -65 30.5t-64 30.5q-33 0 -53 -60h-20q7 34 26.5 57t52.5 23q24 0 63 -30.5t65 -30.5q30 0 51 57z" />
    <glyph glyph-name="macroncmb" unicode="&#x304;" horiz-adv-x="0" 
d="M131 649l-5 -20h-232l4 20h233z" />
    <glyph glyph-name="brevecmb" unicode="&#x306;" horiz-adv-x="0" 
d="M-100 703h20q-2 -39 23 -65t67 -26t73.5 25t46.5 66h20q-12 -49 -50.5 -80t-88.5 -31q-51 0 -81 30t-30 81z" />
    <glyph glyph-name="dotaccentcmb" unicode="&#x307;" horiz-adv-x="0" 
d="M-11 671l-13 -81h-21l13 81h21z" />
    <glyph glyph-name="dieresiscmb" unicode="&#x308;" horiz-adv-x="0" 
d="M-48 671l-13 -81h-21l13 81h21zM110 671l-13 -81h-21l13 81h21z" />
    <glyph glyph-name="hookabovecomb" unicode="&#x309;" horiz-adv-x="0" 
d="M-183 607l-14 -38h-12l12 50q81 8 92 53q5 24 -11 35.5t-55 11.5q-34 0 -65 -13l1 16q30 14 70 14q42 0 63.5 -15t15.5 -46q-15 -56 -97 -68z" />
    <glyph glyph-name="ringcmb" unicode="&#x30a;" horiz-adv-x="0" 
d="M-68 664q0 -32 22 -54t54 -22t54 22t22 54t-22 54t-54 22t-54 -22t-22 -54zM-88 664q0 40 28 68t68 28t68 -28t28 -68t-28 -68t-68 -28t-68 28t-28 68z" />
    <glyph glyph-name="hungarumlautcmb" unicode="&#x30b;" horiz-adv-x="0" 
d="M71 587h-28l163 144h28zM-89 587h-28l163 144h28z" />
    <glyph glyph-name="caroncmb" unicode="&#x30c;" horiz-adv-x="0" 
d="M-13 587l-91 144h24l82 -130l124 130h26l-135 -144h-30z" />
    <glyph glyph-name="uni030F" unicode="&#x30f;" horiz-adv-x="0" 
d="M-46 731l112 -144h-25l-112 144h25zM-176 731l112 -144h-25l-112 144h25z" />
    <glyph glyph-name="uni0311" unicode="&#x311;" horiz-adv-x="0" 
d="M150 592h-20q2 39 -23 65t-67 26t-73.5 -25t-46.5 -66h-20q12 49 50.5 80t88.5 31q51 0 81 -30t30 -81z" />
    <glyph glyph-name="uni0312" unicode="&#x312;" horiz-adv-x="0" 
d="M-50 489l29 131q20 74 74 94l-4 -26q-24 -13 -34.5 -31.5t-16.5 -46.5l-27 -121h-21z" />
    <glyph glyph-name="uni0313" unicode="&#x313;" horiz-adv-x="0" 
d="M53 714l-29 -131q-20 -74 -74 -94l4 26q24 13 34.5 31.5t16.5 46.5l27 121h21z" />
    <glyph glyph-name="uni0316" unicode="&#x316;" horiz-adv-x="0" 
d="M-46 17l112 -144h-25l-112 144h25z" />
    <glyph glyph-name="uni0317" unicode="&#x317;" horiz-adv-x="0" 
d="M-44 -127h-28l163 144h28z" />
    <glyph glyph-name="uni031B" unicode="&#x31b;" horiz-adv-x="833" 
d="M46 714v-98q0 -44 -35 -73q-38 -31 -59 -45l-4 24q19 11 48 31q30 23 30 63v98h20z" />
    <glyph glyph-name="dotbelowcomb" unicode="&#x323;" horiz-adv-x="0" 
d="M-11 -43l-13 -81h-21l13 81h21z" />
    <glyph glyph-name="uni0324" unicode="&#x324;" horiz-adv-x="0" 
d="M-48 -43l-13 -81h-21l13 81h21zM110 -43l-13 -81h-21l13 81h21z" />
    <glyph glyph-name="uni0325" unicode="&#x325;" horiz-adv-x="0" 
d="M-68 -50q0 -32 22 -54t54 -22t54 22t22 54t-22 54t-54 22t-54 -22t-22 -54zM-88 -50q0 40 28 68t68 28t68 -28t28 -68t-28 -68t-68 -28t-68 28t-28 68z" />
    <glyph glyph-name="uni0326" unicode="&#x326;" horiz-adv-x="0" 
d="M53 1l-29 -131q-20 -74 -74 -94l4 26q24 13 34.5 31.5t16.5 46.5l27 121h21z" />
    <glyph glyph-name="cedillacmb" unicode="&#x327;" horiz-adv-x="0" 
d="M-217 -161l8 19q40 -21 80 -21q26 0 49 14t23 39q0 21 -16 31.5t-37 10.5q-15 0 -54 -13l-15 9l72 72h26l-40 -41l-12 -9l2 -2q7 4 21 4q32 0 52.5 -16t20.5 -46q0 -36 -28 -54.5t-65 -18.5q-38 0 -87 22z" />
    <glyph glyph-name="ogonekcmb" unicode="&#x328;" horiz-adv-x="0" 
d="M-85 0h30q-59 -37 -86.5 -67.5t-27.5 -62.5q0 -16 9 -28t28 -12q43 0 78 40l13 -12q-40 -46 -91 -46q-58 0 -58 58q0 26 17.5 51.5t37 41.5t42.5 32q6 3 8 5z" />
    <glyph glyph-name="uni032C" unicode="&#x32c;" horiz-adv-x="0" 
d="M-13 -127l-91 144h24l82 -130l124 130h26l-135 -144h-30z" />
    <glyph glyph-name="uni032D" unicode="&#x32d;" horiz-adv-x="0" 
d="M131 -127h-24l-82 130l-124 -130h-26l135 144h30z" />
    <glyph glyph-name="uni032E" unicode="&#x32e;" horiz-adv-x="0" 
d="M-100 -11h20q-2 -39 23 -65t67 -26t73.5 25t46.5 66h20q-12 -49 -50.5 -80t-88.5 -31q-51 0 -81 30t-30 81z" />
    <glyph glyph-name="uni032F" unicode="&#x32f;" horiz-adv-x="0" 
d="M150 -122h-20q2 39 -23 65t-67 26t-73.5 -25t-46.5 -66h-20q12 49 50.5 80t88.5 31q51 0 81 -30t30 -81z" />
    <glyph glyph-name="uni0330" unicode="&#x330;" horiz-adv-x="0" 
d="M135 -36h19q-7 -31 -26 -54t-49 -23q-25 0 -65 30.5t-64 30.5q-33 0 -53 -60h-20q7 34 26.5 57t52.5 23q24 0 63 -30.5t65 -30.5q30 0 51 57z" />
    <glyph glyph-name="uni0331" unicode="&#x331;" horiz-adv-x="0" 
d="M131 -65l-5 -20h-232l4 20h233z" />
    <glyph glyph-name="soliduslongoverlaycmb" unicode="&#x338;" horiz-adv-x="0" 
d="M-338 -16l326 747h20l-327 -747h-19z" />
    <glyph glyph-name="uni0340.graveToneComb" unicode="&#x340;" horiz-adv-x="0" 
d="M-303 731l112 -144h-25l-112 144h25z" />
    <glyph glyph-name="uni0341.acuteToneComb" unicode="&#x341;" horiz-adv-x="0" 
d="M-287 587h-28l163 144h28z" />
    <glyph glyph-name="uni0344.diaeresisTonosComb" unicode="&#x344;" horiz-adv-x="0" 
d="M-139 685h21l-13 -81h-21zM-169 714h25l-117 -144h-16zM-289 685h21l-13 -81h-21z" />
    <glyph glyph-name="uni037E.semicolonGreek" unicode="&#x37e;" horiz-adv-x="278" 
d="M155 394l22 98h21l-22 -98h-21zM111 98l-29 -130q-20 -74 -74 -94l4 26q24 13 34.5 31.5t16.5 46.5l27 120h21z" />
    <glyph glyph-name="uni0384.tonos" unicode="&#x384;" horiz-adv-x="125" 
d="M182 714h25l-117 -144h-16z" />
    <glyph glyph-name="uni0385.diaeresisTonos" unicode="&#x385;" horiz-adv-x="189" 
d="M172 685h21l-13 -81h-21zM142 714h25l-117 -144h-16zM22 685h21l-13 -81h-21z" />
    <glyph glyph-name="uni0386.AlphaTonos" unicode="&#x386;" horiz-adv-x="584" 
d="M224 714h25l-117 -144h-16zM468 235h-366l-146 -235h-22l446 714h20l132 -714h-20zM465 255l-79 431h-2l-269 -431h350z" />
    <glyph glyph-name="uni0387.anoteleia" unicode="&#x387;" horiz-adv-x="267" 
d="M170 401l-21 -98h-19l21 98h19z" />
    <glyph glyph-name="uni0388.EpsilonTonos" unicode="&#x388;" horiz-adv-x="712" 
d="M141 714h25l-117 -144h-16zM537 20l-5 -20h-469l152 714h453l-4 -20h-433l-67 -312h404l-4 -20h-405l-73 -342h451z" />
    <glyph glyph-name="uni0389.EtaTonos" unicode="&#x389;" horiz-adv-x="816" 
d="M141 714h25l-117 -144h-16zM643 382l72 332h20l-153 -714h-20l77 362h-479l-78 -362h-19l152 714h20l-71 -332h479z" />
    <glyph glyph-name="uni038A.IotaTonos" unicode="&#x38a;" horiz-adv-x="318" 
d="M141 714h25l-117 -144h-16zM64 0l152 714h20l-153 -714h-19z" />
    <glyph glyph-name="uni038C.OmicronTonos" unicode="&#x38c;" horiz-adv-x="790" 
d="M144 714h25l-117 -144h-16zM727 434q0 128 -69 202.5t-197 74.5q-111 0 -194.5 -65t-123.5 -161.5t-40 -204.5q0 -126 71 -201.5t195 -75.5q110 0 193.5 65t124 161.5t40.5 204.5zM747 434q0 -85 -25.5 -165t-72 -144t-119.5 -102.5t-161 -38.5q-136 0 -211 79.5
t-75 216.5q0 85 25 165t71.5 144t119.5 103t162 39q135 0 210.5 -80t75.5 -217z" />
    <glyph glyph-name="uni038E.UpsilonTonos" unicode="&#x38e;" horiz-adv-x="824" 
d="M138 714h25l-117 -144h-16zM399 322l349 392h25l-366 -411l-65 -303h-21l65 303l-194 411h23z" />
    <glyph glyph-name="uni038F.OmegaTonos" unicode="&#x38f;" horiz-adv-x="745" 
d="M163 714h25l-117 -144h-16zM477 711q-150 0 -261 -115t-111 -272q0 -204 182 -292l-6 -32h-267l4 20h248v2q-181 88 -181 302q0 95 48 187.5t141 156t207 63.5q120 0 186 -69t66 -199q0 -139 -94.5 -256.5t-245.5 -184.5v-2h249l-4 -20h-268l6 32q144 58 240.5 176
t96.5 255q0 122 -62 185t-174 63z" />
    <glyph glyph-name="uni0390.iotaDiaeresisTonos" unicode="&#x390;" horiz-adv-x="142" 
d="M57 -1h-14q-46 0 -46 36q0 1 2 15l99 464h22l-99 -462q-1 -3 -1 -11q0 -23 31 -23q11 0 25 2l-4 -20q-5 -1 -15 -1zM212 685h21l-13 -81h-21zM182 714h25l-117 -144h-16zM62 685h21l-13 -81h-21z" />
    <glyph glyph-name="uni0391.Alpha" unicode="&#x391;" horiz-adv-x="574" 
d="M458 235h-366l-146 -235h-22l446 714h20l132 -714h-20zM455 255l-79 431h-2l-269 -431h350z" />
    <glyph glyph-name="uni0392.Beta" unicode="&#x392;" horiz-adv-x="611" 
d="M93 382h258q106 0 168.5 46t62.5 127q0 139 -155 139h-265zM144 714h277q181 0 181 -159q0 -82 -53 -128.5t-122 -53.5v-2q134 -12 134 -154q0 -103 -69 -160t-185 -57h-313zM17 20h302q37 0 73.5 10t71 31.5t56 61.5t21.5 94q0 38 -12 65.5t-30 42.5t-47 23.5t-54 11
t-60 2.5h-248z" />
    <glyph glyph-name="uni0393.Gamma" unicode="&#x393;" horiz-adv-x="481" 
d="M159 694l-149 -694h-20l153 714h436l-4 -20h-416z" />
    <glyph glyph-name="uni0394.Delta" unicode="&#x394;" horiz-adv-x="577" 
d="M-76 0l440 714h26l131 -714h-597zM-41 20h537l-121 674h-2z" />
    <glyph glyph-name="uni0395.Epsilon" unicode="&#x395;" horiz-adv-x="519" 
d="M465 20l-5 -20h-469l152 714h453l-4 -20h-433l-67 -312h404l-4 -20h-405l-73 -342h451z" />
    <glyph glyph-name="uni0396.Zeta" unicode="&#x396;" 
d="M457 20l-3 -20h-532l4 24l626 670h-475l5 20h497l-4 -24l-626 -670h508z" />
    <glyph glyph-name="uni0397.Eta" unicode="&#x397;" horiz-adv-x="648" 
d="M574 382l72 332h20l-153 -714h-20l77 362h-479l-78 -362h-19l152 714h20l-71 -332h479z" />
    <glyph glyph-name="uni0398.Theta" unicode="&#x398;" horiz-adv-x="722" 
d="M677 434q0 128 -69 202.5t-197 74.5q-111 0 -194.5 -65t-123.5 -161.5t-40 -204.5q0 -126 71 -201.5t195 -75.5q110 0 193.5 65t124 161.5t40.5 204.5zM697 434q0 -85 -25.5 -165t-72 -144t-119.5 -103t-161 -39q-136 0 -211 80t-75 217q0 85 25 165t71.5 144t119.5 103
t162 39q135 0 210.5 -80t75.5 -217zM184 343l4 20h364l-4 -20h-364z" />
    <glyph glyph-name="uni0399.Iota" unicode="&#x399;" horiz-adv-x="148" 
d="M-6 0l152 714h20l-153 -714h-19z" />
    <glyph glyph-name="uni039A.Kappa" unicode="&#x39a;" horiz-adv-x="593" 
d="M69 262l-56 -262h-19l151 714h20l-90 -424l576 424h33l-416 -307l292 -407h-24l-284 395z" />
    <glyph glyph-name="uni039B.Lambda" unicode="&#x39b;" horiz-adv-x="574" 
d="M374 686l-429 -686h-22l447 714h20l132 -714h-20l-126 686h-2z" />
    <glyph glyph-name="uni039C.Mu" unicode="&#x39c;" horiz-adv-x="796" 
d="M144 714h30l156 -692h2l450 692h32l-152 -714h-21l146 683l-2 2l-444 -685h-26l-154 685h-2l-145 -685h-20z" />
    <glyph glyph-name="uni039D.Nu" unicode="&#x39d;" horiz-adv-x="667" 
d="M505 0l-344 691h-2l-145 -691h-20l151 714h27l344 -691h2l146 691h21l-153 -714h-27z" />
    <glyph glyph-name="uni039E.Xi" unicode="&#x39e;" horiz-adv-x="510" 
d="M436 0h-477l4 20h477zM579 694h-470l4 20h470zM482 362h-418l5 20h418z" />
    <glyph glyph-name="uni039F.Omicron" unicode="&#x39f;" horiz-adv-x="722" 
d="M677 434q0 128 -69 202.5t-197 74.5q-111 0 -194.5 -65t-123.5 -161.5t-40 -204.5q0 -126 71 -201.5t195 -75.5q110 0 193.5 65t124 161.5t40.5 204.5zM697 434q0 -85 -25.5 -165t-72 -144t-119.5 -102.5t-161 -38.5q-136 0 -211 79.5t-75 216.5q0 85 25 165t71.5 144
t119.5 103t162 39q135 0 210.5 -80t75.5 -217z" />
    <glyph glyph-name="uni03A0.Pi" unicode="&#x3a0;" horiz-adv-x="648" 
d="M666 714l-153 -714h-20l149 694h-479l-150 -694h-20l153 714h520z" />
    <glyph glyph-name="uni03A1.Rho" unicode="&#x3a1;" horiz-adv-x="574" 
d="M9 0h-20l152 714h270q91 0 136.5 -45t45.5 -122q0 -29 -6 -57t-24 -59t-46.5 -53.5t-78 -37.5t-113.5 -15h-246zM82 345h249q111 0 176.5 52t65.5 150q0 147 -166 147h-250z" />
    <glyph glyph-name="uni03A3.Sigma" unicode="&#x3a3;" horiz-adv-x="488" 
d="M129 694l221 -317l-365 -357h438l-4 -20h-459l5 26l358 353l-217 308l5 27h455l-4 -20h-433z" />
    <glyph glyph-name="uni03A4.Tau" unicode="&#x3a4;" 
d="M60 694l4 20h537l-4 -20h-258l-148 -694h-21l148 694h-258z" />
    <glyph glyph-name="uni03A5.Upsilon" unicode="&#x3a5;" horiz-adv-x="519" 
d="M253 322l349 392h25l-366 -411l-65 -303h-21l65 303l-194 411h23z" />
    <glyph glyph-name="uni03A6.Phi" unicode="&#x3a6;" horiz-adv-x="692" 
d="M268 0l19 89q-135 2 -201.5 57.5t-66.5 155.5q0 142 89 238q102 113 299 117l19 87h19l-19 -87q134 -2 202 -59t68 -156q0 -136 -89 -234q-105 -115 -301 -119l-19 -89h-19zM595 222q82 95 82 220q0 93 -64 143t-191 52l-112 -528q186 1 285 113zM124 527
q-86 -97 -86 -226q0 -91 64 -140.5t189 -51.5l112 528q-183 -4 -279 -110z" />
    <glyph glyph-name="uni03A7.Chi" unicode="&#x3a7;" horiz-adv-x="519" 
d="M449 0l-185 351l-331 -351h-26l348 369l-182 345h23l175 -331l314 331h26l-331 -349l192 -365h-23z" />
    <glyph glyph-name="uni03A8.Psi" unicode="&#x3a8;" horiz-adv-x="703" 
d="M284 0l33 157q-111 1 -175 53.5t-64 151.5q0 36 9 78l58 274h19l-59 -279q-8 -40 -8 -70q0 -91 59 -138.5t165 -49.5l114 537h19l-114 -537q122 2 210.5 70.5t116.5 192.5l58 274h19l-58 -274q-29 -136 -123 -208.5t-227 -74.5l-33 -157h-19z" />
    <glyph glyph-name="Omegagreek" unicode="&#x3a9;" horiz-adv-x="693" 
d="M-22 0l4 20h198l26 117q-72 26 -109.5 81t-37.5 131q0 153 100.5 262.5t251.5 109.5q115 0 187.5 -72t72.5 -186q0 -123 -70 -213t-189 -114l-27 -116h201l-4 -20h-220l33 153q114 14 184.5 103t70.5 206q0 107 -66.5 173.5t-173.5 66.5q-143 0 -236.5 -105.5
t-93.5 -250.5q0 -71 40 -124t109 -69l-33 -153h-218z" />
    <glyph glyph-name="uni03AA.IotaDiaeresis" unicode="&#x3aa;" horiz-adv-x="148" 
d="M-6 0l152 714h20l-153 -714h-19zM118 871l-13 -81h-21l13 81h21zM276 871l-13 -81h-21l13 81h21z" />
    <glyph glyph-name="uni03AB.UpsilonDiaeresis" unicode="&#x3ab;" horiz-adv-x="519" 
d="M253 322l349 392h25l-366 -411l-65 -303h-21l65 303l-194 411h23zM297 871l-13 -81h-21l13 81h21zM455 871l-13 -81h-21l13 81h21z" />
    <glyph glyph-name="uni03AC.alphaTonos" unicode="&#x3ac;" horiz-adv-x="516" 
d="M437 -1h-14q-44 0 -44 36q0 1 2 15l20 94h-2q-35 -69 -93.5 -112.5t-123.5 -43.5q-88 0 -132 51.5t-44 145.5q0 81 32 158t97 130t147 53q77 0 120 -42.5t45 -113.5h2l32 144h19l-99 -462q-1 -3 -1 -11q0 -23 31 -23q11 0 25 2l-4 -20q-5 -1 -15 -1zM425 256q9 45 9 82
q0 81 -41 124.5t-115 43.5q-78 0 -137.5 -52.5t-87 -124t-27.5 -145.5q0 -81 40.5 -128.5t127.5 -47.5q78 0 143.5 72.5t87.5 175.5zM364 714h25l-117 -144h-16z" />
    <glyph glyph-name="uni03AD.epsilonTonos" unicode="&#x3ad;" horiz-adv-x="483" 
d="M431 370h-19q0 75 -34.5 105.5t-104.5 30.5q-77 0 -139.5 -42t-62.5 -112q0 -75 134 -75h69l-4 -20h-70q-89 0 -142.5 -39.5t-53.5 -110.5q0 -50 43 -74.5t106 -24.5q178 0 236 161h20q-63 -181 -260 -181q-69 0 -116.5 30.5t-47.5 89.5q0 65 43 105.5t115 52.5v2
q-91 16 -91 86q0 80 68.5 126t156.5 46q154 0 154 -156zM354 714h25l-117 -144h-16z" />
    <glyph glyph-name="uni03AE.etaTonos" unicode="&#x3ae;" 
d="M-19 0l111 514h21l-13 -64l-13 -58l2 -2q76 136 208 136q69 0 110 -36.5t41 -103.5q0 -35 -12 -81l-101 -482h-21l102 487l8 38q4 17 4 38q-1 58 -36.5 89t-94.5 31q-54 0 -97.5 -23t-72 -64t-46 -85t-28.5 -97l-51 -237h-21zM374 714h25l-117 -144h-16z" />
    <glyph glyph-name="uni03AF.iotaTonos" unicode="&#x3af;" horiz-adv-x="127" 
d="M48 -1h-14q-46 0 -46 36q0 1 2 15l99 464h22l-99 -462q-1 -3 -1 -11q0 -23 31 -23q11 0 25 2l-4 -20q-5 -1 -15 -1zM179 714h25l-117 -144h-16z" />
    <glyph glyph-name="uni03B0.upsilonDiaeresisTonos" unicode="&#x3b0;" horiz-adv-x="506" 
d="M203 671l-13 -81h-21l13 81h21zM431 671l-13 -81h-21l13 81h21zM166 8q69 0 123 33t85.5 87.5t48 119t16.5 132.5q0 87 -19 134h21q18 -56 18 -134q0 -163 -81.5 -277.5t-211.5 -114.5q-72 0 -113 35.5t-41 102.5q0 24 6 53l71 335h19l-72 -338q-6 -28 -6 -51
q0 -61 38 -89t98 -28zM344 714h25l-117 -144h-16z" />
    <glyph glyph-name="uni03B1.alpha" unicode="&#x3b1;" horiz-adv-x="516" 
d="M437 -1h-14q-44 0 -44 36q0 1 2 15l20 94h-2q-35 -69 -93.5 -112.5t-123.5 -43.5q-88 0 -132 51.5t-44 145.5q0 81 32 158t97 130t147 53q77 0 120 -42.5t45 -113.5h2l32 144h19l-99 -462q-1 -3 -1 -11q0 -23 31 -23q11 0 25 2l-4 -20q-5 -1 -15 -1zM425 256q9 45 9 82
q0 81 -41 124.5t-115 43.5q-78 0 -137.5 -52.5t-87 -124t-27.5 -145.5q0 -81 40.5 -128.5t127.5 -47.5q78 0 143.5 72.5t87.5 175.5z" />
    <glyph glyph-name="uni03B2.beta" unicode="&#x3b2;" horiz-adv-x="482" 
d="M181 -8q-67 0 -107 34t-55 85l-61 -288h-19l154 724q19 92 80 137t146 45q63 0 101 -35t38 -95q0 -73 -46.5 -130t-119.5 -69l-1 -2q135 -14 135 -144q0 -105 -67 -183.5t-178 -78.5zM207 387l4 20q96 0 162.5 48t66.5 143q0 53 -33.5 82t-91.5 29q-76 0 -131.5 -41
t-73.5 -128l-84 -398q11 -62 51.5 -96t107.5 -34q99 0 161.5 75t62.5 170q0 75 -51.5 102.5t-150.5 27.5z" />
    <glyph glyph-name="uni03B3.gamma" unicode="&#x3b3;" horiz-adv-x="418" 
d="M430 514h21q-61 -164 -142 -293t-188 -254l-30 -144h-19l26 125q20 91 20 194q0 216 -79 372h21q34 -66 55.5 -167t21.5 -205q0 -80 -11 -142h2q193 227 302 514z" />
    <glyph glyph-name="uni03B4.delta" unicode="&#x3b4;" horiz-adv-x="498" 
d="M473 696l-5 -22q-27 27 -109 27q-35 0 -67.5 -7t-60.5 -30t-28 -60q0 -32 34 -63q22 -19 42 -32l45 -29q51 -31 83 -70q40 -52 40 -126q0 -102 -64 -189q-80 -107 -216 -107q-82 0 -124.5 47.5t-42.5 125.5q0 123 88 217q83 88 187 110l1 2q-31 18 -53 37q-40 36 -40 73
q0 61 52.5 91t122.5 30q84 0 115 -25zM392 398q-36 44 -96 78q-46 -6 -98.5 -35t-94.5 -74q-84 -91 -84 -204q0 -70 38 -112.5t111 -42.5q123 0 200 100q61 82 61 174q0 72 -37 116z" />
    <glyph glyph-name="uni03B5.epsilon" unicode="&#x3b5;" horiz-adv-x="483" 
d="M431 370h-19q0 75 -34.5 105.5t-104.5 30.5q-77 0 -139.5 -42t-62.5 -112q0 -75 134 -75h69l-4 -20h-70q-89 0 -142.5 -39.5t-53.5 -110.5q0 -50 43 -74.5t106 -24.5q178 0 236 161h20q-63 -181 -260 -181q-69 0 -116.5 30.5t-47.5 89.5q0 65 43 105.5t115 52.5v2
q-91 16 -91 86q0 80 68.5 126t156.5 46q154 0 154 -156z" />
    <glyph glyph-name="uni03B6.zeta" unicode="&#x3b6;" horiz-adv-x="417" 
d="M152 694l4 20h349l-5 -24q-80 -38 -139.5 -70.5t-126.5 -81.5t-109.5 -98.5t-71 -117.5t-28.5 -143q0 -159 161 -159h40q94 0 94 -62q0 -56 -42 -112h-22q44 60 44 111q0 22 -17.5 32.5t-60.5 10.5h-40q-87 0 -131.5 45.5t-44.5 130.5q0 78 27 147t68 119.5t105.5 99.5
t123 82t136.5 70h-314z" />
    <glyph glyph-name="uni03B7.eta" unicode="&#x3b7;" 
d="M-19 0l111 514h21l-13 -64l-13 -58l2 -2q76 136 208 136q69 0 110 -36.5t41 -103.5q0 -35 -12 -81l-101 -482h-21l102 487l8 38q4 17 4 38q-1 58 -36.5 89t-94.5 31q-54 0 -97.5 -23t-72 -64t-46 -85t-28.5 -97l-51 -237h-21z" />
    <glyph glyph-name="uni03B8.theta" unicode="&#x3b8;" horiz-adv-x="510" 
d="M15 200q0 88 23 180t63.5 169.5t102.5 127t132 49.5q81 0 121 -56t40 -156q0 -118 -37.5 -237t-113 -204t-168.5 -85q-82 0 -122.5 56t-40.5 156zM35 200q0 -91 35.5 -141.5t107.5 -50.5q98 0 172.5 98t106.5 241h-407q-15 -75 -15 -147zM336 706q-99 0 -174.5 -98.5
t-107.5 -240.5h407q16 71 16 147q0 91 -35 141.5t-106 50.5z" />
    <glyph glyph-name="uni03B9.iota" unicode="&#x3b9;" horiz-adv-x="127" 
d="M48 -1h-14q-46 0 -46 36q0 1 2 15l99 464h22l-99 -462q-1 -3 -1 -11q0 -23 31 -23q11 0 25 2l-4 -20q-5 -1 -15 -1z" />
    <glyph glyph-name="uni03BA.kappa" unicode="&#x3ba;" horiz-adv-x="444" 
d="M36 202l-43 -202h-21l113 514h21l-63 -283l408 283h34l-306 -214l214 -300h-27l-204 289z" />
    <glyph glyph-name="uni03BB.lambda" unicode="&#x3bb;" horiz-adv-x="456" 
d="M387 -1h-15q-39 0 -44 40l-66 448l-299 -487h-21l314 509l-19 119q-6 43 -24.5 54.5t-76.5 11.5l4 20q59 0 84 -14.5t31 -57.5l93 -600q2 -14 10 -19t23 -5q9 0 25 2l-4 -20q-5 -1 -15 -1z" />
    <glyph glyph-name="uni03BC.mu" unicode="&#x3bc;" horiz-adv-x="556" 
d="M398 0h-21l13 64l13 58l-2 2q-37 -67 -86.5 -101t-121.5 -34q-59 0 -99 32.5t-40 107.5h-2l-12 -76l-49 -229h-21l148 688h21l-59 -273q-9 -52 -9 -90q0 -141 122 -141q54 0 97.5 23t72 64t46 85t28.5 97l50 237h22z" />
    <glyph glyph-name="uni03BD.nu" unicode="&#x3bd;" horiz-adv-x="417" 
d="M157 0h-23l-94 514h21l88 -494h2q210 244 283 494h23q-88 -280 -300 -514z" />
    <glyph glyph-name="uni03BE.xi" unicode="&#x3be;" horiz-adv-x="419" 
d="M328 711q-86 0 -153.5 -62t-67.5 -153q0 -106 142 -106h114l-4 -20h-115q-90 0 -162 -58t-72 -163q0 -61 39 -95t114 -34h41q94 0 94 -62q0 -50 -42 -112h-21q20 27 32 57.5t12 49.5q0 47 -79 47h-41q-80 0 -124 40t-44 109q0 90 55 154t141 76v2q-46 6 -73 36.5
t-27 77.5q0 92 69 164t176 72q74 0 121 -26l-4 -22q-60 28 -121 28z" />
    <glyph glyph-name="uni03BF.omicron" unicode="&#x3bf;" horiz-adv-x="519" 
d="M26 191q0 -86 45.5 -134.5t131.5 -48.5q78 0 136.5 48.5t85.5 117t27 141.5q0 90 -48 140.5t-130 50.5q-78 0 -136.5 -48.5t-85 -118.5t-26.5 -148zM6 191q0 135 72.5 235t195.5 100q92 0 145 -58t53 -153q0 -58 -18 -115t-50.5 -104.5t-85 -77t-115.5 -29.5
q-95 0 -146 53.5t-51 148.5z" />
    <glyph glyph-name="pi" unicode="&#x3c0;" horiz-adv-x="556" 
d="M407 -4q-46 0 -46 45q0 11 7 46l87 407h-294l-105 -494h-20l105 494h-72l4 20h482l-4 -20h-76l-88 -414q-5 -20 -5 -34q0 -31 28 -31q26 0 48 16l-5 -22q-22 -13 -46 -13z" />
    <glyph glyph-name="uni03C1.rho" unicode="&#x3c1;" horiz-adv-x="537" 
d="M-45 -177l92 436q28 133 100.5 200t160.5 67q91 0 136.5 -58.5t45.5 -150.5q0 -78 -31.5 -152.5t-95 -125.5t-143.5 -51q-78 0 -124.5 39t-51.5 108h-2l-66 -312h-21zM470 313q0 86 -39.5 139.5t-122.5 53.5q-77 0 -136.5 -55.5t-87 -130t-27.5 -147.5q0 -77 41.5 -121
t121.5 -44q73 0 132 48t88.5 117t29.5 140z" />
    <glyph glyph-name="uni03C2.sigma1" unicode="&#x3c2;" 
d="M463 359h-20q0 71 -43.5 109t-119.5 38q-78 0 -136.5 -48.5t-85 -118.5t-26.5 -148q0 -86 37 -128.5t117 -42.5h40q94 0 94 -62q0 -56 -42 -112h-22q44 60 44 111q0 22 -17.5 32.5t-60.5 10.5h-40q-90 0 -130 48t-40 143q0 135 72.5 235t195.5 100q86 0 134.5 -43.5
t48.5 -123.5z" />
    <glyph glyph-name="uni03C3.sigma" unicode="&#x3c3;" horiz-adv-x="533" 
d="M6 193q0 57 20 113.5t55.5 103t91.5 75.5t121 29h244l-4 -20h-164q101 -48 101 -177q0 -81 -33.5 -156t-97.5 -124t-142 -49q-94 0 -143 57.5t-49 147.5zM286 494q-110 0 -185.5 -90.5t-75.5 -206.5q0 -83 45 -136t133 -53q105 0 177 96t72 216q0 77 -43.5 125.5
t-122.5 48.5z" />
    <glyph glyph-name="uni03C4.tau" unicode="&#x3c4;" horiz-adv-x="400" 
d="M168 -1h-14q-46 0 -46 36q0 1 2 15l94 444h-182l4 20h391l-4 -20h-187l-94 -442q-1 -3 -1 -11q0 -23 31 -23q11 0 25 2l-4 -20q-5 -1 -15 -1z" />
    <glyph glyph-name="uni03C5.upsilon" unicode="&#x3c5;" horiz-adv-x="506" 
d="M166 8q69 0 123 33t85.5 87.5t48 119t16.5 132.5q0 87 -19 134h21q18 -56 18 -134q0 -163 -81.5 -277.5t-211.5 -114.5q-72 0 -113 35.5t-41 102.5q0 24 6 53l71 335h19l-72 -338q-6 -28 -6 -51q0 -61 38 -89t98 -28z" />
    <glyph glyph-name="uni03C6.phi" unicode="&#x3c6;" horiz-adv-x="594" 
d="M547 323q0 -130 -92.5 -232.5t-225.5 -102.5l-35 -165h-19l35 165q-98 0 -151 54t-53 149q0 130 92.5 232.5t225.5 102.5l30 140h19l-30 -140q98 0 151 -54t53 -149zM214 8l106 498q-124 -2 -209 -100t-85 -215q0 -86 47.5 -134.5t140.5 -48.5zM527 323q0 86 -47.5 134.5
t-140.5 48.5l-106 -498q124 2 209 100t85 215z" />
    <glyph glyph-name="uni03C7.chi" unicode="&#x3c7;" horiz-adv-x="391" 
d="M133 184l-125 330h21l118 -312l251 312h26l-269 -333l136 -358h-21l-129 340l-274 -340h-25z" />
    <glyph glyph-name="uni03C8.psi" unicode="&#x3c8;" horiz-adv-x="540" 
d="M200 -12l-35 -165h-20l35 165q-73 0 -120.5 36t-47.5 102q0 24 6 53l71 335h19l-72 -338q-6 -28 -6 -51q0 -60 46 -88.5t108 -28.5l140 658h20l-140 -658q68 0 121.5 33t84.5 87.5t47 119t16 132.5q0 87 -19 134h21q18 -56 18 -134q0 -163 -81.5 -277.5t-211.5 -114.5z
" />
    <glyph glyph-name="uni03C9.omega" unicode="&#x3c9;" horiz-adv-x="679" 
d="M119 514h22q-52 -75 -84 -172t-32 -190q0 -144 105 -144q56 0 99 40t61 128l48 228h19l-48 -228q-8 -40 -8 -64q0 -104 96 -104q63 0 113.5 59t77 153.5t26.5 202.5q0 53 -8 91h18q8 -40 8 -97q0 -110 -29 -207.5t-84 -159.5t-124 -62q-107 0 -110 119
q-50 -119 -161 -119q-59 0 -88.5 43.5t-29.5 119.5q0 94 31 190t82 173z" />
    <glyph glyph-name="uni03CA.iotaDiaeresis" unicode="&#x3ca;" horiz-adv-x="167" 
d="M62 -1h-14q-46 0 -46 36q0 1 2 15l99 464h22l-99 -462q-1 -3 -1 -11q0 -23 31 -23q11 0 25 2l-4 -20q-5 -1 -15 -1zM77 671l-13 -81h-21l13 81h21zM235 671l-13 -81h-21l13 81h21z" />
    <glyph glyph-name="uni03CB.upsilonDiaeresis" unicode="&#x3cb;" horiz-adv-x="506" 
d="M166 8q69 0 123 33t85.5 87.5t48 119t16.5 132.5q0 87 -19 134h21q18 -56 18 -134q0 -163 -81.5 -277.5t-211.5 -114.5q-72 0 -113 35.5t-41 102.5q0 24 6 53l71 335h19l-72 -338q-6 -28 -6 -51q0 -61 38 -89t98 -28zM223 671l-13 -81h-21l13 81h21zM381 671l-13 -81h-21
l13 81h21z" />
    <glyph glyph-name="uni03CC.omicronTonos" unicode="&#x3cc;" horiz-adv-x="519" 
d="M26 191q0 -86 45.5 -134.5t131.5 -48.5q78 0 136.5 48.5t85.5 117t27 141.5q0 90 -48 140.5t-130 50.5q-78 0 -136.5 -48.5t-85 -118.5t-26.5 -148zM6 191q0 135 72.5 235t195.5 100q92 0 145 -58t53 -153q0 -58 -18 -115t-50.5 -104.5t-85 -77t-115.5 -29.5
q-95 0 -146 53.5t-51 148.5zM364 714h25l-117 -144h-16z" />
    <glyph glyph-name="uni03CD.upsilonTonos" unicode="&#x3cd;" horiz-adv-x="506" 
d="M166 8q69 0 123 33t85.5 87.5t48 119t16.5 132.5q0 87 -19 134h21q18 -56 18 -134q0 -163 -81.5 -277.5t-211.5 -114.5q-72 0 -113 35.5t-41 102.5q0 24 6 53l71 335h19l-72 -338q-6 -28 -6 -51q0 -61 38 -89t98 -28zM352 714h25l-117 -144h-16z" />
    <glyph glyph-name="uni03CE.omegaTonos" unicode="&#x3ce;" horiz-adv-x="679" 
d="M119 514h22q-52 -75 -84 -172t-32 -190q0 -144 105 -144q56 0 99 40t61 128l48 228h19l-48 -228q-8 -40 -8 -64q0 -104 96 -104q63 0 113.5 59t77 153.5t26.5 202.5q0 53 -8 91h18q8 -40 8 -97q0 -110 -29 -207.5t-84 -159.5t-124 -62q-107 0 -110 119
q-50 -119 -161 -119q-59 0 -88.5 43.5t-29.5 119.5q0 94 31 190t82 173zM449 714h25l-117 -144h-16z" />
    <glyph glyph-name="uni0400" unicode="&#x400;" horiz-adv-x="519" 
d="M-9 0l152 714h453l-4 -20h-433l-67 -312h404l-4 -20h-405l-73 -342h451l-5 -20h-469zM306 895l112 -144h-25l-112 144h25z" />
    <glyph glyph-name="afii10023" unicode="&#x401;" horiz-adv-x="519" 
d="M-9 0l152 714h453l-4 -20h-433l-67 -312h404l-4 -20h-405l-73 -342h451l-5 -20h-469zM314 835l-13 -81h-21l13 81h21zM472 835l-13 -81h-21l13 81h21z" />
    <glyph glyph-name="afii10051" unicode="&#x402;" horiz-adv-x="717" 
d="M409 -13q-45 0 -60 3l5 20q13 -3 58 -3q105 0 175.5 72.5t70.5 189.5q0 81 -50.5 125t-130.5 44q-95 0 -176.5 -71t-105.5 -181l-39 -186h-20l147 694h-227l4 20h534l-4 -20h-287l-83 -392h2q37 70 111 113t154 43q84 0 138 -48.5t54 -135.5q0 -127 -77 -207t-193 -80z
" />
    <glyph glyph-name="afii10052" unicode="&#x403;" horiz-adv-x="463" 
d="M-6 0l151 714h419l-4 -20h-399l-147 -694h-20zM334 751h-28l163 144h28z" />
    <glyph glyph-name="afii10053" unicode="&#x404;" horiz-adv-x="685" 
d="M306 -16q-124 0 -198.5 78.5t-74.5 211.5q0 115 43.5 217.5t133.5 171t208 68.5q112 0 185.5 -59.5t81.5 -157.5h-22q-6 85 -75 141t-172 56q-94 0 -170 -47t-120 -119.5t-62 -163.5h417l-3 -19h-418q-7 -41 -7 -89q0 -123 69.5 -196.5t183.5 -73.5q110 0 194 62t122 172
h21q-32 -112 -125 -182.5t-212 -70.5z" />
    <glyph glyph-name="afii10054" unicode="&#x405;" horiz-adv-x="611" 
d="M265 -16q-127 0 -203 64.5t-65 188.5h20q-12 -109 58.5 -171.5t189.5 -62.5q22 0 45.5 3.5t51 10.5t51 21.5t43 34.5t31 50.5t11.5 68.5q0 49 -30 82.5t-74.5 48.5t-96.5 31.5t-96.5 33t-74.5 53t-30 90.5q2 99 72.5 149.5t172.5 50.5q118 0 184 -53.5t58 -167.5h-20
q8 105 -53 153t-169 48q-58 0 -106.5 -17.5t-83 -59.5t-35.5 -103q-1 -42 20.5 -72t57 -46.5t78.5 -29.5t86.5 -26.5t79 -32t58 -52t22.5 -80.5q0 -59 -25 -102t-65 -65t-80.5 -31.5t-82.5 -9.5z" />
    <glyph glyph-name="afii10055" unicode="&#x406;" horiz-adv-x="148" 
d="M-6 0l152 714h20l-153 -714h-19z" />
    <glyph glyph-name="afii10056" unicode="&#x407;" horiz-adv-x="148" 
d="M-6 0l152 714h20l-153 -714h-19zM107 835l-13 -81h-21l13 81h21zM265 835l-13 -81h-21l13 81h21z" />
    <glyph glyph-name="afii10057" unicode="&#x408;" horiz-adv-x="463" 
d="M163 -16q-91 0 -137 42.5t-46 117.5q0 46 9 76h19q-8 -45 -8 -76q0 -70 43 -105.5t120 -35.5q86 0 125.5 48.5t60.5 142.5l111 520h21l-113 -529q-9 -43 -21.5 -74.5t-35 -62.5t-60 -47.5t-88.5 -16.5z" />
    <glyph glyph-name="afii10058" unicode="&#x409;" horiz-adv-x="1106" 
d="M-16 -5q-29 0 -54 5l5 21q23 -6 53 -6q27 0 51.5 13t46 41.5t40.5 62t37.5 86t33 101t31.5 120.5t30 131t31 144h407l-66 -315h198q92 0 129 -12q52 -16 81.5 -59.5t29.5 -105.5q0 -81 -46 -139t-124 -74q-41 -9 -126 -9h-247l147 694h-367q-17 -78 -27 -123t-25 -110.5
t-26 -104t-26 -90t-28 -81t-30 -65t-33.5 -55t-36.5 -37.5t-42 -25.5t-47 -7.5zM548 20h258q58 0 91.5 7.5t63.5 26.5q39 25 62.5 71.5t23.5 98.5q0 62 -37 105q-26 29 -65.5 39.5t-118.5 10.5h-200z" />
    <glyph glyph-name="afii10059" unicode="&#x40a;" horiz-adv-x="1076" 
d="M-6 0l152 714h20l-69 -322h479l70 322h20l-68 -322h200q92 0 129 -12q52 -16 81.5 -57.5t29.5 -103.5q0 -81 -46 -137.5t-124 -72.5q-41 -9 -126 -9h-249l79 372h-479l-80 -372h-19zM518 20h258q58 0 91.5 7.5t63.5 26.5q39 25 62.5 70t23.5 97q0 58 -37 101
q-26 29 -65.5 39.5t-118.5 10.5h-202z" />
    <glyph glyph-name="afii10060" unicode="&#x40b;" horiz-adv-x="717" 
d="M136 0l147 694h-227l4 20h534l-4 -20h-287l-71 -335q37 32 108.5 62t142.5 30q94 0 136 -37.5t42 -112.5q0 -35 -11 -87l-45 -214h-20l49 231q8 43 8 66q0 134 -159 134q-69 0 -144 -32t-113 -67l-70 -332h-20z" />
    <glyph glyph-name="afii10061" unicode="&#x40c;" horiz-adv-x="593" 
d="M-6 0l151 714h20l-90 -424l576 424h33l-416 -307l292 -407h-24l-284 395l-183 -133l-56 -262h-19zM369 751h-28l163 144h28z" />
    <glyph glyph-name="uni040D" unicode="&#x40d;" horiz-adv-x="648" 
d="M-6 0l151 714h20l-148 -697l617 697h31l-151 -714h-20l148 697l-617 -697h-31zM330 895l112 -144h-25l-112 144h25z" />
    <glyph glyph-name="afii10062" unicode="&#x40e;" horiz-adv-x="537" 
d="M49 -10q-44 0 -74 10l5 22q36 -12 72 -12q70 0 127 81l43 63l-144 560h21l139 -537l366 537h24l-432 -636q-61 -88 -147 -88zM351 756q-51 0 -81.5 29.5t-28.5 81.5h20q-1 -43 23.5 -67t66.5 -24q88 0 123 91h20q-39 -111 -143 -111z" />
    <glyph glyph-name="afii10145" unicode="&#x40f;" horiz-adv-x="642" 
d="M211 -176l38 176h-255l151 714h20l-147 -694h474l147 694h20l-151 -714h-239l-38 -176h-20z" />
    <glyph glyph-name="afii10017" unicode="&#x410;" horiz-adv-x="574" 
d="M-76 0l446 714h20l132 -714h-20l-44 235h-366l-146 -235h-22zM105 255h350l-79 431h-2z" />
    <glyph glyph-name="afii10018" unicode="&#x411;" horiz-adv-x="611" 
d="M-6 0l151 714h454l-4 -20h-434l-61 -294h218q88 0 129 -13q52 -16 81.5 -59.5t29.5 -105.5q0 -81 -46 -139t-124 -74q-43 -9 -126 -9h-268zM17 20h279q98 0 155 34q39 25 62.5 71.5t23.5 98.5q0 62 -37 105q-26 30 -65.5 40.5t-118.5 10.5h-222z" />
    <glyph glyph-name="afii10019" unicode="&#x412;" horiz-adv-x="611" 
d="M-6 0l150 714h277q181 0 181 -159q0 -82 -53 -128.5t-122 -53.5v-2q134 -12 134 -154q0 -103 -69 -160t-185 -57h-313zM17 20h302q37 0 73.5 10t71 31.5t56 61.5t21.5 94q0 38 -12 65.5t-30 42.5t-47 23.5t-54 11t-60 2.5h-248zM93 382h258q106 0 168.5 46t62.5 127
q0 139 -155 139h-265z" />
    <glyph glyph-name="afii10020" unicode="&#x413;" horiz-adv-x="463" 
d="M-6 0l151 714h419l-4 -20h-399l-147 -694h-20z" />
    <glyph glyph-name="afii10021" unicode="&#x414;" horiz-adv-x="690" 
d="M-97 -176l41 196h66q55 74 97.5 158.5t73 179.5t44.5 150t35 147l12 59h399l-147 -694h80l-42 -196h-20l38 176h-620l-37 -176h-20zM34 20h470l143 674h-359l-15 -71q-17 -79 -33 -138t-44 -146t-69.5 -168.5t-92.5 -150.5z" />
    <glyph glyph-name="afii10022" unicode="&#x415;" horiz-adv-x="519" 
d="M-9 0l152 714h453l-4 -20h-433l-67 -312h404l-4 -20h-405l-73 -342h451l-5 -20h-469z" />
    <glyph glyph-name="afii10024" unicode="&#x416;" horiz-adv-x="978" 
d="M-96 0l428 420l-228 294h25l335 -431l90 431h20l-90 -429l500 429h29l-354 -305l272 -409h-24l-263 395l-167 -142l-54 -253h-20l55 256l-115 149l-410 -405h-29z" />
    <glyph glyph-name="afii10025" unicode="&#x417;" horiz-adv-x="595" 
d="M276 -16q-126 0 -193 58.5t-67 167.5q0 14 1 27h20q-1 -12 -1 -23q0 -211 243 -211q110 0 176 58.5t66 159.5q0 64 -45.5 104.5t-125.5 40.5h-100l3 20h100q88 0 149.5 47.5t61.5 131.5q0 69 -52 107.5t-145 38.5q-111 0 -173.5 -49.5t-82.5 -148.5h-20q21 106 91.5 162
t188.5 56q99 0 156.5 -43t57.5 -122q0 -76 -49 -127.5t-127 -61.5l-1 -2q57 -4 95.5 -48t38.5 -105q0 -111 -72 -174.5t-194 -63.5z" />
    <glyph glyph-name="afii10026" unicode="&#x418;" horiz-adv-x="648" 
d="M-6 0l151 714h20l-148 -697l617 697h31l-151 -714h-20l148 697l-617 -697h-31z" />
    <glyph glyph-name="afii10027" unicode="&#x419;" horiz-adv-x="648" 
d="M-6 0l151 714h20l-148 -697l617 697h31l-151 -714h-20l148 697l-617 -697h-31zM399 756q-51 0 -81.5 29.5t-28.5 81.5h20q-1 -43 23.5 -67t66.5 -24q88 0 123 91h20q-39 -111 -143 -111z" />
    <glyph glyph-name="afii10028" unicode="&#x41a;" horiz-adv-x="593" 
d="M-6 0l151 714h20l-90 -424l576 424h33l-416 -307l292 -407h-24l-284 395l-183 -133l-56 -262h-19z" />
    <glyph glyph-name="afii10029" unicode="&#x41b;" horiz-adv-x="679" 
d="M-16 -5q-29 0 -54 5l5 21q23 -6 53 -6q27 0 51.5 13t46 41.5t40.5 62t37.5 86t33 101t31.5 120.5t30 131t31 144h407l-151 -714h-20l147 694h-367q-17 -78 -27 -123t-25 -110.5t-26 -104t-26 -90t-28 -81t-30 -65t-33.5 -55t-36.5 -37.5t-42 -25.5t-47 -7.5z" />
    <glyph glyph-name="afii10030" unicode="&#x41c;" horiz-adv-x="796" 
d="M-6 0l150 714h30l156 -692h2l450 692h32l-152 -714h-21l146 683l-2 2l-444 -685h-26l-154 685h-2l-145 -685h-20z" />
    <glyph glyph-name="afii10031" unicode="&#x41d;" horiz-adv-x="648" 
d="M-6 0l152 714h20l-71 -332h479l72 332h20l-153 -714h-20l77 362h-479l-78 -362h-19z" />
    <glyph glyph-name="afii10032" unicode="&#x41e;" horiz-adv-x="722" 
d="M319 -16q-136 0 -211 79.5t-75 216.5q0 85 25 165t71.5 144t119.5 103t162 39q135 0 210.5 -80t75.5 -217q0 -85 -25.5 -165t-72 -144t-119.5 -102.5t-161 -38.5zM319 3q110 0 193.5 65t124 161.5t40.5 204.5q0 128 -69 202.5t-197 74.5q-111 0 -194.5 -65t-123.5 -161.5
t-40 -204.5q0 -126 71 -201.5t195 -75.5z" />
    <glyph glyph-name="afii10033" unicode="&#x41f;" horiz-adv-x="642" 
d="M-6 0l151 714h514l-151 -714h-19l147 694h-476l-147 -694h-19z" />
    <glyph glyph-name="afii10034" unicode="&#x420;" horiz-adv-x="574" 
d="M-11 0l152 714h270q91 0 136.5 -45t45.5 -122q0 -29 -6 -57t-24 -59t-46.5 -53.5t-78 -37.5t-113.5 -15h-246l-70 -325h-20zM82 345h249q111 0 176.5 52t65.5 150q0 147 -166 147h-250z" />
    <glyph glyph-name="afii10035" unicode="&#x421;" horiz-adv-x="685" 
d="M308 -16q-128 0 -201.5 78t-73.5 211q0 84 25.5 165t72.5 147t122 106t166 40q110 0 188 -63t78 -169h-20q0 95 -73.5 153.5t-172.5 58.5q-112 0 -197.5 -64.5t-127 -162.5t-41.5 -211q0 -130 71 -200t184 -70q115 0 200.5 67t119.5 182h20q-31 -119 -123 -193.5
t-217 -74.5z" />
    <glyph glyph-name="afii10036" unicode="&#x422;" 
d="M170 0l148 694h-258l4 20h537l-4 -20h-258l-148 -694h-21z" />
    <glyph glyph-name="afii10037" unicode="&#x423;" horiz-adv-x="537" 
d="M49 -10q-44 0 -74 10l5 22q36 -12 72 -12q70 0 127 81l43 63l-144 560h21l139 -537l366 537h24l-432 -636q-61 -88 -147 -88z" />
    <glyph glyph-name="afii10038" unicode="&#x424;" horiz-adv-x="738" 
d="M280 -16l19 86q-126 2 -201.5 71.5t-75.5 182.5q0 141 107 235t283 94h10l17 78h20l-17 -78q126 -2 201 -72.5t75 -184.5q0 -141 -106.5 -233.5t-283.5 -92.5h-9l-19 -86h-20zM303 89l115 545h-9q-164 0 -265 -87.5t-101 -219.5q0 -106 69.5 -170t190.5 -68zM323 89h9
q165 0 265 86t100 218q0 107 -69 173t-190 68z" />
    <glyph glyph-name="afii10039" unicode="&#x425;" horiz-adv-x="519" 
d="M-93 0l348 369l-182 345h23l175 -331l314 331h26l-331 -349l192 -365h-23l-185 351l-331 -351h-26z" />
    <glyph glyph-name="afii10040" unicode="&#x426;" horiz-adv-x="664" 
d="M516 -176l38 176h-560l151 714h20l-147 -694h460l147 694h20l-147 -694h80l-42 -196h-20z" />
    <glyph glyph-name="afii10041" unicode="&#x427;" horiz-adv-x="595" 
d="M436 0l75 353q-53 -22 -129 -41t-130 -19q-104 0 -145.5 35.5t-41.5 102.5q0 48 19 129l33 154h20l-34 -161q-17 -77 -17 -117q0 -59 36.5 -91t130.5 -32q54 0 129 18t133 42l72 341h20l-151 -714h-20z" />
    <glyph glyph-name="afii10042" unicode="&#x428;" horiz-adv-x="988" 
d="M-6 0l151 714h20l-147 -694h400l147 694h20l-147 -694h400l147 694h20l-151 -714h-860z" />
    <glyph glyph-name="afii10043" unicode="&#x429;" horiz-adv-x="1024" 
d="M876 -176l38 176h-920l151 714h20l-147 -694h400l147 694h20l-147 -694h400l147 694h20l-147 -694h80l-42 -196h-20z" />
    <glyph glyph-name="afii10044" unicode="&#x42a;" horiz-adv-x="710" 
d="M129 0l147 694h-216l4 20h236l-66 -315h198q92 0 129 -12q52 -16 81.5 -59.5t29.5 -105.5q0 -81 -46 -139t-124 -74q-41 -9 -126 -9h-247zM152 20h258q58 0 91.5 7.5t63.5 26.5q39 25 62.5 71.5t23.5 98.5q0 62 -37 105q-26 29 -65.5 39.5t-118.5 10.5h-200z" />
    <glyph glyph-name="afii10045" unicode="&#x42b;" horiz-adv-x="778" 
d="M-6 0l151 714h20l-66 -315h198q92 0 129 -12q52 -16 81.5 -59.5t29.5 -105.5q0 -81 -46 -139t-124 -74q-41 -9 -126 -9h-247zM17 20h258q58 0 91.5 7.5t63.5 26.5q39 25 62.5 71.5t23.5 98.5q0 62 -37 105q-26 29 -65.5 39.5t-118.5 10.5h-200zM624 0l151 714h20
l-151 -714h-20z" />
    <glyph glyph-name="afii10046" unicode="&#x42c;" horiz-adv-x="575" 
d="M-6 0l151 714h20l-66 -315h198q92 0 129 -12q52 -16 81.5 -59.5t29.5 -105.5q0 -81 -46 -139t-124 -74q-41 -9 -126 -9h-247zM17 20h258q58 0 91.5 7.5t63.5 26.5q39 25 62.5 71.5t23.5 98.5q0 62 -37 105q-26 29 -65.5 39.5t-118.5 10.5h-200z" />
    <glyph glyph-name="afii10047" unicode="&#x42d;" horiz-adv-x="685" 
d="M277 -16q-124 0 -193.5 67.5t-71.5 186.5h20q5 -114 67 -174t180 -60q147 0 241 103.5t116 254.5h-419l3 20h419q3 27 3 56q0 123 -69.5 198.5t-183.5 75.5q-104 0 -180 -50.5t-119 -144.5h-22q41 99 124.5 156.5t196.5 57.5q124 0 198.5 -80.5t74.5 -213.5
q0 -85 -26 -165.5t-73.5 -145t-122 -103.5t-163.5 -39z" />
    <glyph glyph-name="afii10048" unicode="&#x42e;" horiz-adv-x="908" 
d="M525 -16q-123 0 -194.5 80.5t-71.5 215.5q0 42 6 82h-174l-78 -362h-19l152 714h20l-71 -332h173q18 96 62.5 173t119.5 126.5t167 49.5q121 0 193.5 -80.5t72.5 -216.5q0 -114 -42 -215.5t-125.5 -168t-190.5 -66.5zM525 3q100 0 179.5 65t119 162t39.5 204
q0 127 -66 202t-180 75q-77 0 -142 -37.5t-107 -99t-65.5 -138t-23.5 -156.5q0 -124 67.5 -200.5t178.5 -76.5z" />
    <glyph glyph-name="afii10049" unicode="&#x42f;" horiz-adv-x="613" 
d="M-73 0l331 325q-82 0 -132.5 39t-50.5 126q0 78 45 139t118 76q41 9 124 9h268l-151 -714h-20l69 324h-243l-329 -324h-29zM307 344h224l75 350h-277q-57 0 -88.5 -7.5t-61.5 -26.5q-35 -21 -58.5 -71t-23.5 -101q0 -58 34 -98q23 -27 60 -36.5t116 -9.5z" />
    <glyph glyph-name="afii10065" unicode="&#x430;" horiz-adv-x="481" 
d="M133 -11q-66 0 -109 31t-43 95q0 50 18 84t51.5 51t70 24t83.5 7q14 0 38.5 1t36.5 1q61 0 94 24.5t33 90.5q0 108 -137 108q-154 0 -190 -141h-20q37 159 210 161q157 0 157 -128q0 -23 -8 -63l-59 -251q-4 -16 -4 -35q0 -33 31 -33q24 0 35 4v-20q-17 -3 -34 -3
q-52 0 -52 52q0 14 10 56h-2q-36 -61 -86 -88.5t-124 -27.5zM133 8q92 0 151.5 52.5t80.5 140.5l21 89l-2 2q-28 -30 -179 -30q-205 0 -205 -147q0 -53 37.5 -80t95.5 -27z" />
    <glyph glyph-name="afii10066" unicode="&#x431;" horiz-adv-x="519" 
d="M215 -11q-91 0 -140 51t-49 147q0 67 6.5 126.5t25 123.5t48 111.5t79 81.5t114.5 42l135 17q65 8 76 42h20q-10 -29 -31.5 -42t-76.5 -21l-119 -15q-53 -7 -95.5 -32.5t-67 -57t-42.5 -73.5t-24.5 -71.5t-11.5 -61.5h2q34 78 97 115.5t132 37.5q82 0 130.5 -51
t48.5 -140q0 -81 -27.5 -154.5t-87.5 -124.5t-142 -51zM214 8q59 0 106 28.5t75 74.5t42.5 100t14.5 110q0 79 -44 124.5t-121 45.5q-112 0 -176.5 -92t-64.5 -213q0 -87 43.5 -132.5t124.5 -45.5z" />
    <glyph glyph-name="afii10067" unicode="&#x432;" horiz-adv-x="486" 
d="M-18 0l108 514h193q154 0 154 -114q0 -54 -35.5 -88.5t-98.5 -42.5q105 -13 105 -114q0 -49 -29.5 -90.5t-75.5 -53.5q-40 -11 -103 -11h-218zM6 20h179q71 0 110 11q42 12 67.5 46.5t25.5 79.5q0 60 -39.5 81t-106.5 21h-186zM60 279h193q66 0 115 28t49 93
q0 30 -11 49.5t-32 29t-42.5 12.5t-52.5 3h-173z" />
    <glyph glyph-name="afii10068" unicode="&#x433;" horiz-adv-x="365" 
d="M-13 0l109 514h313l-4 -20h-293l-105 -494h-20z" />
    <glyph glyph-name="afii10069" unicode="&#x434;" horiz-adv-x="527" 
d="M-114 -166l39 186h58q50 67 89 161t56.5 161t40.5 172h319l-105 -494h68l-40 -186h-20l36 166h-486l-35 -166h-20zM5 20h358l101 474h-280q-65 -315 -179 -474z" />
    <glyph glyph-name="afii10070" unicode="&#x435;" 
d="M195 -11q-93 0 -142 58.5t-49 151.5q0 83 28.5 155.5t91 122t148.5 49.5q89 0 137.5 -56t48.5 -144q0 -36 -4 -73h-427q-3 -23 -3 -55q0 -56 17 -96t44.5 -59t54 -27t54.5 -8q168 0 212 161h21q-48 -180 -232 -180zM31 273h402q5 24 5 53q0 77 -43 128.5t-123 51.5
q-98 0 -160 -65.5t-81 -167.5z" />
    <glyph glyph-name="afii10072" unicode="&#x436;" horiz-adv-x="700" 
d="M-97 0l311 299l-166 215h27l235 -307l64 307h20l-64 -306l361 306h30l-259 -217l190 -297h-24l-182 283l-122 -103l-38 -180h-20l39 182l-79 101l-295 -283h-28z" />
    <glyph glyph-name="afii10073" unicode="&#x437;" horiz-adv-x="466" 
d="M186 -11q-92 0 -141 42.5t-49 121.5v20h20v-14q0 -151 172 -151q79 0 128 40t49 110q0 44 -32 72.5t-88 28.5h-80l4 19h78q63 0 106 34.5t43 94.5q0 47 -36.5 73.5t-102.5 26.5q-159 0 -187 -139h-20q12 78 66.5 118t143.5 40q73 0 115 -30.5t42 -88.5q0 -55 -35.5 -92
t-93.5 -45v-1q44 -2 70.5 -35.5t26.5 -77.5q0 -79 -54.5 -123t-144.5 -44z" />
    <glyph glyph-name="afii10074" unicode="&#x438;" horiz-adv-x="510" 
d="M-18 0l109 514h20l-105 -496h2l449 496h34l-109 -514h-20l104 496h-2l-448 -496h-34z" />
    <glyph glyph-name="afii10075" unicode="&#x439;" horiz-adv-x="510" 
d="M-18 0l109 514h20l-105 -496h2l449 496h34l-109 -514h-20l104 496h-2l-448 -496h-34zM292 592q-51 0 -78 27.5t-25 79.5h20q-1 -87 83 -87q90 0 123 87h20q-38 -107 -143 -107z" />
    <glyph glyph-name="afii10076" unicode="&#x43a;" horiz-adv-x="444" 
d="M-18 0l109 514h20l-64 -305l387 305h31l-272 -215l206 -299h-26l-197 285l-135 -104l-39 -181h-20z" />
    <glyph glyph-name="afii10077" unicode="&#x43b;" horiz-adv-x="529" 
d="M-28 -6q-36 0 -55 6l5 22q21 -8 53 -8q27 0 50.5 17.5t43.5 55t35.5 76.5t32.5 104.5t28 114t28 127.5q1 3 1 5h316l-109 -514h-20l105 494h-276q-56 -248 -82 -323q-53 -156 -131 -174q-12 -3 -25 -3z" />
    <glyph glyph-name="afii10078" unicode="&#x43c;" horiz-adv-x="611" 
d="M-19 0l109 514h31l115 -493l323 493h33l-109 -514h-20l104 490h-2l-321 -490h-24l-113 490h-2l-104 -490h-20z" />
    <glyph glyph-name="afii10079" unicode="&#x43d;" 
d="M-18 0l109 514h20l-50 -236h350l50 236h20l-109 -514h-20l54 258h-350l-54 -258h-20z" />
    <glyph glyph-name="afii10080" unicode="&#x43e;" horiz-adv-x="519" 
d="M203 -11q-95 0 -146 53.5t-51 148.5q0 135 72.5 235t195.5 100q92 0 145 -58t53 -153q0 -58 -18 -115t-50.5 -104.5t-85 -77t-115.5 -29.5zM203 8q78 0 136.5 48.5t85.5 117t27 141.5q0 90 -48 140.5t-130 50.5q-78 0 -136.5 -48.5t-85 -118.5t-26.5 -148
q0 -86 45.5 -134.5t131.5 -48.5z" />
    <glyph glyph-name="afii10081" unicode="&#x43f;" horiz-adv-x="490" 
d="M-18 0l109 514h380l-109 -514h-20l105 494h-340l-105 -494h-20z" />
    <glyph glyph-name="afii10082" unicode="&#x440;" horiz-adv-x="537" 
d="M-44 -176l145 690h21l-29 -136h2q74 148 213 148q91 0 136.5 -58.5t45.5 -150.5q0 -79 -31.5 -153t-95 -124.5t-143.5 -50.5q-79 0 -125 38.5t-51 107.5h-2l-65 -311h-21zM220 8q73 0 132 48t88.5 117t29.5 140q0 87 -39 140t-123 53q-77 0 -136.5 -55.5t-87 -130
t-27.5 -147.5q0 -77 41.5 -121t121.5 -44z" />
    <glyph glyph-name="afii10083" unicode="&#x441;" 
d="M209 -11q-95 0 -146 53.5t-51 148.5q0 135 72.5 235t195.5 100q86 0 134.5 -43.5t48.5 -123.5h-20q0 71 -43.5 109t-119.5 38q-78 0 -136.5 -48.5t-85 -118.5t-26.5 -148q0 -86 45.5 -134.5t131.5 -48.5q146 0 203 157h20q-22 -81 -83 -128.5t-140 -47.5z" />
    <glyph glyph-name="afii10084" unicode="&#x442;" horiz-adv-x="396" 
d="M110 0l105 494h-201l4 20h422l-4 -20h-201l-105 -494h-20z" />
    <glyph glyph-name="afii10085" unicode="&#x443;" horiz-adv-x="407" 
d="M-66 -176l3 20q51 -4 82.5 14t57.5 65l44 77l-100 514h22l95 -488l281 488h25l-337 -582q-34 -59 -63.5 -83.5t-83.5 -24.5h-26z" />
    <glyph glyph-name="afii10086" unicode="&#x444;" horiz-adv-x="762" 
d="M258 -176l55 252q-19 -36 -61 -61.5t-89 -25.5q-72 0 -114.5 48.5t-42.5 141.5q0 87 26.5 163.5t84 129.5t135.5 53q52 0 88.5 -23.5t47.5 -66.5l60 279h20l-60 -277q21 39 61.5 63.5t88.5 24.5q72 0 114.5 -47.5t42.5 -141.5q0 -62 -15 -121.5t-43.5 -111t-77.5 -83
t-110 -31.5q-52 0 -88 24t-49 66l-54 -255h-20zM167 8q55 0 101 41t60 104l44 203q15 72 -21 110.5t-100 38.5q-72 0 -124.5 -52.5t-76 -124.5t-23.5 -149q0 -84 39.5 -127.5t100.5 -43.5zM470 8q54 0 98.5 30.5t71 79.5t40.5 105.5t14 112.5q0 82 -37.5 126t-102.5 44
q-55 0 -101 -40.5t-60 -103.5l-44 -203q-15 -73 21 -112t100 -39z" />
    <glyph glyph-name="afii10087" unicode="&#x445;" horiz-adv-x="407" 
d="M-77 0l255 268l-133 246h23l126 -232l218 232h26l-232 -249l146 -265h-23l-139 252l-240 -252h-27z" />
    <glyph glyph-name="afii10088" unicode="&#x446;" horiz-adv-x="510" 
d="M380 -166l36 166h-434l109 514h20l-105 -494h340l105 494h20l-105 -494h74l-40 -186h-20z" />
    <glyph glyph-name="afii10089" unicode="&#x447;" horiz-adv-x="462" 
d="M314 0l53 245q-116 -43 -199 -43q-133 0 -133 115q0 23 6 53l30 144h20l-29 -141q-6 -27 -6 -50q0 -101 109 -101q106 0 206 45l52 247h20l-109 -514h-20z" />
    <glyph glyph-name="afii10090" unicode="&#x448;" horiz-adv-x="758" 
d="M-18 0l109 514h20l-105 -494h294l105 494h20l-105 -494h294l105 494h20l-109 -514h-648z" />
    <glyph glyph-name="afii10091" unicode="&#x449;" horiz-adv-x="778" 
d="M648 -166l36 166h-702l109 514h20l-105 -494h294l105 494h20l-105 -494h294l105 494h20l-105 -494h74l-40 -186h-20z" />
    <glyph glyph-name="afii10092" unicode="&#x44a;" horiz-adv-x="561" 
d="M82 0l105 494h-173l4 20h193l-48 -228h167q61 0 92 -9q79 -23 79 -118q0 -58 -32.5 -99.5t-88.5 -53.5q-27 -6 -91 -6h-207zM106 20h208q71 0 109 24q26 17 42.5 49t16.5 68q0 43 -25 71q-17 20 -45 27.5t-83 7.5h-169z" />
    <glyph glyph-name="afii10093" unicode="&#x44b;" horiz-adv-x="607" 
d="M-18 0l109 514h20l-48 -228h156q61 0 93 -9q37 -11 58 -42t21 -76q0 -58 -33 -99.5t-89 -53.5q-25 -6 -90 -6h-197zM6 20h198q74 0 109 24q26 17 42.5 49t16.5 68q0 43 -25 71q-18 20 -45.5 27.5t-82.5 7.5h-160zM460 0l108 514h20l-108 -514h-20z" />
    <glyph glyph-name="afii10094" unicode="&#x44c;" horiz-adv-x="461" 
d="M-18 0l109 514h20l-48 -228h166q61 0 93 -9q37 -11 58 -42t21 -76q0 -58 -33 -99.5t-89 -53.5q-25 -6 -90 -6h-207zM6 20h208q74 0 109 24q26 17 42.5 49t16.5 68q0 43 -25 71q-18 20 -45.5 27.5t-82.5 7.5h-170z" />
    <glyph glyph-name="afii10095" unicode="&#x44d;" 
d="M179 -11q-177 0 -177 178h20q0 -83 39.5 -121t119.5 -38q102 0 167 71.5t80 176.5h-280l3 20h280q1 12 1 37q0 94 -44.5 144t-126.5 50q-69 0 -121.5 -36t-79.5 -104h-22q58 159 223 159q95 0 143.5 -57.5t48.5 -151.5q0 -85 -30 -158t-94 -121.5t-150 -48.5z" />
    <glyph glyph-name="afii10096" unicode="&#x44e;" horiz-adv-x="699" 
d="M388 -11q-90 0 -141 54t-51 148q0 37 5 66h-145l-54 -257h-20l109 514h20l-50 -237h143q22 107 89 178t166 71q87 0 140 -58.5t53 -152.5q0 -79 -30 -152t-92 -123.5t-142 -50.5zM388 8q74 0 131.5 48.5t85 117.5t27.5 141q0 88 -48 139.5t-125 51.5q-75 0 -132 -48
t-84 -118.5t-27 -148.5q0 -86 45 -134.5t127 -48.5z" />
    <glyph glyph-name="afii10097" unicode="&#x44f;" horiz-adv-x="466" 
d="M-70 0l226 229q-119 14 -119 128q0 57 31.5 98.5t85.5 52.5q25 6 89 6h201l-109 -514h-20l47 225h-181l-224 -225h-27zM201 244h165l54 250h-202q-70 0 -105 -24q-26 -16 -41.5 -47t-15.5 -67q0 -112 145 -112z" />
    <glyph glyph-name="uni0450" unicode="&#x450;" 
d="M195 -11q-93 0 -142 58.5t-49 151.5q0 83 28.5 155.5t91 122t148.5 49.5q89 0 137.5 -56t48.5 -144q0 -36 -4 -73h-427q-3 -23 -3 -55q0 -56 17 -96t44.5 -59t54 -27t54.5 -8q168 0 212 161h21q-48 -180 -232 -180zM31 273h402q5 24 5 53q0 77 -43 128.5t-123 51.5
q-98 0 -160 -65.5t-81 -167.5zM226 731l112 -144h-25l-112 144h25z" />
    <glyph glyph-name="afii10071" unicode="&#x451;" 
d="M195 -11q-93 0 -142 58.5t-49 151.5q0 83 28.5 155.5t91 122t148.5 49.5q89 0 137.5 -56t48.5 -144q0 -36 -4 -73h-427q-3 -23 -3 -55q0 -56 17 -96t44.5 -59t54 -27t54.5 -8q168 0 212 161h21q-48 -180 -232 -180zM31 273h402q5 24 5 53q0 77 -43 128.5t-123 51.5
q-98 0 -160 -65.5t-81 -167.5zM228 671l-13 -81h-21l13 81h21zM386 671l-13 -81h-21l13 81h21z" />
    <glyph glyph-name="afii10099" unicode="&#x452;" horiz-adv-x="510" 
d="M-8 0l127 593h-81l4 19h81l22 102h21l-22 -102h249l-4 -19h-249l-32 -153l-13 -58l2 -2q76 136 208 136q69 0 110 -36.5t41 -103.5q0 -35 -12 -81l-62 -295h-21l63 300q12 60 12 76q-1 58 -36.5 89t-94.5 31q-54 0 -97.5 -23t-72 -64t-46 -85t-28.5 -97l-49 -227h-20z
" />
    <glyph glyph-name="afii10100" unicode="&#x453;" horiz-adv-x="365" 
d="M-13 0l109 514h313l-4 -20h-293l-105 -494h-20zM231 587h-28l163 144h28z" />
    <glyph glyph-name="afii10101" unicode="&#x454;" 
d="M202 -11q-92 0 -141 56t-49 149q0 85 30 159t94 123.5t150 49.5q80 0 127 -41.5t50 -115.5h-19q-3 65 -45.5 101.5t-114.5 36.5q-96 0 -160 -66.5t-83 -164.5h281l-4 -20h-281q-5 -32 -5 -58q0 -93 45.5 -142t128.5 -49q147 0 207 156h21q-27 -82 -86.5 -128t-145.5 -46z
" />
    <glyph glyph-name="afii10102" unicode="&#x455;" horiz-adv-x="463" 
d="M183 -11q-186 0 -186 147q0 6 1 19t1 19h20q-22 -166 164 -166q70 0 119.5 31t49.5 96q0 15 -3 27.5t-12 23t-15 17t-21.5 14.5t-22 11t-26 11t-24.5 10q-9 3 -35 12.5t-38 14.5t-32.5 17t-30 23.5t-17.5 30.5t-8 42q0 67 51.5 102t123.5 35q85 0 132 -39.5t38 -126.5
h-20q9 74 -31.5 110t-118.5 36q-61 0 -108 -28.5t-47 -88.5q0 -56 61 -87q12 -6 58 -25q10 -4 35 -13t39 -14t34 -16.5t31 -23.5t19 -31.5t8 -43.5q0 -76 -54 -111t-135 -35z" />
    <glyph glyph-name="afii10103" unicode="&#x456;" horiz-adv-x="130" 
d="M-20 0l109 514h22l-110 -514h-21zM106 610l23 104h22l-23 -104h-22z" />
    <glyph glyph-name="afii10104" unicode="&#x457;" horiz-adv-x="130" 
d="M55 671l-13 -81h-21l13 81h21zM213 671l-13 -81h-21l13 81h21zM1 0h-21l109 514h22z" />
    <glyph glyph-name="afii10105" unicode="&#x458;" horiz-adv-x="130" 
d="M-166 -174l3 18q24 -2 38 -2q25 0 43 10.5t28.5 33t15 37.5t10.5 43l117 548h22l-119 -556q-8 -34 -14 -52t-18.5 -40t-33.5 -32t-51 -10q-15 0 -41 2zM106 610l23 104h22l-23 -104h-22z" />
    <glyph glyph-name="afii10106" unicode="&#x459;" horiz-adv-x="860" 
d="M-28 -6q-36 0 -55 6l5 22q21 -8 53 -8q27 0 50.5 17.5t43.5 55t35.5 76.5t32.5 104.5t28 114t28 127.5q1 3 1 5h316l-48 -228h166q61 0 93 -9q37 -11 58 -42t21 -76q0 -58 -33 -99.5t-89 -53.5q-25 -6 -90 -6h-207l105 494h-276q-56 -248 -82 -323q-53 -156 -131 -174
q-12 -3 -25 -3zM405 20h208q74 0 109 24q26 17 42.5 49t16.5 68q0 43 -25 71q-18 20 -45.5 27.5t-82.5 7.5h-170z" />
    <glyph glyph-name="afii10107" unicode="&#x45a;" horiz-adv-x="831" 
d="M-18 0l109 514h20l-48 -228h350l48 228h20l-48 -228h166q61 0 93 -9q37 -11 58 -42t21 -76q0 -58 -33 -99.5t-89 -53.5q-25 -6 -90 -6h-207l56 266h-350l-56 -266h-20zM376 20h208q74 0 109 24q26 17 42.5 49t16.5 68q0 43 -25 71q-18 20 -45 27t-83 7h-170z" />
    <glyph glyph-name="afii10108" unicode="&#x45b;" horiz-adv-x="510" 
d="M-8 0l127 593h-81l4 19h81l22 102h21l-22 -102h249l-4 -19h-249l-32 -153l-13 -58l2 -2q76 136 208 136q69 0 110 -36.5t41 -103.5q0 -35 -12 -81l-62 -295h-21l63 300q12 60 12 76q-1 58 -36.5 89t-94.5 31q-54 0 -97.5 -23t-72 -64t-46 -85t-28.5 -97l-49 -227h-20z
" />
    <glyph glyph-name="afii10109" unicode="&#x45c;" horiz-adv-x="444" 
d="M-18 0l109 514h20l-64 -305l387 305h31l-272 -215l206 -299h-26l-197 285l-135 -104l-39 -181h-20zM254 587h-28l163 144h28z" />
    <glyph glyph-name="uni045D" unicode="&#x45d;" horiz-adv-x="510" 
d="M-18 0l109 514h20l-105 -496h2l449 496h34l-109 -514h-20l104 496h-2l-448 -496h-34zM231 731l112 -144h-25l-112 144h25z" />
    <glyph glyph-name="afii10110" unicode="&#x45e;" horiz-adv-x="407" 
d="M-66 -176l3 20q51 -4 82.5 14t57.5 65l44 77l-100 514h22l95 -488l281 488h25l-337 -582q-34 -59 -63.5 -83.5t-83.5 -24.5h-26zM236 592q-51 0 -78 27.5t-25 79.5h20q-1 -87 83 -87q90 0 123 87h20q-38 -107 -143 -107z" />
    <glyph glyph-name="afii10193" unicode="&#x45f;" horiz-adv-x="490" 
d="M123 -177l38 177h-179l109 514h20l-105 -494h340l105 494h20l-109 -514h-181l-38 -177h-20z" />
    <glyph glyph-name="afii10146" unicode="&#x462;" horiz-adv-x="677" 
d="M96 0l120 570h-170l4 20h170l27 124h20l-26 -124h273l-4 -20h-273l-36 -171h198q92 0 129 -12q52 -16 81.5 -59.5t29.5 -105.5q0 -81 -46 -139t-124 -74q-41 -9 -126 -9h-247zM119 20h258q58 0 91.5 7.5t63.5 26.5q39 25 62.5 71.5t23.5 98.5q0 62 -37 105
q-26 29 -65.5 39.5t-118.5 10.5h-200z" />
    <glyph glyph-name="afii10194" unicode="&#x463;" horiz-adv-x="525" 
d="M46 0l105 494h-141l4 20h141l43 200h20l-43 -200h241l-4 -20h-241l-44 -208h166q61 0 93 -9q37 -11 58 -42t21 -76q0 -58 -33 -99.5t-89 -53.5q-25 -6 -90 -6h-207zM70 20h208q74 0 109 24q26 17 42.5 49t16.5 68q0 43 -25 71q-18 20 -45.5 27.5t-82.5 7.5h-170z" />
    <glyph glyph-name="uni046A" unicode="&#x46a;" horiz-adv-x="920" 
d="M-14 0l28 134q8 38 13 59t14 50t18 44t23 33.5t32 27.5t43 18t56.5 12.5t71.5 3.5h171l-185 332h546l-327 -332h159q110 0 153 -28.5t43 -92.5q0 -39 -19 -127l-28 -134h-20l28 132q19 88 19 125q0 56 -38 80.5t-137 24.5h-171l-77 -362h-20l77 362h-173q-50 0 -86.5 -5
t-62 -20t-41 -29.5t-28 -46.5t-18.5 -56.5t-16 -72.5l-28 -132h-20zM474 394l297 300h-465z" />
    <glyph glyph-name="uni046B" unicode="&#x46b;" horiz-adv-x="674" 
d="M-32 0l27 130q17 83 63 115.5t127 32.5h121l-132 236h400l-233 -236h112q70 0 105 -23.5t35 -80.5q0 -24 -5 -48l-26 -126h-20l26 127q4 20 4 41q0 49 -30 69.5t-89 20.5h-124l-54 -258h-20l54 258h-124q-72 0 -113.5 -28.5t-57.5 -102.5l-26 -127h-20zM324 287l205 207
h-319z" />
    <glyph glyph-name="afii10147" unicode="&#x472;" horiz-adv-x="722" 
d="M319 -16q-136 0 -211 79.5t-75 216.5q0 85 25 165t71.5 144t119.5 103t162 39q135 0 210.5 -80t75.5 -217q0 -85 -25.5 -165t-72 -144t-119.5 -102.5t-161 -38.5zM319 3q78 0 144.5 34t110.5 90t70.5 126.5t31.5 145.5q-35 -35 -72 -55t-92 -20q-47 0 -149 49t-138 49
q-96 0 -169 -86q-3 -28 -3 -56q0 -126 71 -201.5t195 -75.5zM515 344q38 0 71 14t49.5 27.5t41.5 38.5v10q0 128 -69 202.5t-197 74.5q-142 0 -235 -99.5t-116 -243.5q74 74 169 74q36 0 139 -49t147 -49z" />
    <glyph glyph-name="afii10195" unicode="&#x473;" horiz-adv-x="519" 
d="M203 -11q-95 0 -146 53.5t-51 148.5q0 135 72.5 235t195.5 100q92 0 145 -58t53 -153q0 -58 -18 -115t-50.5 -104.5t-85 -77t-115.5 -29.5zM203 8q101 0 165 76t80 180q-47 -43 -108 -43q-33 0 -103.5 38.5t-105.5 38.5q-54 0 -101 -46q-4 -28 -4 -61q0 -86 45.5 -134.5
t131.5 -48.5zM342 241q59 0 109 48q0 5 0.5 13t0.5 13q0 90 -48 140.5t-130 50.5q-95 0 -156 -64.5t-83 -162.5q46 38 100 38q37 0 109 -38t98 -38z" />
    <glyph glyph-name="afii10148" unicode="&#x474;" horiz-adv-x="600" 
d="M193 0l-119 714h20l115 -694h2l348 614q54 94 119 94q23 0 45 -5l-4 -20q-20 5 -44 5q-53 0 -96 -78l-358 -630h-28z" />
    <glyph glyph-name="afii10196" unicode="&#x475;" horiz-adv-x="438" 
d="M110 0l-90 514h21l84 -494h2l240 431q41 75 105 75q25 0 41 -6l-4 -19q-18 5 -40 5q-49 0 -86 -67l-246 -439h-27z" />
    <glyph glyph-name="Izhitsadblgravecyrillic" unicode="&#x476;" horiz-adv-x="600" 
d="M193 0l-119 714h20l115 -694h2l348 614q54 94 119 94q23 0 45 -5l-4 -20q-20 5 -44 5q-53 0 -96 -78l-358 -630h-28zM522 922l112 -144h-25l-112 144h25zM392 922l112 -144h-25l-112 144h25z" />
    <glyph glyph-name="izhitsadblgravecyrillic" unicode="&#x477;" horiz-adv-x="438" 
d="M110 0l-90 514h21l84 -494h2l240 431q41 75 105 75q25 0 41 -6l-4 -19q-18 5 -40 5q-49 0 -86 -67l-246 -439h-27zM370 721l112 -144h-25l-112 144h25zM240 721l112 -144h-25l-112 144h25z" />
    <glyph glyph-name="uni048C" unicode="&#x48c;" horiz-adv-x="677" 
d="M96 0l147 694h-171l4 20h171l27 124h20l-27 -124h193l-4 -20h-193l-62 -295h198q92 0 129 -12q52 -16 81.5 -59.5t29.5 -105.5q0 -81 -46 -139t-124 -74q-41 -9 -126 -9h-247zM119 20h258q58 0 91.5 7.5t63.5 26.5q39 25 62.5 71.5t23.5 98.5q0 62 -37 105
q-26 29 -65.5 39.5t-118.5 10.5h-200z" />
    <glyph glyph-name="uni048D" unicode="&#x48d;" horiz-adv-x="535" 
d="M56 0l104 494h-150l4 20h150l25 116h20l-25 -116h152l-4 -20h-152l-43 -208h166q61 0 93 -9q37 -11 58 -42t21 -76q0 -58 -33 -99.5t-89 -53.5q-25 -6 -90 -6h-207zM80 20h208q74 0 109 24q26 17 42.5 49t16.5 68q0 43 -25 71q-18 20 -45.5 27.5t-82.5 7.5h-170z" />
    <glyph glyph-name="afii10050" unicode="&#x490;" horiz-adv-x="463" 
d="M-7 0l151 714h399l34 161h20l-38 -181h-399l-147 -694h-20z" />
    <glyph glyph-name="afii10098" unicode="&#x491;" horiz-adv-x="365" 
d="M-18 0l109 514h293l33 157h20l-37 -177h-293l-105 -494h-20z" />
    <glyph glyph-name="uni0492" unicode="&#x492;" horiz-adv-x="552" 
d="M83 0l76 362h-123l5 20h123l70 332h419l-4 -20h-399l-66 -312h231l-5 -20h-231l-76 -362h-20z" />
    <glyph glyph-name="uni0493" unicode="&#x493;" horiz-adv-x="430" 
d="M41 0l54 255h-96l4 20h96l51 239h323l-4 -20h-303l-47 -219h187l-4 -20h-187l-54 -255h-20z" />
    <glyph glyph-name="uni0496" unicode="&#x496;" horiz-adv-x="1005" 
d="M928 -176l38 176h-59l-263 395l-167 -142l-54 -253h-20l55 256l-115 149l-410 -405h-29l428 420l-228 294h25l335 -431l90 431h20l-90 -429l500 429h29l-354 -305l259 -389h72l-42 -196h-20z" />
    <glyph glyph-name="uni0497" unicode="&#x497;" horiz-adv-x="731" 
d="M642 -166l36 166h-50l-182 283l-122 -103l-38 -180h-20l39 182l-79 101l-295 -283h-28l311 299l-166 215h27l235 -307l64 307h20l-64 -306l361 306h30l-259 -217l177 -277h63l-40 -186h-20z" />
    <glyph glyph-name="uni0498" unicode="&#x498;" horiz-adv-x="595" 
d="M239 -183q-37 0 -87 22l8 19q40 -21 80 -21q26 0 49 14t23 39q0 21 -16 31.5t-37 10.5q-15 0 -54 -13l-15 9l57 57q-112 7 -171.5 64.5t-59.5 160.5q0 14 1 27h20q-1 -12 -1 -23q0 -211 243 -211q110 0 176 58.5t66 159.5q0 64 -45.5 104.5t-125.5 40.5h-100l3 20h100
q88 0 149.5 47.5t61.5 131.5q0 69 -52 107.5t-145 38.5q-111 0 -173.5 -49.5t-82.5 -148.5h-20q21 106 91.5 162t188.5 56q99 0 156.5 -43t57.5 -122q0 -76 -49 -127.5t-127 -61.5l-1 -2q57 -4 95.5 -48t38.5 -105q0 -111 -72 -174.5t-194 -63.5h-4l-24 -25l-12 -9l2 -2
q7 4 21 4q32 0 52.5 -16t20.5 -46q0 -36 -28 -54.5t-65 -18.5z" />
    </font>
</defs>
</svg>
